<svg xmlns="http://www.w3.org/2000/svg" viewBox="0 0 476.1543 342.0813">
  <defs>
    <style>
      .cls-1 {
        fill: #e2e2e2;
        stroke-width: 2px;
        opacity: 0.5;
      }

      .cls-1, .cls-3, .cls-4 {
        stroke: #626262;
        stroke-miterlimit: 10;
      }

      .cls-2 {
        fill: #e3e3e3;
      }

      .cls-3 {
        fill: #30d6d6;
      }

      .cls-3, .cls-4 {
        stroke-width: 3px;
      }

      .cls-4 {
        fill: none;
      }
    </style>
  </defs>
  <title>AllInclusive</title>
  <g id="Layer_2" data-name="Layer 2">
    <circle class="cls-1" cx="395.802" cy="173.0244" r="79.3523"/>
    <ellipse class="cls-1" cx="316.4498" cy="171.3645" rx="158.3847" ry="120.3645"/>
    <ellipse class="cls-1" cx="238.0772" cy="171.0406" rx="237.0772" ry="170.0406"/>
  </g>
  <g id="Layer_1" data-name="Layer 1">
    <g>
      <g>
        <path class="cls-2" d="M93.2227,232.1846a38.1763,38.1763,0,1,1,38.1757-38.1768A38.22,38.22,0,0,1,93.2227,232.1846Z" transform="translate(-12.8457 -19)"/>
        <path class="cls-2" d="M93.2225,157.3321a36.6761,36.6761,0,1,1-36.6761,36.6761,36.7176,36.7176,0,0,1,36.6761-36.6761m0-3a39.6761,39.6761,0,1,0,39.6761,39.6761,39.6761,39.6761,0,0,0-39.6761-39.6761Z" transform="translate(-12.8457 -19)"/>
      </g>
      <circle class="cls-3" cx="76.4092" cy="171.0406" r="39.6761"/>
    </g>
    <g>
      <g>
        <path class="cls-2" d="M251.9268,232.1846a38.1763,38.1763,0,1,1,38.1767-38.1768A38.2195,38.2195,0,0,1,251.9268,232.1846Z" transform="translate(-12.8457 -19)"/>
        <path class="cls-2" d="M251.927,157.3321a36.6761,36.6761,0,1,1-36.6761,36.6761,36.7176,36.7176,0,0,1,36.6761-36.6761m0-3a39.6761,39.6761,0,1,0,39.6761,39.6761,39.6761,39.6761,0,0,0-39.6761-39.6761Z" transform="translate(-12.8457 -19)"/>
      </g>
      <circle class="cls-3" cx="235.1137" cy="171.0406" r="39.6761"/>
    </g>
    <g>
      <g>
        <path class="cls-2" d="M410.6318,232.1846a38.1763,38.1763,0,1,1,38.1758-38.1768A38.22,38.22,0,0,1,410.6318,232.1846Z" transform="translate(-12.8457 -19)"/>
        <path class="cls-2" d="M410.6316,157.3321a36.6761,36.6761,0,1,1-36.6762,36.6761,36.7176,36.7176,0,0,1,36.6762-36.6761m0-3a39.6761,39.6761,0,1,0,39.6761,39.6761,39.6762,39.6762,0,0,0-39.6761-39.6761Z" transform="translate(-12.8457 -19)"/>
      </g>
      <circle class="cls-3" cx="393.8182" cy="171.0406" r="39.6761"/>
    </g>
    <line class="cls-4" x1="116.0853" y1="173.0244" x2="195.4376" y2="173.0244"/>
    <line class="cls-4" x1="274.7898" y1="173.0244" x2="354.1421" y2="173.0244"/>
  </g>
</svg>
