<svg xmlns="http://www.w3.org/2000/svg" viewBox="0 0 450 283">
  <defs>
    <style>
      .cls-1 {
        isolation: isolate;
      }

      .cls-2, .cls-4 {
        fill: none;
        stroke-miterlimit: 10;
      }

      .cls-2 {
        stroke: #eaebed;
      }

      .cls-3 {
        fill: #b3b3b3;
      }

      .cls-4 {
        stroke: #5c5f63;
        stroke-width: 2px;
      }

      .cls-5 {
        fill: #5c5f63;
      }

      .cls-6 {
        opacity: 0.1;
        mix-blend-mode: multiply;
      }

      .cls-7 {
        fill: #fff;
      }

      .cls-8 {
        fill: #999;
      }
    </style>
  </defs>
  <title>Arch</title>
  <g class="cls-1">
    <g id="Layer_8" data-name="Layer 8">
      <line class="cls-2" y1="66" x2="450" y2="66"/>
      <line class="cls-2" y1="215.5" x2="450" y2="215.5"/>
      <g>
        <path class="cls-3" d="M21.2041,76.5654H23.375a2.3544,2.3544,0,0,1,1.5342.4712,1.725,1.725,0,0,1,.5781,1.4195,1.947,1.947,0,0,1-.3413,1.1591,2.3109,2.3109,0,0,1-1.03.7671,2.238,2.238,0,0,1,1.45.5835,1.9185,1.9185,0,0,1,.4834,1.3985,2.3288,2.3288,0,0,1-.2871,1.1875,2.3943,2.3943,0,0,1-.8584.8413,2.6133,2.6133,0,0,1-1.38.3462h-2.32Zm.7969.6914v2.8594H22.89A1.9148,1.9148,0,0,0,24.19,79.707a1.4734,1.4734,0,0,0,.4707-1.1753,1.1737,1.1737,0,0,0-.3828-.956,1.7652,1.7652,0,0,0-1.1489-.3189Zm0,3.5508v3.24h1.3183a1.9727,1.9727,0,0,0,1.4092-.4678,1.6562,1.6562,0,0,0,.4951-1.2637,1.2839,1.2839,0,0,0-.5332-1.1518,3.0071,3.0071,0,0,0-1.6465-.357Z" transform="translate(-20 -22)"/>
        <path class="cls-3" d="M27.1455,76.5654h1.9688a2.7712,2.7712,0,0,1,1.7138.4893,1.7491,1.7491,0,0,1,.6475,1.4912,2.15,2.15,0,0,1-.4072,1.31A2.4633,2.4633,0,0,1,29.8,80.69a1.54,1.54,0,0,1,.876.5244,2.6918,2.6918,0,0,1,.4306,1.0928l.48,2.4317h-.85l-.3232-1.9688a2.7114,2.7114,0,0,0-.53-1.3535,1.3663,1.3663,0,0,0-1.0747-.416h-.8843v3.7383h-.7793Zm.7793.7149v3.0586h.8145a2.0682,2.0682,0,0,0,1.4-.46,1.56,1.56,0,0,0,.5333-1.2451,1.2869,1.2869,0,0,0-.3809-1.0166,1.6808,1.6808,0,0,0-1.1426-.3369Z" transform="translate(-20 -22)"/>
        <path class="cls-3" d="M35.1084,76.4307a2.2,2.2,0,0,1,1.916,1.1425,5.9389,5.9389,0,0,1,.7324,3.211,5.2062,5.2062,0,0,1-.7558,2.9707,2.233,2.233,0,0,1-3.8555.0146,5.3752,5.3752,0,0,1-.7441-3.0439,5.8993,5.8993,0,0,1,.7207-3.1377A2.2317,2.2317,0,0,1,35.1084,76.4307Zm.0352.7265a1.526,1.526,0,0,0-1.45.999,6.238,6.238,0,0,0-.4659,2.6163,5.2,5.2,0,0,0,.4864,2.44,1.4876,1.4876,0,0,0,1.3476.9111,1.5061,1.5061,0,0,0,1.3653-.9375,5.5269,5.5269,0,0,0,.4921-2.5488A5.2009,5.2009,0,0,0,36.4,78.0215,1.4828,1.4828,0,0,0,35.1436,77.1572Z" transform="translate(-20 -22)"/>
        <path class="cls-3" d="M43.915,76.5654h.82L43.25,84.7393h-.769L41.61,79.2959l-.2-1.5352q-.1875,1.5177-.3223,2.3379l-.7559,4.6407h-.7607l-1.5039-8.1739h.8789l.7578,4.9668q.0351.2228.1294,1.0083.0293.2762.1235.9033l.1992-1.4838q.0352-.3457.0709-.5508l.7622-4.8438h.7783l.8379,4.9668.27,1.9116.27-1.9116Z" transform="translate(-20 -22)"/>
        <path class="cls-3" d="M45.1162,83.1689a5.8069,5.8069,0,0,0,1.0166.7,1.79,1.79,0,0,0,.794.1905,1.6446,1.6446,0,0,0,1.14-.4571,1.5349,1.5349,0,0,0,.501-1.1894,1.3341,1.3341,0,0,0-.3281-.92,3.4075,3.4075,0,0,0-1.2715-.7149q-1.8574-.703-1.8574-2.1328a2.1161,2.1161,0,0,1,.6591-1.5674,2.1741,2.1741,0,0,1,1.5791-.6474,2.7263,2.7263,0,0,1,1.5586.5625v1.0605a4.3607,4.3607,0,0,0-.8408-.65,1.4719,1.4719,0,0,0-.7-.1758,1.4157,1.4157,0,0,0-1.43,1.4,1.1267,1.1267,0,0,0,.3662.8877,4.9605,4.9605,0,0,0,1.3272.7183,5.1215,5.1215,0,0,1,.9341.4751,1.8752,1.8752,0,0,1,.5922.6792,2.0739,2.0739,0,0,1,.2374,1.0019,2.4609,2.4609,0,0,1-2.4493,2.4781,3.2183,3.2183,0,0,1-1.8281-.6739Z" transform="translate(-20 -22)"/>
        <path class="cls-3" d="M50.5186,76.5654h3.9726v.6914H51.3154v2.877h3v.68h-3V84.06h3.1758v.68H50.5186Z" transform="translate(-20 -22)"/>
        <path class="cls-3" d="M55.8037,76.5654h1.9688a2.7712,2.7712,0,0,1,1.7138.4893,1.7491,1.7491,0,0,1,.6475,1.4912,2.15,2.15,0,0,1-.4072,1.31,2.4633,2.4633,0,0,1-1.2686.8349,1.54,1.54,0,0,1,.876.5244,2.6918,2.6918,0,0,1,.4306,1.0928l.48,2.4317h-.85l-.3232-1.9688a2.7114,2.7114,0,0,0-.53-1.3535,1.3663,1.3663,0,0,0-1.0747-.416H56.583v3.7383h-.7793Zm.7793.7149v3.0586h.8145a2.0687,2.0687,0,0,0,1.4-.46,1.56,1.56,0,0,0,.5332-1.2451,1.2869,1.2869,0,0,0-.3809-1.0166,1.6808,1.6808,0,0,0-1.1426-.3369Z" transform="translate(-20 -22)"/>
      </g>
      <g>
        <path class="cls-3" d="M22.0278,241.5654l2.4219,5.4434.6333,1.4355q-.0645-2.2031-.0644-2.2793v-4.6h.7089v8.1739h-.7968l-2.3438-5.2442q-.1-.2226-.375-.9492l-.2812-.7207q-.0177.2462-.0176.2871l.0293.6328.0058.9082-.0175.3516v4.7344h-.709v-8.1739Z" transform="translate(-20 -22)"/>
        <path class="cls-3" d="M29.5713,241.4307a2.2,2.2,0,0,1,1.916,1.1425,5.9389,5.9389,0,0,1,.7324,3.211,5.2062,5.2062,0,0,1-.7558,2.9707,2.233,2.233,0,0,1-3.8555.0146,5.3752,5.3752,0,0,1-.7441-3.0439,5.8993,5.8993,0,0,1,.7207-3.1377A2.2317,2.2317,0,0,1,29.5713,241.4307Zm.0351.7265a1.5262,1.5262,0,0,0-1.45.999,6.24,6.24,0,0,0-.4658,2.6163,5.2,5.2,0,0,0,.4864,2.44,1.4876,1.4876,0,0,0,1.3476.9111,1.506,1.506,0,0,0,1.3652-.9375,5.5255,5.5255,0,0,0,.4922-2.5488,5.2009,5.2009,0,0,0-.5185-2.6162A1.4829,1.4829,0,0,0,29.6064,242.1572Z" transform="translate(-20 -22)"/>
        <path class="cls-3" d="M33.333,241.5654H35.22a2.3825,2.3825,0,0,1,2.1328,1.0635,5.6157,5.6157,0,0,1,.7032,3.0908,6.6161,6.6161,0,0,1-.3194,2.0977,2.7988,2.7988,0,0,1-.9843,1.4414,2.549,2.549,0,0,1-1.5323.48H33.333Zm.7969.7149v6.7676h1.0918A1.6059,1.6059,0,0,0,36.76,248.15a5.9659,5.9659,0,0,0,.47-2.68,4.6921,4.6921,0,0,0-.4873-2.3721,1.6428,1.6428,0,0,0-1.52-.8183Z" transform="translate(-20 -22)"/>
        <path class="cls-3" d="M39.2334,241.5654h3.9727v.6914H40.03v2.877h3v.68h-3V249.06h3.1758v.68H39.2334Z" transform="translate(-20 -22)"/>
      </g>
    </g>
    <g id="Layer_7" data-name="Layer 7">
      <g>
        <line class="cls-4" x1="330" y1="160" x2="330" y2="233.9648"/>
        <path class="cls-5" d="M350,262a30.2222,30.2222,0,0,0-4.7559-8.5474l4.7559,1.72,4.7549-1.72A30.1952,30.1952,0,0,0,350,262Z" transform="translate(-20 -22)"/>
      </g>
      <g>
        <line class="cls-4" x1="330" y1="120" x2="330" y2="46.0352"/>
        <path class="cls-5" d="M350,62a30.2222,30.2222,0,0,0,4.7559,8.5474L350,68.8271l-4.7549,1.72A30.1952,30.1952,0,0,0,350,62Z" transform="translate(-20 -22)"/>
      </g>
      <g>
        <path class="cls-4" d="M191,132h35c20,0,20,30,40,30h26.9679" transform="translate(-20 -22)"/>
        <path class="cls-5" d="M299,162a30.2222,30.2222,0,0,0-8.5474,4.7559l1.72-4.7559-1.72-4.7549A30.1952,30.1952,0,0,0,299,162Z" transform="translate(-20 -22)"/>
      </g>
      <path class="cls-4" d="M191,192h35c20,0,20-30,40-30h19" transform="translate(-20 -22)"/>
      <g>
        <path class="cls-4" d="M169.69,62,170,72c0,60,150-10,150,60v3.9693" transform="translate(-20 -22)"/>
        <path class="cls-5" d="M320,142a30.2222,30.2222,0,0,0-4.7559-8.5474l4.7559,1.72,4.7549-1.72A30.1952,30.1952,0,0,0,320,142Z" transform="translate(-20 -22)"/>
      </g>
    </g>
    <g id="Cucumber">
      <g>
        <g class="cls-6">
          <rect x="73" y="153" width="99" height="38" rx="4"/>
          <path d="M188,176a3.0034,3.0034,0,0,1,3,3v30a3.0034,3.0034,0,0,1-3,3H97a3.0034,3.0034,0,0,1-3-3V179a3.0034,3.0034,0,0,1,3-3h91m0-2H97a5,5,0,0,0-5,5v30a5,5,0,0,0,5,5h91a5,5,0,0,0,5-5V179a5,5,0,0,0-5-5Z" transform="translate(-20 -22)"/>
        </g>
        <g>
          <rect class="cls-7" x="71" y="151" width="99" height="38" rx="4"/>
          <path class="cls-5" d="M186,174a3.0034,3.0034,0,0,1,3,3v30a3.0034,3.0034,0,0,1-3,3H95a3.0034,3.0034,0,0,1-3-3V177a3.0034,3.0034,0,0,1,3-3h91m0-2H95a5,5,0,0,0-5,5v30a5,5,0,0,0,5,5h91a5,5,0,0,0,5-5V177a5,5,0,0,0-5-5Z" transform="translate(-20 -22)"/>
        </g>
      </g>
      <g>
        <path class="cls-5" d="M109.9658,196.959a5.8412,5.8412,0,0,1-2.5029.5039,4.14,4.14,0,0,1-4.3394-4.4473,4.4277,4.4277,0,0,1,4.6817-4.6269,5.303,5.303,0,0,1,2.1968.45l-.36,1.2246a3.6638,3.6638,0,0,0-1.8364-.4151,3.2858,3.2858,0,0,0-.0542,6.5547,4.4978,4.4978,0,0,0,1.9448-.4326Z" transform="translate(-20 -22)"/>
        <path class="cls-5" d="M119.11,194.9062c0,.9.018,1.6924.0722,2.377h-1.4048l-.09-1.4228h-.0361a3.279,3.279,0,0,1-2.8809,1.621c-1.3682,0-3.0068-.7568-3.0068-3.8173v-5.0957h1.5844v4.8261c0,1.6563.5044,2.7725,1.9449,2.7725a2.2292,2.2292,0,0,0,2.2324-2.251v-5.3476H119.11Z" transform="translate(-20 -22)"/>
        <path class="cls-5" d="M127.9478,196.959a5.8421,5.8421,0,0,1-2.503.5039,4.14,4.14,0,0,1-4.3393-4.4473,4.4279,4.4279,0,0,1,4.6816-4.6269,5.2961,5.2961,0,0,1,2.1963.45l-.36,1.2246a3.6635,3.6635,0,0,0-1.8364-.4151,3.2858,3.2858,0,0,0-.0542,6.5547,4.4978,4.4978,0,0,0,1.9448-.4326Z" transform="translate(-20 -22)"/>
        <path class="cls-5" d="M137.0918,194.9062c0,.9.0181,1.6924.0723,2.377H135.76l-.09-1.4228h-.0361a3.2788,3.2788,0,0,1-2.8809,1.621c-1.3681,0-3.0068-.7568-3.0068-3.8173v-5.0957H131.33v4.8261c0,1.6563.5044,2.7725,1.9448,2.7725a2.2908,2.2908,0,0,0,2.0884-1.44,2.3143,2.3143,0,0,0,.144-.8106v-5.3476h1.5845Z" transform="translate(-20 -22)"/>
        <path class="cls-5" d="M139.7178,190.9277c0-.9-.0181-1.6386-.0723-2.3593h1.3867l.0718,1.4043h.0542a3.004,3.004,0,0,1,2.7368-1.6026,2.5768,2.5768,0,0,1,2.4668,1.7471h.0357a3.5984,3.5984,0,0,1,.9726-1.1348,2.9767,2.9767,0,0,1,1.9263-.6123c1.1523,0,2.8628.7569,2.8628,3.7813v5.1318h-1.5484V192.35c0-1.6748-.6118-2.6826-1.8906-2.6826a2.0518,2.0518,0,0,0-1.8725,1.44,2.6132,2.6132,0,0,0-.126.792v5.3838h-1.5484v-5.2217c0-1.3867-.6123-2.3945-1.8183-2.3945a2.1653,2.1653,0,0,0-1.9629,1.584,2.1912,2.1912,0,0,0-.126.7744v5.2578h-1.5483Z" transform="translate(-20 -22)"/>
        <path class="cls-5" d="M154.6572,197.2832c.0362-.5937.0723-1.4766.0723-2.251V184.499h1.5664v5.4737h.0361a3.2469,3.2469,0,0,1,2.9707-1.6026c2.1607,0,3.6914,1.8008,3.6734,4.4483,0,3.1142-1.9629,4.663-3.9073,4.663a3.1046,3.1046,0,0,1-2.9169-1.6386h-.0542l-.0718,1.44Zm1.6387-3.4932a2.9463,2.9463,0,0,0,.0723.5762,2.4438,2.4438,0,0,0,2.3764,1.8545c1.6568,0,2.647-1.3506,2.647-3.3486,0-1.7471-.9-3.2412-2.5928-3.2412a2.5266,2.5266,0,0,0-2.4131,1.9443,3.1624,3.1624,0,0,0-.09.6484Z" transform="translate(-20 -22)"/>
        <path class="cls-5" d="M165.8535,193.2139a2.7922,2.7922,0,0,0,2.9888,3.0254,5.7323,5.7323,0,0,0,2.4126-.45l.27,1.1338a7.0608,7.0608,0,0,1-2.8989.54,4.0463,4.0463,0,0,1-4.2852-4.3926c0-2.6289,1.5488-4.7,4.0874-4.7,2.8447,0,3.6011,2.5029,3.6011,4.1055a5.95,5.95,0,0,1-.0542.7383Zm4.6455-1.1338a2.2566,2.2566,0,0,0-2.1968-2.5752,2.6259,2.6259,0,0,0-2.4306,2.5752Z" transform="translate(-20 -22)"/>
        <path class="cls-5" d="M173.9893,191.2871c0-1.0264-.0181-1.9082-.0723-2.7187h1.3867l.0537,1.7109h.0723a2.6146,2.6146,0,0,1,2.4126-1.9092,1.7088,1.7088,0,0,1,.45.0547v1.4941a2.3772,2.3772,0,0,0-.54-.0537,2.2216,2.2216,0,0,0-2.1245,2.0342,4.4535,4.4535,0,0,0-.0722.7383v4.6455h-1.5664Z" transform="translate(-20 -22)"/>
      </g>
    </g>
    <g id="puppeteer">
      <g>
        <g class="cls-6">
          <rect x="283" y="243" width="99" height="39" rx="4"/>
          <path d="M398,266a3.0034,3.0034,0,0,1,3,3v31a3.0034,3.0034,0,0,1-3,3H307a3.0034,3.0034,0,0,1-3-3V269a3.0034,3.0034,0,0,1,3-3h91m0-2H307a5,5,0,0,0-5,5v31a5,5,0,0,0,5,5h91a5,5,0,0,0,5-5V269a5,5,0,0,0-5-5Z" transform="translate(-20 -22)"/>
        </g>
        <g>
          <rect class="cls-7" x="281" y="241" width="99" height="39" rx="4"/>
          <path class="cls-5" d="M396,264a3.0034,3.0034,0,0,1,3,3v31a3.0034,3.0034,0,0,1-3,3H305a3.0034,3.0034,0,0,1-3-3V267a3.0034,3.0034,0,0,1,3-3h91m0-2H305a5,5,0,0,0-5,5v31a5,5,0,0,0,5,5h91a5,5,0,0,0,5-5V267a5,5,0,0,0-5-5Z" transform="translate(-20 -22)"/>
        </g>
      </g>
      <g id="puppeteer-2" data-name="puppeteer">
        <path class="cls-5" d="M312.0981,281.9131c0-1.1162-.0361-2.0166-.0722-2.8447h1.4223l.0723,1.4951h.0361a3.4259,3.4259,0,0,1,3.0967-1.6934c2.107,0,3.6914,1.7832,3.6914,4.43,0,3.1328-1.9087,4.6816-3.9614,4.6816a3.0554,3.0554,0,0,1-2.6826-1.3681h-.0361v4.7353h-1.5665Zm1.5665,2.3232a3.6084,3.6084,0,0,0,.0717.6485,2.446,2.446,0,0,0,2.377,1.8545c1.6743,0,2.647-1.3692,2.647-3.3672,0-1.7471-.9185-3.2412-2.5928-3.2412a2.5285,2.5285,0,0,0-2.395,1.9629,2.5809,2.5809,0,0,0-.1079.6484Z" transform="translate(-20 -22)"/>
        <path class="cls-5" d="M329.6318,285.4062c0,.9.0181,1.6924.0723,2.377H328.3l-.09-1.4228h-.0362a3.2786,3.2786,0,0,1-2.8808,1.621c-1.3682,0-3.0069-.7568-3.0069-3.8173v-5.0957H323.87v4.8261c0,1.6563.5044,2.7725,1.9448,2.7725a2.2292,2.2292,0,0,0,2.2325-2.251v-5.3476h1.5844Z" transform="translate(-20 -22)"/>
        <path class="cls-5" d="M332.2578,281.9131c0-1.1162-.0361-2.0166-.0723-2.8447h1.4229l.0718,1.4951h.0361a3.4258,3.4258,0,0,1,3.0967-1.6934c2.1069,0,3.6914,1.7832,3.6914,4.43,0,3.1328-1.9087,4.6816-3.9614,4.6816a3.0552,3.0552,0,0,1-2.6826-1.3681h-.0362v4.7353h-1.5664Zm1.5664,2.3232a3.5618,3.5618,0,0,0,.0723.6485,2.4454,2.4454,0,0,0,2.3764,1.8545c1.6744,0,2.647-1.3692,2.647-3.3672,0-1.7471-.9184-3.2412-2.5928-3.2412a2.5287,2.5287,0,0,0-2.395,1.9629,2.5809,2.5809,0,0,0-.1079.6484Z" transform="translate(-20 -22)"/>
        <path class="cls-5" d="M342.5,281.9131c0-1.1162-.0361-2.0166-.0723-2.8447H343.85l.0723,1.4951h.0361a3.4258,3.4258,0,0,1,3.0967-1.6934c2.1069,0,3.6914,1.7832,3.6914,4.43,0,3.1328-1.9087,4.6816-3.9614,4.6816a3.0552,3.0552,0,0,1-2.6826-1.3681h-.0362v4.7353H342.5Zm1.5664,2.3232a3.6081,3.6081,0,0,0,.0718.6485,2.446,2.446,0,0,0,2.3769,1.8545c1.6744,0,2.647-1.3692,2.647-3.3672,0-1.7471-.9184-3.2412-2.5928-3.2412a2.5287,2.5287,0,0,0-2.395,1.9629,2.5809,2.5809,0,0,0-.1079.6484Z" transform="translate(-20 -22)"/>
        <path class="cls-5" d="M353.6235,283.7139a2.7921,2.7921,0,0,0,2.9888,3.0254,5.7319,5.7319,0,0,0,2.4126-.45l.27,1.1338a7.06,7.06,0,0,1-2.8984.54,4.0464,4.0464,0,0,1-4.2857-4.3926c0-2.6289,1.5484-4.7,4.0874-4.7,2.8448,0,3.6011,2.5029,3.6011,4.1055a5.95,5.95,0,0,1-.0542.7383Zm4.6451-1.1338a2.256,2.256,0,0,0-2.1963-2.5752,2.6259,2.6259,0,0,0-2.4307,2.5752Z" transform="translate(-20 -22)"/>
        <path class="cls-5" d="M363.668,276.5654v2.503h2.2685v1.207H363.668v4.6992c0,1.08.3056,1.6924,1.188,1.6924a3.4914,3.4914,0,0,0,.9184-.1084l.0723,1.1885a3.885,3.885,0,0,1-1.4048.2158,2.1937,2.1937,0,0,1-1.71-.666,3.2273,3.2273,0,0,1-.6123-2.2686v-4.7529h-1.35v-1.207h1.35v-2.0879Z" transform="translate(-20 -22)"/>
        <path class="cls-5" d="M368.4912,283.7139a2.7922,2.7922,0,0,0,2.9888,3.0254,5.7323,5.7323,0,0,0,2.4126-.45l.27,1.1338a7.0608,7.0608,0,0,1-2.8989.54,4.0463,4.0463,0,0,1-4.2852-4.3926c0-2.6289,1.5488-4.7,4.0874-4.7,2.8447,0,3.6011,2.5029,3.6011,4.1055a5.95,5.95,0,0,1-.0542.7383Zm4.6455-1.1338a2.2566,2.2566,0,0,0-2.1968-2.5752,2.6259,2.6259,0,0,0-2.4306,2.5752Z" transform="translate(-20 -22)"/>
        <path class="cls-5" d="M377.5093,283.7139a2.792,2.792,0,0,0,2.9887,3.0254,5.7319,5.7319,0,0,0,2.4126-.45l.27,1.1338a7.06,7.06,0,0,1-2.8985.54,4.0463,4.0463,0,0,1-4.2856-4.3926c0-2.6289,1.5483-4.7,4.0874-4.7,2.8447,0,3.6011,2.5029,3.6011,4.1055a5.97,5.97,0,0,1-.0542.7383Zm4.645-1.1338a2.2559,2.2559,0,0,0-2.1963-2.5752,2.626,2.626,0,0,0-2.4307,2.5752Z" transform="translate(-20 -22)"/>
        <path class="cls-5" d="M385.6445,281.7871c0-1.0264-.018-1.9082-.0722-2.7187h1.3867l.0537,1.7109h.0723a2.6145,2.6145,0,0,1,2.4126-1.9092,1.7093,1.7093,0,0,1,.45.0547v1.4941a2.3785,2.3785,0,0,0-.54-.0537,2.2216,2.2216,0,0,0-2.1245,2.0342,4.4529,4.4529,0,0,0-.0723.7383v4.6455h-1.5664Z" transform="translate(-20 -22)"/>
      </g>
    </g>
    <g id="Mocha">
      <g>
        <g class="cls-6">
          <rect x="73" y="93" width="99" height="39" rx="4"/>
          <path d="M188,116a3.0034,3.0034,0,0,1,3,3v31a3.0034,3.0034,0,0,1-3,3H97a3.0034,3.0034,0,0,1-3-3V119a3.0034,3.0034,0,0,1,3-3h91m0-2H97a5,5,0,0,0-5,5v31a5,5,0,0,0,5,5h91a5,5,0,0,0,5-5V119a5,5,0,0,0-5-5Z" transform="translate(-20 -22)"/>
        </g>
        <g>
          <rect class="cls-7" x="71" y="91" width="99" height="39" rx="4"/>
          <path class="cls-5" d="M186,114a3.0034,3.0034,0,0,1,3,3v31a3.0034,3.0034,0,0,1-3,3H95a3.0034,3.0034,0,0,1-3-3V117a3.0034,3.0034,0,0,1,3-3h91m0-2H95a5,5,0,0,0-5,5v31a5,5,0,0,0,5,5h91a5,5,0,0,0,5-5V117a5,5,0,0,0-5-5Z" transform="translate(-20 -22)"/>
        </g>
      </g>
      <g>
        <path class="cls-5" d="M116.0024,131.4277c0-.9-.018-1.6386-.0722-2.3593h1.3867l.0718,1.4043h.0542A3.0034,3.0034,0,0,1,120.18,128.87a2.5768,2.5768,0,0,1,2.4668,1.7471h.0361a3.59,3.59,0,0,1,.9722-1.1348,2.9765,2.9765,0,0,1,1.9263-.6123c1.1523,0,2.8632.7569,2.8632,3.7813v5.1318h-1.5488V132.85c0-1.6748-.6123-2.6826-1.8906-2.6826a2.0514,2.0514,0,0,0-1.8726,1.44,2.6132,2.6132,0,0,0-.126.792v5.3838H121.458v-5.2217c0-1.3867-.6123-2.3945-1.8184-2.3945a2.1651,2.1651,0,0,0-1.9628,1.584,2.1912,2.1912,0,0,0-.126.7744v5.2578h-1.5484Z" transform="translate(-20 -22)"/>
        <path class="cls-5" d="M138.9009,133.3535a4.2591,4.2591,0,0,1-4.3394,4.6279,4.1433,4.1433,0,0,1-4.1772-4.4834c0-2.9169,1.9087-4.6279,4.3213-4.6279C137.2085,128.87,138.9009,130.69,138.9009,133.3535Zm-6.9141.0908c0,1.9082,1.0982,3.3487,2.647,3.3487,1.5122,0,2.6465-1.4229,2.6465-3.3848,0-1.4766-.7383-3.35-2.61-3.35S131.9868,131.7871,131.9868,133.4443Z" transform="translate(-20 -22)"/>
        <path class="cls-5" d="M147.1084,137.459a5.8416,5.8416,0,0,1-2.5029.5039,4.14,4.14,0,0,1-4.3394-4.4473,4.4276,4.4276,0,0,1,4.6817-4.6269,5.3021,5.3021,0,0,1,2.1967.45l-.36,1.2246a3.6641,3.6641,0,0,0-1.8364-.4151,3.2858,3.2858,0,0,0-.0542,6.5547,4.4981,4.4981,0,0,0,1.9448-.4326Z" transform="translate(-20 -22)"/>
        <path class="cls-5" d="M148.96,124.999h1.5845v5.4385h.0362a2.9421,2.9421,0,0,1,1.1342-1.1172,3.268,3.268,0,0,1,1.6206-.45c1.17,0,3.0425.7207,3.0425,3.7276v5.1855h-1.5845v-5.0059c0-1.4043-.5219-2.5927-2.0166-2.5927a2.2768,2.2768,0,0,0-2.1245,1.5849,1.9216,1.9216,0,0,0-.1079.7559v5.2578H148.96Z" transform="translate(-20 -22)"/>
        <path class="cls-5" d="M163.7754,137.7832l-.126-1.0986h-.0537a3.2462,3.2462,0,0,1-2.665,1.2968,2.4824,2.4824,0,0,1-2.6646-2.5029c0-2.1064,1.8726-3.2588,5.2393-3.2412v-.18a1.7961,1.7961,0,0,0-1.9805-2.0166,4.338,4.338,0,0,0-2.2686.6485l-.36-1.045a5.4126,5.4126,0,0,1,2.8628-.7744c2.665,0,3.313,1.8194,3.313,3.5654v3.2588a12.2787,12.2787,0,0,0,.144,2.0889Zm-.2339-4.4473c-1.7285-.0361-3.6909.27-3.6909,1.9629a1.4014,1.4014,0,0,0,1.4941,1.5117,2.1687,2.1687,0,0,0,2.107-1.458,1.6614,1.6614,0,0,0,.09-.5039Z" transform="translate(-20 -22)"/>
      </g>
    </g>
    <g id="Core">
      <g>
        <g class="cls-6">
          <rect x="282" y="123" width="99" height="38" rx="4"/>
          <path d="M397,146a3.0034,3.0034,0,0,1,3,3v30a3.0034,3.0034,0,0,1-3,3H306a3.0034,3.0034,0,0,1-3-3V149a3.0034,3.0034,0,0,1,3-3h91m0-2H306a5,5,0,0,0-5,5v30a5,5,0,0,0,5,5h91a5,5,0,0,0,5-5V149a5,5,0,0,0-5-5Z" transform="translate(-20 -22)"/>
        </g>
        <g>
          <rect class="cls-7" x="280" y="121" width="99" height="38" rx="4"/>
          <path class="cls-5" d="M395,144a3.0034,3.0034,0,0,1,3,3v30a3.0034,3.0034,0,0,1-3,3H304a3.0034,3.0034,0,0,1-3-3V147a3.0034,3.0034,0,0,1,3-3h91m0-2H304a5,5,0,0,0-5,5v30a5,5,0,0,0,5,5h91a5,5,0,0,0,5-5V147a5,5,0,0,0-5-5Z" transform="translate(-20 -22)"/>
        </g>
      </g>
      <g id="Core-2" data-name="Core">
        <path class="cls-5" d="M340.7456,162.959a5.8416,5.8416,0,0,1-2.5029.5039,4.14,4.14,0,0,1-4.3394-4.4473,4.4279,4.4279,0,0,1,4.6817-4.6269,5.2956,5.2956,0,0,1,2.1962.45l-.36,1.2246a3.6638,3.6638,0,0,0-1.8364-.4151,3.2858,3.2858,0,0,0-.0542,6.5547,4.4978,4.4978,0,0,0,1.9448-.4326Z" transform="translate(-20 -22)"/>
        <path class="cls-5" d="M350.376,158.8535a4.2591,4.2591,0,0,1-4.3394,4.6279,4.1433,4.1433,0,0,1-4.1772-4.4834c0-2.9169,1.9087-4.6279,4.3213-4.6279C348.6836,154.37,350.376,156.19,350.376,158.8535Zm-6.9141.0908c0,1.9082,1.0986,3.3487,2.647,3.3487,1.5122,0,2.6465-1.4229,2.6465-3.3848,0-1.4766-.7378-3.35-2.6109-3.35S343.4619,157.2871,343.4619,158.9443Z" transform="translate(-20 -22)"/>
        <path class="cls-5" d="M352.3716,157.2871c0-1.0264-.0181-1.9082-.0723-2.7187h1.3867l.0537,1.7109h.0723a2.6142,2.6142,0,0,1,2.4126-1.9092,1.7082,1.7082,0,0,1,.45.0547v1.4941a2.3769,2.3769,0,0,0-.54-.0537,2.2228,2.2228,0,0,0-2.125,2.0342,4.4993,4.4993,0,0,0-.0718.7383v4.6455h-1.5664Z" transform="translate(-20 -22)"/>
        <path class="cls-5" d="M358.96,159.2139a2.7922,2.7922,0,0,0,2.9887,3.0254,5.7319,5.7319,0,0,0,2.4126-.45l.27,1.1338a7.0608,7.0608,0,0,1-2.8989.54,4.0462,4.0462,0,0,1-4.2851-4.3926c0-2.6289,1.5488-4.7,4.0874-4.7,2.8447,0,3.601,2.5029,3.601,4.1055a5.95,5.95,0,0,1-.0542.7383Zm4.6455-1.1338a2.2567,2.2567,0,0,0-2.1968-2.5752,2.626,2.626,0,0,0-2.4307,2.5752Z" transform="translate(-20 -22)"/>
      </g>
      <g id="Core-3" data-name="Core">
        <path class="cls-8" d="M339.855,166.7344a5.2739,5.2739,0,0,0-1.0073,3.27,5.3881,5.3881,0,0,0,1.0073,3.2461h-.5518a5.1722,5.1722,0,0,1-1.0473-3.2461,5.28,5.28,0,0,1,1.0473-3.27Z" transform="translate(-20 -22)"/>
        <path class="cls-8" d="M340.624,166.9658a7.3053,7.3053,0,0,1,1.335-.1113,2.204,2.204,0,0,1,1.5591.4394,1.3425,1.3425,0,0,1,.4238,1.0235,1.4141,1.4141,0,0,1-1.0151,1.375v.0244a1.3425,1.3425,0,0,1,.7915,1.0869,8.5769,8.5769,0,0,0,.4155,1.48h-.72a6.9872,6.9872,0,0,1-.3594-1.2871c-.16-.7441-.4483-1.0234-1.08-1.0479h-.6558v2.335h-.6953Zm.6953,2.4551h.7119c.7432,0,1.2149-.4082,1.2149-1.0234,0-.6954-.5034-1-1.2393-1.0079a2.8429,2.8429,0,0,0-.6875.0645Z" transform="translate(-20 -22)"/>
        <path class="cls-8" d="M345.3276,170.4766a1.24,1.24,0,0,0,1.3272,1.3427,2.5363,2.5363,0,0,0,1.0713-.2l.12.5039a3.1277,3.1277,0,0,1-1.2876.24,1.7971,1.7971,0,0,1-1.9028-1.9512,1.8791,1.8791,0,0,1,1.8149-2.0869,1.6393,1.6393,0,0,1,1.5991,1.8232,2.6158,2.6158,0,0,1-.0239.3282Zm2.063-.5039a1.002,1.002,0,0,0-.9756-1.1436,1.166,1.166,0,0,0-1.08,1.1436Z" transform="translate(-20 -22)"/>
        <path class="cls-8" d="M352.2856,166.6064v4.6778c0,.3437.0083.7353.0323.999h-.6319l-.0317-.6719h-.0161a1.4321,1.4321,0,0,1-1.3194.76,1.7639,1.7639,0,0,1-1.6552-1.9668,1.8516,1.8516,0,0,1,1.7353-2.0791,1.2943,1.2943,0,0,1,1.167.5918h.0161v-2.3106Zm-.7036,3.3819a1.2466,1.2466,0,0,0-.0317-.2959,1.0353,1.0353,0,0,0-1.0156-.8154c-.7276,0-1.1592.64-1.1592,1.4951,0,.7841.3838,1.4316,1.1431,1.4316a1.0588,1.0588,0,0,0,1.0317-.84,1.2224,1.2224,0,0,0,.0317-.3037Z" transform="translate(-20 -22)"/>
        <path class="cls-8" d="M356.6938,171.2275c0,.4.0083.752.0323,1.0557h-.6236l-.04-.6318h-.0161a1.4572,1.4572,0,0,1-1.2793.72c-.6079,0-1.3355-.3359-1.3355-1.6953v-2.2627h.7037v2.1435c0,.7354.2241,1.2305.8637,1.2305a.99.99,0,0,0,.9912-.999v-2.375h.7036Z" transform="translate(-20 -22)"/>
        <path class="cls-8" d="M358.1914,168.4131l.5518.832c.1435.2158.2636.4151.3916.6319h.0239c.1279-.2325.2559-.4327.3838-.64l.5439-.8242h.7593l-1.3193,1.8711,1.3593,1.999h-.7993l-.5678-.8711c-.1519-.2246-.28-.44-.4161-.6719h-.0156c-.1279.2315-.2641.44-.4077.6719l-.56.8711h-.7753l1.375-1.9746-1.3111-1.8955Z" transform="translate(-20 -22)"/>
        <path class="cls-8" d="M361.1436,173.251a5.412,5.412,0,0,0,1.0078-3.27,5.2949,5.2949,0,0,0-1.0078-3.2461h.5439a5.09,5.09,0,0,1,1.0474,3.2539,5.1914,5.1914,0,0,1-1.0474,3.2627Z" transform="translate(-20 -22)"/>
      </g>
    </g>
    <g id="UI">
      <g>
        <g class="cls-6">
          <rect x="283" y="3" width="99" height="38" rx="4"/>
          <path d="M398,26a3.0034,3.0034,0,0,1,3,3V59a3.0034,3.0034,0,0,1-3,3H307a3.0034,3.0034,0,0,1-3-3V29a3.0034,3.0034,0,0,1,3-3h91m0-2H307a5,5,0,0,0-5,5V59a5,5,0,0,0,5,5h91a5,5,0,0,0,5-5V29a5,5,0,0,0-5-5Z" transform="translate(-20 -22)"/>
        </g>
        <g>
          <rect class="cls-7" x="281" y="1" width="99" height="38" rx="4"/>
          <path class="cls-5" d="M396,24a3.0034,3.0034,0,0,1,3,3V57a3.0034,3.0034,0,0,1-3,3H305a3.0034,3.0034,0,0,1-3-3V27a3.0034,3.0034,0,0,1,3-3h91m0-2H305a5,5,0,0,0-5,5V57a5,5,0,0,0,5,5h91a5,5,0,0,0,5-5V27a5,5,0,0,0-5-5Z" transform="translate(-20 -22)"/>
        </g>
      </g>
      <g id="UI-2" data-name="UI">
        <path class="cls-5" d="M352.0415,44.9062c0,.9.0181,1.6924.0723,2.377H350.709l-.09-1.4228h-.0361a3.2788,3.2788,0,0,1-2.8809,1.621c-1.3681,0-3.0068-.7568-3.0068-3.8173V38.5684H346.28v4.8261c0,1.6563.5044,2.7725,1.9448,2.7725a2.2908,2.2908,0,0,0,2.0884-1.44,2.3143,2.3143,0,0,0,.144-.8106V38.5684h1.5845Z" transform="translate(-20 -22)"/>
        <path class="cls-5" d="M356.4321,36.12a.9815.9815,0,0,1-1.9629,0,.9651.9651,0,0,1,.99-.99A.94.94,0,0,1,356.4321,36.12Zm-1.7646,11.1631V38.5684h1.5845v8.7148Z" transform="translate(-20 -22)"/>
      </g>
    </g>
    <g id="webpack">
      <g>
        <g class="cls-6">
          <rect x="73" y="3" width="99" height="38" rx="4"/>
          <path d="M188,26a3.0034,3.0034,0,0,1,3,3V59a3.0034,3.0034,0,0,1-3,3H97a3.0034,3.0034,0,0,1-3-3V29a3.0034,3.0034,0,0,1,3-3h91m0-2H97a5,5,0,0,0-5,5V59a5,5,0,0,0,5,5h91a5,5,0,0,0,5-5V29a5,5,0,0,0-5-5Z" transform="translate(-20 -22)"/>
        </g>
        <g>
          <rect class="cls-7" x="71" y="1" width="99" height="38" rx="4"/>
          <path class="cls-5" d="M186,24a3.0034,3.0034,0,0,1,3,3V57a3.0034,3.0034,0,0,1-3,3H95a3.0034,3.0034,0,0,1-3-3V27a3.0034,3.0034,0,0,1,3-3h91m0-2H95a5,5,0,0,0-5,5V57a5,5,0,0,0,5,5h91a5,5,0,0,0,5-5V27a5,5,0,0,0-5-5Z" transform="translate(-20 -22)"/>
        </g>
      </g>
      <g id="webpack-2" data-name="webpack">
        <path class="cls-5" d="M108.5693,38.5684l1.1524,4.43c.2519.9727.4858,1.8721.6479,2.7725h.0542c.1978-.8818.4859-1.8184.774-2.7549l1.4223-4.4472h1.3325l1.3506,4.3574c.3238,1.0449.5762,1.9629.7739,2.8447h.0542a26.2352,26.2352,0,0,1,.6661-2.8262l1.2426-4.3759h1.5664l-2.809,8.7148h-1.44l-1.332-4.1592a29.1317,29.1317,0,0,1-.7744-2.8633h-.0361a25.663,25.663,0,0,1-.792,2.8809l-1.4048,4.1416h-1.44l-2.6284-8.7148Z" transform="translate(-20 -22)"/>
        <path class="cls-5" d="M121.8892,43.2139a2.792,2.792,0,0,0,2.9887,3.0254,5.7319,5.7319,0,0,0,2.4126-.45l.27,1.1338a7.06,7.06,0,0,1-2.8984.54,4.0463,4.0463,0,0,1-4.2856-4.3926c0-2.6289,1.5483-4.7,4.0874-4.7,2.8447,0,3.601,2.5029,3.601,4.1055a5.95,5.95,0,0,1-.0542.7383Zm4.645-1.1338a2.256,2.256,0,0,0-2.1963-2.5752,2.626,2.626,0,0,0-2.4307,2.5752Z" transform="translate(-20 -22)"/>
        <path class="cls-5" d="M129.9526,47.2832c.0362-.5937.0723-1.4766.0723-2.251V34.499h1.5664v5.4737h.0361a3.2469,3.2469,0,0,1,2.9707-1.6026c2.1607,0,3.691,1.8008,3.6734,4.4483,0,3.1142-1.9629,4.663-3.9072,4.663a3.1047,3.1047,0,0,1-2.917-1.6386h-.0542l-.0718,1.44Zm1.6387-3.4932a2.9851,2.9851,0,0,0,.0718.5762,2.4448,2.4448,0,0,0,2.3769,1.8545c1.6563,0,2.647-1.3506,2.647-3.3486,0-1.7471-.9-3.2412-2.5928-3.2412a2.5264,2.5264,0,0,0-2.413,1.9443,3.1549,3.1549,0,0,0-.09.6484Z" transform="translate(-20 -22)"/>
        <path class="cls-5" d="M140.2666,41.4131c0-1.1162-.0361-2.0166-.0723-2.8447h1.4229l.0718,1.4951h.0361a3.4257,3.4257,0,0,1,3.0967-1.6934c2.1069,0,3.6914,1.7832,3.6914,4.43,0,3.1328-1.9087,4.6816-3.9614,4.6816a3.0555,3.0555,0,0,1-2.6827-1.3681h-.0361v4.7353h-1.5664Zm1.5664,2.3232a3.553,3.553,0,0,0,.0723.6485,2.4454,2.4454,0,0,0,2.3764,1.8545c1.6744,0,2.647-1.3692,2.647-3.3672,0-1.7471-.9184-3.2412-2.5928-3.2412a2.5287,2.5287,0,0,0-2.395,1.9629,2.5809,2.5809,0,0,0-.1079.6484Z" transform="translate(-20 -22)"/>
        <path class="cls-5" d="M155.3335,47.2832l-.126-1.0986h-.0537a3.2456,3.2456,0,0,1-2.665,1.2968,2.4824,2.4824,0,0,1-2.6646-2.5029c0-2.1064,1.8726-3.2588,5.2393-3.2412v-.18a1.7961,1.7961,0,0,0-1.9805-2.0166,4.3387,4.3387,0,0,0-2.2685.6485l-.36-1.045a5.4129,5.4129,0,0,1,2.8628-.7744c2.665,0,3.313,1.8194,3.313,3.5654v3.2588a12.2787,12.2787,0,0,0,.144,2.0889ZM155.1,42.8359c-1.7285-.0361-3.6909.27-3.6909,1.9629a1.4014,1.4014,0,0,0,1.4941,1.5117,2.1687,2.1687,0,0,0,2.107-1.458,1.6614,1.6614,0,0,0,.09-.5039Z" transform="translate(-20 -22)"/>
        <path class="cls-5" d="M165.396,46.959a5.8416,5.8416,0,0,1-2.5029.5039,4.14,4.14,0,0,1-4.3394-4.4473,4.4279,4.4279,0,0,1,4.6817-4.6269,5.2956,5.2956,0,0,1,2.1962.45l-.36,1.2246a3.6641,3.6641,0,0,0-1.8364-.4151,3.0161,3.0161,0,0,0-3.0792,3.2959,2.9878,2.9878,0,0,0,3.025,3.2588,4.4981,4.4981,0,0,0,1.9448-.4326Z" transform="translate(-20 -22)"/>
        <path class="cls-5" d="M168.8145,42.5654h.0361c.2158-.3056.522-.6836.7739-.99l2.5571-3.0068H174.09l-3.3667,3.583,3.835,5.1318h-1.9263l-3.0073-4.1777-.81.9v3.2773H167.248V34.499h1.5665Z" transform="translate(-20 -22)"/>
      </g>
    </g>
  </g>
</svg>
