<svg xmlns="http://www.w3.org/2000/svg" viewBox="0 0 289.5174 146.3599">
  <defs>
    <style>
      .cls-1 {
        fill: #12384a;
        stroke: #12384a;
      }

      .cls-1, .cls-2 {
        stroke-miterlimit: 10;
        stroke-width: 5px;
      }

      .cls-2 {
        fill: none;
        stroke: #30d6d6;
      }

      .cls-3 {
        fill: #30d6d6;
      }
    </style>
  </defs>
  <title>Asset 1</title>
  <g id="Layer_2" data-name="Layer 2">
    <g id="Logo_2" data-name="Logo 2">
      <g>
        <rect class="cls-1" x="3.0643" y="2.5" width="100" height="100"/>
        <polyline class="cls-2" points="17.901 2.5 2.5 2.5 2.5 102.5 17.901 102.5"/>
        <polyline class="cls-2" points="87.704 2.5 103.105 2.5 103.105 102.5 87.704 102.5"/>
      </g>
      <path class="cls-3" d="M73.9686,21.4209h6.5127L55.9178,91.8823H50.1737L25.5585,21.4209h7.1279l20.5127,61.23Z"/>
      <g>
        <path class="cls-3" d="M127.8817,54.062h26.667v6h-26.667V87.19h32.8721v5.6924H121.3172V22.4209h38.2569l-.8721,5.8462h-30.82Z"/>
        <path class="cls-3" d="M220.1356,84.2158a19.347,19.347,0,0,1-8.5371,7.128,32.0907,32.0907,0,0,1-13.41,2.5644,38.7228,38.7228,0,0,1-13.206-2.2056,29.1726,29.1726,0,0,1-10.5381-6.4614l4.3076-4.9228a26.57,26.57,0,0,0,8.59,5.6411,29.6191,29.6191,0,0,0,11.2041,1.9487,23.5887,23.5887,0,0,0,8.7441-1.59,14.9828,14.9828,0,0,0,6.5137-4.8208,12.64,12.64,0,0,0,2.4863-7.9488,13.0655,13.0655,0,0,0-1.41-6.3589,12.2269,12.2269,0,0,0-4.9238-4.5385A49.8229,49.8229,0,0,0,200.034,58.78a71.9468,71.9468,0,0,1-12.205-4.5386,21.1367,21.1367,0,0,1-7.667-6.1792,14.91,14.91,0,0,1-2.795-9.18,15.5071,15.5071,0,0,1,2.6924-8.8974A18.1333,18.1333,0,0,1,187.7,23.7285a26.8539,26.8539,0,0,1,11.3593-2.2822A34.1643,34.1643,0,0,1,211.034,23.37a32.3728,32.3728,0,0,1,9.7168,5.82l-4.41,4.8209a25.29,25.29,0,0,0-8.1524-4.9488,26.3445,26.3445,0,0,0-9.1289-1.6157,21.5768,21.5768,0,0,0-7.59,1.2822,12.3936,12.3936,0,0,0-5.4873,3.8462,9.7811,9.7811,0,0,0-2.0508,6.3076,9.2137,9.2137,0,0,0,1.7695,5.6924,15.6075,15.6075,0,0,0,5.7686,4.3076,73.6343,73.6343,0,0,0,11.23,4.0513,57.0466,57.0466,0,0,1,10.4882,3.9746,18.9428,18.9428,0,0,1,7.1016,6.3076,18.2966,18.2966,0,0,1,2.77,10.4868A19.0615,19.0615,0,0,1,220.1356,84.2158Z"/>
        <path class="cls-3" d="M264.3915,92.8823h-6.5127v-64.41H235.161V22.4209h52.0518l-.7188,6.0513H264.3915Z"/>
      </g>
      <g>
        <path class="cls-3" d="M5.4022,125.4136v15.2851H3.7743V125.4136H.5663v-1.4155H8.6337v1.4155Z"/>
        <path class="cls-3" d="M16.2049,140.6987V133.15a10.4224,10.4224,0,0,0-.0586-1.0967,3.6678,3.6678,0,0,0-.248-1.0141,1.8611,1.8611,0,0,0-.5537-.7549,1.4748,1.4748,0,0,0-.9551-.2949,1.7982,1.7982,0,0,0-1.05.3183,2.75,2.75,0,0,0-.79.8726,4.6294,4.6294,0,0,0-.5078,1.2739,6.2407,6.2407,0,0,0-.1768,1.498v6.7461H10.3085V122.8662h1.5566v8.35h.0469a3.9943,3.9943,0,0,1,1.0576-1.8638,2.5908,2.5908,0,0,1,1.88-.7309,2.4308,2.4308,0,0,1,2.3955,1.4507,4.905,4.905,0,0,1,.4111,1.4624,12.5689,12.5689,0,0,1,.1065,1.6157v7.5483Z"/>
        <path class="cls-3" d="M22.1727,135.1792a8.9441,8.9441,0,0,0,.166,1.7808,5.2446,5.2446,0,0,0,.4864,1.4155,2.6387,2.6387,0,0,0,.8056.9434,1.9471,1.9471,0,0,0,1.15.3418,1.8633,1.8633,0,0,0,1.374-.5186,3.5679,3.5679,0,0,0,.8067-1.25l1.18.6841a4.5263,4.5263,0,0,1-1.2627,1.7812,3.16,3.16,0,0,1-2.1348.7193,3.4419,3.4419,0,0,1-3.043-1.6514,8.2225,8.2225,0,0,1-1.0849-4.5522,10.6129,10.6129,0,0,1,.2822-2.524,6.4749,6.4749,0,0,1,.8115-1.9814,3.9673,3.9673,0,0,1,1.293-1.2856,3.5177,3.5177,0,0,1,3.458-.0118,3.4348,3.4348,0,0,1,1.1641,1.2266,5.8586,5.8586,0,0,1,.6464,1.8164,11.749,11.749,0,0,1,.2,2.2173v.8491Zm4.7412-1.2974a6.3059,6.3059,0,0,0-.5449-2.8422,1.7975,1.7975,0,0,0-1.707-1.0733,1.6627,1.6627,0,0,0-1.1494.4126,3.2987,3.2987,0,0,0-.7588,1.0142,5.03,5.03,0,0,0-.4268,1.2856,6.5261,6.5261,0,0,0-.13,1.2031Z"/>
        <path class="cls-3" d="M43.7323,134.8018a11.8836,11.8836,0,0,1-.2481,2.5122,7.0633,7.0633,0,0,1-.72,1.9814,3.8444,3.8444,0,0,1-1.1553,1.3091,2.7172,2.7172,0,0,1-1.581.4717,2.4481,2.4481,0,0,1-1.8633-.6958,3.9935,3.9935,0,0,1-.9434-1.7808h-.0468v2.0991h-1.51V122.8662h1.5566v8.1377h.0235a3.4914,3.4914,0,0,1,1.0029-1.7217,2.5338,2.5338,0,0,1,1.78-.6606,2.8229,2.8229,0,0,1,1.5928.46,3.746,3.746,0,0,1,1.1679,1.2739,6.5364,6.5364,0,0,1,.7071,1.9458A12.2862,12.2862,0,0,1,43.7323,134.8018Zm-1.6045.0468a12.2228,12.2228,0,0,0-.1416-1.9106,5.8651,5.8651,0,0,0-.4483-1.5566,2.8861,2.8861,0,0,0-.7666-1.0381,1.7665,1.7665,0,0,0-2.1816,0,2.9313,2.9313,0,0,0-.79,1.0381,5.81,5.81,0,0,0-.4717,1.5566,12.0593,12.0593,0,0,0,0,3.8335,5.6345,5.6345,0,0,0,.4717,1.5332,3.0153,3.0153,0,0,0,.7783,1.0259,1.782,1.782,0,0,0,2.1933,0,2.8975,2.8975,0,0,0,.7666-1.0259,5.6867,5.6867,0,0,0,.4483-1.5332A12.1548,12.1548,0,0,0,42.1278,134.8486Z"/>
        <path class="cls-3" d="M49.3221,129.3291a2.1468,2.1468,0,0,1,1.5576-.6841,1.2488,1.2488,0,0,1,.2823.024l-.0469,1.604c-.0625-.0157-.1221-.0274-.1768-.0357a1.464,1.464,0,0,0-.2-.0117,1.5532,1.5532,0,0,0-1.05.4009,3.1854,3.1854,0,0,0-.7666,1.0381,5.7615,5.7615,0,0,0-.46,1.4506,8.6779,8.6779,0,0,0-.1533,1.6158v5.9677H46.7518v-8.7514c0-.251-.0049-.5225-.0127-.8135s-.0156-.5737-.0234-.8491-.0156-.5269-.0235-.7549-.02-.4048-.0351-.5308h1.51q.0468.4484.07,1.1206t.0234,1.4268h.0479A4.4181,4.4181,0,0,1,49.3221,129.3291Z"/>
        <path class="cls-3" d="M60.4325,134.8726a10.4257,10.4257,0,0,1-.2832,2.5239,6.7158,6.7158,0,0,1-.8018,1.9575,3.7581,3.7581,0,0,1-1.2861,1.2739,3.3285,3.3285,0,0,1-1.71.4483,3.2656,3.2656,0,0,1-1.6982-.4483,3.8893,3.8893,0,0,1-1.2862-1.2739,6.5155,6.5155,0,0,1-.8134-1.9575,10.4257,10.4257,0,0,1-.2832-2.5239,11.168,11.168,0,0,1,.2715-2.5479,6.4945,6.4945,0,0,1,.79-1.9814A3.7493,3.7493,0,0,1,54.618,129.07a3.3669,3.3669,0,0,1,1.7334-.4482,3.3246,3.3246,0,0,1,1.71.4482,3.7666,3.7666,0,0,1,1.2861,1.2735,6.707,6.707,0,0,1,.8018,1.9814A10.7253,10.7253,0,0,1,60.4325,134.8726Zm-1.6045-.0357a11.399,11.399,0,0,0-.1533-1.9292,5.9716,5.9716,0,0,0-.46-1.5415,2.8973,2.8973,0,0,0-.7666-1.0234,1.6762,1.6762,0,0,0-1.0967-.3765,1.7231,1.7231,0,0,0-1.1084.3765,2.7142,2.7142,0,0,0-.7666,1.0234,6.2227,6.2227,0,0,0-.4482,1.5415,11.3887,11.3887,0,0,0-.1533,1.9292,10.9791,10.9791,0,0,0,.1533,1.9063,6.45,6.45,0,0,0,.4482,1.53,2.5966,2.5966,0,0,0,.7666,1.0234,1.8683,1.8683,0,0,0,2.2168,0,2.6051,2.6051,0,0,0,.7666-1.0234,6.5449,6.5449,0,0,0,.4483-1.53A10.989,10.989,0,0,0,58.828,134.8369Z"/>
        <path class="cls-3" d="M72.1083,140.6987h-1.84l-1.9814-9.5058h-.0235l-2.0048,9.5058h-1.77l-2.3818-11.7h1.58l1.7929,9.9073h.0235l2.0517-9.9073h1.51l2.0762,9.9073h.0234l1.793-9.9073h1.58Z"/>
        <path class="cls-3" d="M81.3778,131.0274a2.5239,2.5239,0,0,0-.79-.8375,2.08,2.08,0,0,0-1.168-.3183,1.5694,1.5694,0,0,0-1.2383.5547,2.1273,2.1273,0,0,0-.4834,1.4507,1.7565,1.7565,0,0,0,.4717,1.3676,4.4769,4.4769,0,0,0,1.415.7788,7.5538,7.5538,0,0,1,.9444.46,3.4893,3.4893,0,0,1,.8369.6719,3.2277,3.2277,0,0,1,.8369,2.2881,3.6724,3.6724,0,0,1-.9317,2.6772,3.2252,3.2252,0,0,1-2.4169.9556,3.6656,3.6656,0,0,1-1.8165-.46,4.0409,4.0409,0,0,1-1.3681-1.2383l.9433-1.0146a3.6518,3.6518,0,0,0,.9551,1.0029,2.22,2.22,0,0,0,1.31.3892,1.6579,1.6579,0,0,0,1.332-.6016,2.3834,2.3834,0,0,0,.5078-1.5923,2.1911,2.1911,0,0,0-.1884-.9555,1.98,1.98,0,0,0-.4961-.6485,3.3216,3.3216,0,0,0-.6953-.4482q-.39-.1882-.8145-.354a5.662,5.662,0,0,1-.86-.4009,2.8617,2.8617,0,0,1-.7431-.6133,2.9309,2.9309,0,0,1-.5313-.9082,3.642,3.642,0,0,1-.2-1.2856,3.5612,3.5612,0,0,1,.2481-1.3443,3.0261,3.0261,0,0,1,.6953-1.05,3.3521,3.3521,0,0,1,1.0264-.6841,3.1684,3.1684,0,0,1,1.2617-.2475,3.5428,3.5428,0,0,1,1.71.3892,3.4587,3.4587,0,0,1,1.168,1.0024Z"/>
        <path class="cls-3" d="M85.7889,135.1792a8.9441,8.9441,0,0,0,.166,1.7808,5.2446,5.2446,0,0,0,.4864,1.4155,2.64,2.64,0,0,0,.8056.9434,1.9473,1.9473,0,0,0,1.15.3418,1.8633,1.8633,0,0,0,1.374-.5186,3.5665,3.5665,0,0,0,.8067-1.25l1.18.6841a4.5263,4.5263,0,0,1-1.2627,1.7812,3.16,3.16,0,0,1-2.1348.7193,3.4419,3.4419,0,0,1-3.043-1.6514,8.2225,8.2225,0,0,1-1.0849-4.5522,10.6129,10.6129,0,0,1,.2822-2.524,6.4749,6.4749,0,0,1,.8115-1.9814,3.9673,3.9673,0,0,1,1.293-1.2856,3.5178,3.5178,0,0,1,3.458-.0118,3.4348,3.4348,0,0,1,1.1641,1.2266,5.8612,5.8612,0,0,1,.6465,1.8164,11.7572,11.7572,0,0,1,.2,2.2173v.8491Zm4.7412-1.2974a6.3059,6.3059,0,0,0-.5449-2.8422,1.7975,1.7975,0,0,0-1.707-1.0733,1.6627,1.6627,0,0,0-1.1494.4126,3.2987,3.2987,0,0,0-.7588,1.0142,5.03,5.03,0,0,0-.4268,1.2856,6.5261,6.5261,0,0,0-.13,1.2031Z"/>
        <path class="cls-3" d="M97.5829,129.3291a2.1466,2.1466,0,0,1,1.5576-.6841,1.2478,1.2478,0,0,1,.2822.024l-.0469,1.604c-.0625-.0157-.122-.0274-.1767-.0357a1.466,1.466,0,0,0-.2-.0117,1.5528,1.5528,0,0,0-1.05.4009,3.184,3.184,0,0,0-.7666,1.0381,5.7615,5.7615,0,0,0-.46,1.4506,8.6863,8.6863,0,0,0-.1533,1.6158v5.9677H95.0126v-8.7514c0-.251-.0049-.5225-.0127-.8135s-.0157-.5737-.0235-.8491-.0156-.5269-.0234-.7549-.02-.4048-.0352-.5308h1.51q.0468.4484.07,1.1206t.0234,1.4268h.0479A4.4172,4.4172,0,0,1,97.5829,129.3291Z"/>
        <path class="cls-3" d="M100.1776,135.1553v-1.3208h3.5381v1.3208Z"/>
        <path class="cls-3" d="M110.4149,123.9273a2.1719,2.1719,0,0,0-.6836-.1177,1.293,1.293,0,0,0-.791.2358,1.693,1.693,0,0,0-.5068.6133,2.8507,2.8507,0,0,0-.26.8608,6.965,6.965,0,0,0-.07,1.0025v2.477h1.9814v1.274h-1.9814v10.4257h-1.5567V130.273h-1.581v-1.274h1.581v-2.477a5.2481,5.2481,0,0,1,.73-2.9131,2.5342,2.5342,0,0,1,2.2881-1.12,3.06,3.06,0,0,1,.9678.1411Zm3.42,1.4863a1.1,1.1,0,0,1-.3183.8139.9935.9935,0,0,1-.7188.3184.9689.9689,0,0,1-.7432-.3184,1.1486,1.1486,0,0,1-.2949-.8139,1.16,1.16,0,0,1,.2949-.8023.9533.9533,0,0,1,.7432-.33.965.965,0,0,1,.73.33A1.1389,1.1389,0,0,1,113.8348,125.4136Zm-1.84,15.2851v-11.7h1.5576v11.7Z"/>
        <path class="cls-3" d="M119.8729,129.3291a2.1468,2.1468,0,0,1,1.5576-.6841,1.2488,1.2488,0,0,1,.2823.024l-.0469,1.604c-.0625-.0157-.1221-.0274-.1768-.0357a1.465,1.465,0,0,0-.2-.0117,1.5532,1.5532,0,0,0-1.05.4009,3.1854,3.1854,0,0,0-.7666,1.0381,5.7575,5.7575,0,0,0-.46,1.4506,8.678,8.678,0,0,0-.1534,1.6158v5.9677h-1.5566v-8.7514c0-.251-.0049-.5225-.0127-.8135s-.0156-.5737-.0234-.8491-.0157-.5269-.0235-.7549-.0195-.4048-.0351-.5308h1.51q.047.4484.07,1.1206t.0235,1.4268h.0478A4.4189,4.4189,0,0,1,119.8729,129.3291Z"/>
        <path class="cls-3" d="M128.1288,131.0274a2.5232,2.5232,0,0,0-.79-.8375,2.0792,2.0792,0,0,0-1.1679-.3183,1.5691,1.5691,0,0,0-1.2383.5547,2.1273,2.1273,0,0,0-.4834,1.4507,1.7565,1.7565,0,0,0,.4717,1.3676,4.4769,4.4769,0,0,0,1.415.7788,7.5459,7.5459,0,0,1,.9443.46,3.4854,3.4854,0,0,1,.8369.6719,3.2272,3.2272,0,0,1,.837,2.2881,3.6724,3.6724,0,0,1-.9317,2.6772,3.2254,3.2254,0,0,1-2.417.9556,3.6652,3.6652,0,0,1-1.8164-.46,4.04,4.04,0,0,1-1.3681-1.2383l.9433-1.0146a3.6518,3.6518,0,0,0,.9551,1.0029,2.22,2.22,0,0,0,1.31.3892,1.6579,1.6579,0,0,0,1.332-.6016,2.3834,2.3834,0,0,0,.5078-1.5923,2.191,2.191,0,0,0-.1885-.9555,1.9783,1.9783,0,0,0-.4961-.6485,3.319,3.319,0,0,0-.6953-.4482q-.39-.1882-.8144-.354a5.6531,5.6531,0,0,1-.86-.4009,2.86,2.86,0,0,1-.7431-.6133,2.9309,2.9309,0,0,1-.5313-.9082,3.642,3.642,0,0,1-.2-1.2856,3.5612,3.5612,0,0,1,.2481-1.3443,3.0247,3.0247,0,0,1,.6953-1.05,3.3529,3.3529,0,0,1,1.0263-.6841,3.1693,3.1693,0,0,1,1.2618-.2475,3.543,3.543,0,0,1,1.71.3892,3.4587,3.4587,0,0,1,1.168,1.0024Z"/>
        <path class="cls-3" d="M134.8524,140.9111a3.2251,3.2251,0,0,1-.7793.0943,1.8544,1.8544,0,0,1-1.7334-.8491,4.3946,4.3946,0,0,1-.5068-2.2647V130.273H130.3v-1.274h1.51v-3.2314h1.5332v3.2314h2.0752v1.274h-2.0752v7.3359a2.9709,2.9709,0,0,0,.3067,1.5449,1.0165,1.0165,0,0,0,.92.4834,1.8352,1.8352,0,0,0,.4482-.0591,2.7139,2.7139,0,0,0,.4-.1294l.0713,1.25A3.7949,3.7949,0,0,1,134.8524,140.9111Z"/>
        <path class="cls-3" d="M145.1131,140.9111a3.2245,3.2245,0,0,1-.7793.0943,1.8545,1.8545,0,0,1-1.7334-.8491,4.3956,4.3956,0,0,1-.5068-2.2647V130.273H140.56v-1.274h1.51v-3.2314h1.5332v3.2314h2.0752v1.274h-2.0752v7.3359a2.971,2.971,0,0,0,.3066,1.5449,1.0166,1.0166,0,0,0,.92.4834,1.8359,1.8359,0,0,0,.4483-.0591,2.7217,2.7217,0,0,0,.4-.1294l.0713,1.25A3.7994,3.7994,0,0,1,145.1131,140.9111Z"/>
        <path class="cls-3" d="M148.6971,135.1792a8.9441,8.9441,0,0,0,.166,1.7808,5.2446,5.2446,0,0,0,.4864,1.4155,2.64,2.64,0,0,0,.8056.9434,1.9473,1.9473,0,0,0,1.15.3418,1.8633,1.8633,0,0,0,1.374-.5186,3.5665,3.5665,0,0,0,.8067-1.25l1.18.6841a4.5263,4.5263,0,0,1-1.2627,1.7812,3.16,3.16,0,0,1-2.1348.7193,3.442,3.442,0,0,1-3.043-1.6514,8.2225,8.2225,0,0,1-1.0849-4.5522,10.6129,10.6129,0,0,1,.2822-2.524,6.4749,6.4749,0,0,1,.8115-1.9814,3.9673,3.9673,0,0,1,1.293-1.2856,3.5178,3.5178,0,0,1,3.458-.0118,3.4339,3.4339,0,0,1,1.1641,1.2266,5.8612,5.8612,0,0,1,.6465,1.8164,11.7572,11.7572,0,0,1,.2,2.2173v.8491Zm4.7412-1.2974a6.3059,6.3059,0,0,0-.5449-2.8422,1.7975,1.7975,0,0,0-1.707-1.0733,1.6627,1.6627,0,0,0-1.1494.4126,3.2987,3.2987,0,0,0-.7588,1.0142,5.03,5.03,0,0,0-.4268,1.2856,6.5261,6.5261,0,0,0-.13,1.2031Z"/>
        <path class="cls-3" d="M162.284,131.0274a2.5229,2.5229,0,0,0-.79-.8375,2.08,2.08,0,0,0-1.168-.3183,1.569,1.569,0,0,0-1.2382.5547,2.1273,2.1273,0,0,0-.4834,1.4507,1.7569,1.7569,0,0,0,.4716,1.3676,4.4787,4.4787,0,0,0,1.4151.7788,7.5526,7.5526,0,0,1,.9443.46,3.4854,3.4854,0,0,1,.8369.6719,3.2266,3.2266,0,0,1,.8369,2.2881,3.6723,3.6723,0,0,1-.9316,2.6772,3.2256,3.2256,0,0,1-2.417.9556,3.6652,3.6652,0,0,1-1.8164-.46,4.0412,4.0412,0,0,1-1.3682-1.2383l.9434-1.0146a3.65,3.65,0,0,0,.9551,1.0029,2.22,2.22,0,0,0,1.3095.3892,1.6581,1.6581,0,0,0,1.3321-.6016,2.384,2.384,0,0,0,.5078-1.5923,2.191,2.191,0,0,0-.1885-.9555,1.9783,1.9783,0,0,0-.4961-.6485,3.319,3.319,0,0,0-.6953-.4482q-.39-.1882-.8145-.354a5.6565,5.6565,0,0,1-.86-.4009,2.8621,2.8621,0,0,1-.7432-.6133,2.9307,2.9307,0,0,1-.5312-.9082,3.642,3.642,0,0,1-.2-1.2856,3.5631,3.5631,0,0,1,.248-1.3443,3.0275,3.0275,0,0,1,.6953-1.05,3.3545,3.3545,0,0,1,1.0264-.6841,3.1691,3.1691,0,0,1,1.2617-.2475,3.5432,3.5432,0,0,1,1.71.3892,3.46,3.46,0,0,1,1.168,1.0024Z"/>
        <path class="cls-3" d="M169.0077,140.9111a3.2251,3.2251,0,0,1-.7793.0943,1.8544,1.8544,0,0,1-1.7334-.8491,4.3946,4.3946,0,0,1-.5069-2.2647V130.273h-1.5332v-1.274h1.51v-3.2314h1.5332v3.2314h2.0752v1.274h-2.0752v7.3359a2.972,2.972,0,0,0,.3066,1.5449,1.0167,1.0167,0,0,0,.92.4834,1.8352,1.8352,0,0,0,.4482-.0591,2.7139,2.7139,0,0,0,.4-.1294l.0713,1.25A3.7949,3.7949,0,0,1,169.0077,140.9111Z"/>
        <path class="cls-3" d="M173.5594,125.4136a1.1271,1.1271,0,0,1-.3066.8139.9828.9828,0,0,1-.7315.3184.97.97,0,0,1-.7431-.3184,1.1526,1.1526,0,0,1-.2949-.8139,1.1647,1.1647,0,0,1,.2949-.8023,1.0018,1.0018,0,0,1,1.4863,0A1.1647,1.1647,0,0,1,173.5594,125.4136Zm-1.8164,15.2851v-11.7H173.3v11.7Z"/>
        <path class="cls-3" d="M182.9237,140.6987V133.15a10.4224,10.4224,0,0,0-.0586-1.0967,3.4475,3.4475,0,0,0-.26-1.0141,1.953,1.953,0,0,0-.5664-.7549,1.4747,1.4747,0,0,0-.9551-.2949,1.7984,1.7984,0,0,0-1.05.3183,2.6333,2.6333,0,0,0-.7783.8726,4.914,4.914,0,0,0-.4951,1.2739,6.2407,6.2407,0,0,0-.1768,1.498v6.7461h-1.5566v-8.7514c0-.251-.0049-.5225-.0127-.8135s-.0156-.5737-.0234-.8491-.0157-.5269-.0235-.7549-.0195-.4048-.0351-.5308h1.51q.0469.4484.07,1.085t.0234,1.2031h.0478a4.2269,4.2269,0,0,1,1.085-1.9223,2.579,2.579,0,0,1,1.8867-.7432,2.4424,2.4424,0,0,1,2.4063,1.4507,4.9058,4.9058,0,0,1,.4131,1.4624,12.5662,12.5662,0,0,1,.1054,1.6157v7.5483Z"/>
        <path class="cls-3" d="M195.3778,140.5337a12.5463,12.5463,0,0,1-.2,2.3115,5.4911,5.4911,0,0,1-.6729,1.84,3.4078,3.4078,0,0,1-1.2734,1.2265,4.0667,4.0667,0,0,1-2.0049.4483,4.54,4.54,0,0,1-2.1582-.5308,4.4328,4.4328,0,0,1-1.6162-1.4272l1.0147-1.085a3.7829,3.7829,0,0,0,1.1914,1.18,2.9948,2.9948,0,0,0,1.6152.4482,2.3143,2.3143,0,0,0,1.2861-.3305,2.2107,2.2107,0,0,0,.79-.92,4.8352,4.8352,0,0,0,.4-1.3916,12.1413,12.1413,0,0,0,.1181-1.769V138.6h-.0468a4.09,4.09,0,0,1-.9434,1.7691,2.4252,2.4252,0,0,1-1.8643.7075,2.7141,2.7141,0,0,1-1.58-.4717,3.8444,3.8444,0,0,1-1.1553-1.3091,7.0354,7.0354,0,0,1-.72-1.9814,11.8836,11.8836,0,0,1-.2481-2.5122,12.2862,12.2862,0,0,1,.2363-2.5,6.7313,6.7313,0,0,1,.6953-1.9458,3.6324,3.6324,0,0,1,1.1563-1.2739,2.8194,2.8194,0,0,1,1.5918-.46,2.65,2.65,0,0,1,1.8047.6484,3.2263,3.2263,0,0,1,1.0029,1.71h.07V128.999h1.51Zm-1.51-5.6851a11.3117,11.3117,0,0,0-.1533-1.9106,5.883,5.883,0,0,0-.4717-1.5566,2.9313,2.9313,0,0,0-.79-1.0381,1.7667,1.7667,0,0,0-2.1817,0,2.904,2.904,0,0,0-.7666,1.0263,5.6609,5.6609,0,0,0-.4482,1.545,12.3794,12.3794,0,0,0-.1416,1.934,11.9824,11.9824,0,0,0,.1416,1.899,5.8283,5.8283,0,0,0,.4482,1.5454,2.8782,2.8782,0,0,0,.7666,1.0376,1.7822,1.7822,0,0,0,2.1934,0,3.0165,3.0165,0,0,0,.7783-1.0259,5.7051,5.7051,0,0,0,.4717-1.5332A11.2487,11.2487,0,0,0,193.868,134.8486Z"/>
        <path class="cls-3" d="M207.36,123.9273a2.1719,2.1719,0,0,0-.6836-.1177,1.293,1.293,0,0,0-.791.2358,1.693,1.693,0,0,0-.5068.6133,2.8535,2.8535,0,0,0-.26.8608,6.965,6.965,0,0,0-.07,1.0025v2.477H207.03v1.274h-1.9814v10.4257H203.492V130.273h-1.581v-1.274h1.581v-2.477a5.2481,5.2481,0,0,1,.7305-2.9131,2.5342,2.5342,0,0,1,2.2881-1.12,3.06,3.06,0,0,1,.9678.1411Z"/>
        <path class="cls-3" d="M211.63,129.3291a2.1469,2.1469,0,0,1,1.5577-.6841,1.2478,1.2478,0,0,1,.2822.024l-.0469,1.604c-.0625-.0157-.1221-.0274-.1767-.0357a1.466,1.466,0,0,0-.2-.0117,1.5528,1.5528,0,0,0-1.05.4009,3.184,3.184,0,0,0-.7666,1.0381,5.7615,5.7615,0,0,0-.46,1.4506,8.6863,8.6863,0,0,0-.1533,1.6158v5.9677h-1.5567v-8.7514c0-.251-.0049-.5225-.0127-.8135s-.0156-.5737-.0234-.8491-.0156-.5269-.0234-.7549-.02-.4048-.0352-.5308h1.51q.0468.4484.07,1.1206t.0234,1.4268h.0479A4.4181,4.4181,0,0,1,211.63,129.3291Z"/>
        <path class="cls-3" d="M220.1922,140.6987c-.0156-.1254-.0273-.2832-.0351-.4716s-.0156-.3892-.0234-.6016-.0118-.4165-.0118-.6133v-.5073h-.0478q-.5889,2.5005-2.83,2.5005a2.7746,2.7746,0,0,1-.9912-.1885,2.4184,2.4184,0,0,1-.8965-.6133,3.3476,3.3476,0,0,1-.66-1.0737,4.225,4.225,0,0,1-.26-1.5684,4.0935,4.0935,0,0,1,.4482-2.0522,3.5472,3.5472,0,0,1,1.1328-1.2266,4.1,4.1,0,0,1,1.4971-.6015,8.3722,8.3722,0,0,1,1.5459-.1534h.92v-.6132a3.5835,3.5835,0,0,0-.5664-2.2408,1.8608,1.8608,0,0,0-1.5332-.7075,2.27,2.27,0,0,0-1.2265.3535,3.4794,3.4794,0,0,0-.9668.8965l-.8262-.9673a3.6248,3.6248,0,0,1,1.415-1.2031,3.9669,3.9669,0,0,1,1.7461-.4243,2.8782,2.8782,0,0,1,2.6182,1.2031,6.5094,6.5094,0,0,1,.7783,3.5147v4.8589q0,.2365.0117.59t.0235.7192q.0117.3663.0351.6841c.0156.2124.0322.3819.0479.5073Zm-.1884-5.9443H219.06a6.1348,6.1348,0,0,0-1.1328.1064,2.6356,2.6356,0,0,0-1.002.4009,2.2641,2.2641,0,0,0-.72.8135,2.8006,2.8006,0,0,0-.2832,1.3447,2.4274,2.4274,0,0,0,.543,1.7691,1.6469,1.6469,0,0,0,2.3.1416,2.8447,2.8447,0,0,0,.7305-1.0142,5.486,5.486,0,0,0,.39-1.3447,8.9451,8.9451,0,0,0,.1182-1.4151Z"/>
        <path class="cls-3" d="M227.4881,129.3648a2.5845,2.5845,0,0,1,1.9151-.7432,2.4642,2.4642,0,0,1,1.0918.2241,2.4352,2.4352,0,0,1,.7754.59,2.6777,2.6777,0,0,1,.4931.8608,6.5683,6.5683,0,0,1,.27,1.0142h.0459a4.7951,4.7951,0,0,1,.3995-1.0025,3.49,3.49,0,0,1,.6464-.8608,3.0339,3.0339,0,0,1,.8926-.6016,2.783,2.783,0,0,1,1.14-.2241,2.546,2.546,0,0,1,1.5039.4009,2.7441,2.7441,0,0,1,.8808,1.05,4.6643,4.6643,0,0,1,.4229,1.4624,12.5687,12.5687,0,0,1,.1064,1.6157v7.5483h-1.5576V133.15a10.4224,10.4224,0,0,0-.0586-1.0967,3.6713,3.6713,0,0,0-.248-1.0141,1.862,1.862,0,0,0-.5537-.7549,1.5146,1.5146,0,0,0-.98-.2949,1.76,1.76,0,0,0-1.0254.3183,2.5218,2.5218,0,0,0-.7666.8726,4.8259,4.8259,0,0,0-.4717,1.2739,6.6609,6.6609,0,0,0-.165,1.498v6.7461h-1.5577V133.15a10.7571,10.7571,0,0,0-.0586-1.1084,4.029,4.029,0,0,0-.2343-1.0264,1.6712,1.6712,0,0,0-.54-.7426,1.4989,1.4989,0,0,0-.9492-.2832,1.7272,1.7272,0,0,0-1.0322.3183,2.6816,2.6816,0,0,0-.7627.8726,4.6385,4.6385,0,0,0-.4805,1.2739,6.7191,6.7191,0,0,0-.164,1.498v6.7461H224.91v-8.7514c0-.251-.0049-.5225-.0127-.8135s-.0156-.5737-.0234-.8491-.0156-.5269-.0235-.7549-.0195-.4048-.0351-.5308h1.5332q.0468.4484.07,1.085t.0244,1.2031h.0469A3.8041,3.8041,0,0,1,227.4881,129.3648Z"/>
        <path class="cls-3" d="M242.4823,135.1792a8.9367,8.9367,0,0,0,.166,1.7808,5.2446,5.2446,0,0,0,.4863,1.4155,2.64,2.64,0,0,0,.8057.9434,1.9469,1.9469,0,0,0,1.15.3418,1.8636,1.8636,0,0,0,1.374-.5186,3.5663,3.5663,0,0,0,.8066-1.25l1.18.6841a4.5263,4.5263,0,0,1-1.2627,1.7812,3.16,3.16,0,0,1-2.1347.7193,3.4418,3.4418,0,0,1-3.043-1.6514,8.2225,8.2225,0,0,1-1.085-4.5522,10.6128,10.6128,0,0,1,.2823-2.524,6.4749,6.4749,0,0,1,.8115-1.9814,3.9663,3.9663,0,0,1,1.293-1.2856,3.5177,3.5177,0,0,1,3.458-.0118,3.4337,3.4337,0,0,1,1.164,1.2266,5.8587,5.8587,0,0,1,.6465,1.8164,11.7572,11.7572,0,0,1,.2,2.2173v.8491Zm4.7412-1.2974a6.3059,6.3059,0,0,0-.5449-2.8422,1.7975,1.7975,0,0,0-1.7071-1.0733,1.6627,1.6627,0,0,0-1.1494.4126,3.3,3.3,0,0,0-.7588,1.0142,5.0339,5.0339,0,0,0-.4267,1.2856,6.5261,6.5261,0,0,0-.13,1.2031Z"/>
        <path class="cls-3" d="M260.3622,140.6987h-1.84l-1.9814-9.5058h-.0235l-2.0048,9.5058h-1.77l-2.3818-11.7h1.58l1.7929,9.9073h.0235l2.0517-9.9073h1.51l2.0762,9.9073h.0234l1.793-9.9073h1.58Z"/>
        <path class="cls-3" d="M272.6288,134.8726a10.4306,10.4306,0,0,1-.2832,2.5239,6.7158,6.7158,0,0,1-.8018,1.9575,3.7581,3.7581,0,0,1-1.2861,1.2739,3.3285,3.3285,0,0,1-1.71.4483,3.2656,3.2656,0,0,1-1.6982-.4483,3.8893,3.8893,0,0,1-1.2862-1.2739,6.5155,6.5155,0,0,1-.8134-1.9575,10.4257,10.4257,0,0,1-.2832-2.5239,11.1738,11.1738,0,0,1,.2714-2.5479,6.4971,6.4971,0,0,1,.79-1.9814,3.7493,3.7493,0,0,1,1.2861-1.2735,3.3669,3.3669,0,0,1,1.7334-.4482,3.3246,3.3246,0,0,1,1.71.4482,3.7666,3.7666,0,0,1,1.2861,1.2735,6.707,6.707,0,0,1,.8018,1.9814A10.73,10.73,0,0,1,272.6288,134.8726Zm-1.6045-.0357a11.399,11.399,0,0,0-.1533-1.9292,5.9716,5.9716,0,0,0-.46-1.5415,2.8973,2.8973,0,0,0-.7666-1.0234,1.6762,1.6762,0,0,0-1.0967-.3765,1.7231,1.7231,0,0,0-1.1084.3765,2.7142,2.7142,0,0,0-.7666,1.0234,6.2184,6.2184,0,0,0-.4482,1.5415,11.3887,11.3887,0,0,0-.1533,1.9292,10.9791,10.9791,0,0,0,.1533,1.9063,6.4457,6.4457,0,0,0,.4482,1.53,2.5966,2.5966,0,0,0,.7666,1.0234,1.8683,1.8683,0,0,0,2.2168,0,2.6051,2.6051,0,0,0,.7666-1.0234,6.5449,6.5449,0,0,0,.4483-1.53A10.989,10.989,0,0,0,271.0243,134.8369Z"/>
        <path class="cls-3" d="M278.2186,129.3291a2.1468,2.1468,0,0,1,1.5576-.6841,1.2488,1.2488,0,0,1,.2823.024l-.0469,1.604c-.0625-.0157-.1221-.0274-.1768-.0357a1.464,1.464,0,0,0-.2-.0117,1.5532,1.5532,0,0,0-1.05.4009,3.1854,3.1854,0,0,0-.7666,1.0381,5.7575,5.7575,0,0,0-.46,1.4506,8.678,8.678,0,0,0-.1534,1.6158v5.9677h-1.5566v-8.7514c0-.251-.0049-.5225-.0127-.8135s-.0156-.5737-.0234-.8491-.0157-.5269-.0235-.7549-.0195-.4048-.0351-.5308h1.51q.0469.4484.07,1.1206t.0234,1.4268h.0478A4.4189,4.4189,0,0,1,278.2186,129.3291Z"/>
        <path class="cls-3" d="M287.6307,140.6987l-4.0107-5.8969h-.0469v5.8969h-1.5566V122.8662h1.5566v11.2984h.0469l3.7744-5.1656h1.8633l-4.1983,5.4253,4.458,6.2744Z"/>
      </g>
    </g>
  </g>
</svg>
