<svg id="Layer_1" data-name="Layer 1" xmlns="http://www.w3.org/2000/svg" viewBox="0 0 481.0664 358.5264">
  <defs>
    <style>
      .cls-1 {
        fill: #293b00;
      }

      .cls-2 {
        fill: #eb5c00;
      }

      .cls-3 {
        fill: #f7a300;
      }

      .cls-4 {
        fill: #a5a05f;
      }
    </style>
  </defs>
  <title>PolySyntax</title>
  <g>
    <path class="cls-1" d="M247.3818,160.8281v57.5q0,6.7208.9766,8.9453a6.8434,6.8434,0,0,0,2.8906,3.32q1.9131,1.0956,6.9922,1.0937V234.5H223.4756v-2.8125q5.2332,0,7.0312-1.0156a6.9634,6.9634,0,0,0,2.8516-3.3594q1.0547-2.3437,1.0547-8.9844V190.75q0-11.64-.7031-15.0781a6.1372,6.1372,0,0,0-1.7188-3.4766,4.8566,4.8566,0,0,0-3.2031-.9765,15.6354,15.6354,0,0,0-5.3125,1.1718l-1.0938-2.8125,21.5625-8.75Zm-6.4843-37.4218a7.8687,7.8687,0,0,1,7.8906,7.8906,7.7419,7.7419,0,0,1-2.3047,5.625,7.5445,7.5445,0,0,1-5.5859,2.3437,7.93,7.93,0,1,1,0-15.8593Z" transform="translate(-11.2256 -27.5078)"/>
    <path class="cls-1" d="M287.9287,139.4219v23.5156h16.7188v5.4688H287.9287v46.4062q0,6.955,1.9922,9.375a6.3253,6.3253,0,0,0,5.1172,2.4219,8.9466,8.9466,0,0,0,5-1.6016,10.3056,10.3056,0,0,0,3.75-4.7265h3.0469q-2.7364,7.6581-7.7344,11.5234a16.6909,16.6909,0,0,1-10.3125,3.8672,13.8615,13.8615,0,0,1-7.0313-1.9922,12.0342,12.0342,0,0,1-5.0781-5.7031q-1.6406-3.7091-1.6406-11.4453v-48.125H263.71v-2.5782a29.6809,29.6809,0,0,0,8.789-5.82,46.2932,46.2932,0,0,0,8.0078-9.7265,87.6906,87.6906,0,0,0,5-10.8594Z" transform="translate(-11.2256 -27.5078)"/>
  </g>
  <g>
    <path class="cls-2" d="M52.8857,123.7383l1.23,15.0469h-1.23a20.5774,20.5774,0,0,0-4.8164-8.4727,15.0762,15.0762,0,0,0-10.9336-4.1133q-9.1054,0-13.8515,7.2071a25.89,25.89,0,0,0-3.9727,14.4843,28.9551,28.9551,0,0,0,2.6367,12.4453,18.5069,18.5069,0,0,0,6.9082,8.2442,16.58,16.58,0,0,0,8.7715,2.6191,19.3746,19.3746,0,0,0,5.0977-.6679,20.3143,20.3143,0,0,0,4.7461-1.9688V154.7813a12.7448,12.7448,0,0,0-.5449-4.6934A3.6788,3.6788,0,0,0,45.2393,148.4a9.76,9.76,0,0,0-4.0254-.58v-1.3359h18.457V147.82H58.792q-2.7421,0-3.7617,1.8281-.7032,1.3008-.7032,5.1329v14.59a35.6952,35.6952,0,0,1-7.98,3.1992,34.9252,34.9252,0,0,1-8.7539,1.0195q-13.8165,0-20.9883-8.8593a23.6626,23.6626,0,0,1-5.3789-15.3282,25.6218,25.6218,0,0,1,3.0234-12.0585,25.8133,25.8133,0,0,1,9.8438-10.5469,24.1082,24.1082,0,0,1,12.375-3.0586,24.3738,24.3738,0,0,1,4.7285.4219,43.208,43.208,0,0,1,6.0293,1.8632,9.7273,9.7273,0,0,0,2.6367.7383,1.4061,1.4061,0,0,0,1.1426-.6152,4.7,4.7,0,0,0,.58-2.4082Z" transform="translate(-11.2256 -27.5078)"/>
    <path class="cls-2" d="M74.05,139.3477v25.875a11.8481,11.8481,0,0,0,.4395,4.0253,3.0844,3.0844,0,0,0,1.3007,1.4942,6.9565,6.9565,0,0,0,3.1465.4922V172.5H63.292v-1.2656a7.2822,7.2822,0,0,0,3.1641-.4571,3.1324,3.1324,0,0,0,1.2832-1.5117,11.3631,11.3631,0,0,0,.4746-4.0429v-12.41a43.8982,43.8982,0,0,0-.3164-6.7852,2.7588,2.7588,0,0,0-.7735-1.5644,2.1831,2.1831,0,0,0-1.4414-.4395,7.0383,7.0383,0,0,0-2.3906.5274L62.8,143.2852l9.7031-3.9375Zm-2.918-16.84a3.5409,3.5409,0,0,1,3.5508,3.5508,3.4814,3.4814,0,0,1-1.0371,2.5312,3.3944,3.3944,0,0,1-2.5137,1.0547,3.5685,3.5685,0,1,1,0-7.1367Z" transform="translate(-11.2256 -27.5078)"/>
    <path class="cls-2" d="M81.292,140.2969H96.4443v1.3008H95.46a2.9725,2.9725,0,0,0-2.0918.6679,2.3265,2.3265,0,0,0-.7207,1.793,7.5,7.5,0,0,0,.7382,2.918l7.4883,17.789,7.5235-18.457a8.7687,8.7687,0,0,0,.8086-2.9883,1.1719,1.1719,0,0,0-.2813-.8086,1.9375,1.9375,0,0,0-.9844-.7207,9.6271,9.6271,0,0,0-2.4258-.1933v-1.3008h10.5118v1.3008a4.5621,4.5621,0,0,0-2.5313.7382,8.994,8.994,0,0,0-2.2148,3.5157L99.8545,173.4844H98.4131L86.917,146.3086A10.4847,10.4847,0,0,0,85.44,143.584a5.8326,5.8326,0,0,0-1.7929-1.3887,8.82,8.82,0,0,0-2.3555-.5976Z" transform="translate(-11.2256 -27.5078)"/>
    <path class="cls-2" d="M124.3584,152.4258q-.0351,7.1718,3.48,11.25a10.6124,10.6124,0,0,0,8.2617,4.0781,8.9591,8.9591,0,0,0,5.5019-1.74,12.8441,12.8441,0,0,0,3.92-5.959l1.09.7031a16.7616,16.7616,0,0,1-4.2891,8.7715,11.4532,11.4532,0,0,1-8.8945,3.9551,12.9889,12.9889,0,0,1-9.9316-4.5176q-4.1308-4.5168-4.1309-12.1465,0-8.261,4.2363-12.8848a13.8182,13.8182,0,0,1,10.6348-4.623,11.89,11.89,0,0,1,8.8945,3.5684,13.0831,13.0831,0,0,1,3.4805,9.5449Zm0-2.0391h14.9062a13.7816,13.7816,0,0,0-.7382-4.3594,6.9841,6.9841,0,0,0-2.6192-3.0937,6.6032,6.6032,0,0,0-3.6386-1.125,7.2521,7.2521,0,0,0-5.2207,2.2676A9.84,9.84,0,0,0,124.3584,150.3867Z" transform="translate(-11.2256 -27.5078)"/>
    <path class="cls-2" d="M160.2881,146.168q5.66-6.82,10.793-6.82a7.7509,7.7509,0,0,1,4.5351,1.3183,8.8316,8.8316,0,0,1,3.0234,4.3418,20.0844,20.0844,0,0,1,.7735,6.4688v13.7461a11.5793,11.5793,0,0,0,.4922,4.1484,2.8879,2.8879,0,0,0,1.248,1.3711,7.0663,7.0663,0,0,0,3.1817.4922V172.5H168.4092v-1.2656h.6679a5.3592,5.3592,0,0,0,3.1465-.6856,3.5922,3.5922,0,0,0,1.2481-2.0215,20.5473,20.5473,0,0,0,.1406-3.3046V152.0391q0-4.3946-1.1426-6.3809a4.0807,4.0807,0,0,0-3.85-1.9863q-4.1835,0-8.332,4.57v16.9805a12.1347,12.1347,0,0,0,.3867,4.0429,3.2512,3.2512,0,0,0,1.3535,1.4942,8.3812,8.3812,0,0,0,3.4981.4746V172.5H149.6006v-1.2656h.7031q2.4609,0,3.3223-1.2481t.8613-4.7636V153.27a51.9472,51.9472,0,0,0-.2637-7.0664,3.0267,3.0267,0,0,0-.8086-1.7226,2.1994,2.1994,0,0,0-1.4589-.4571,6.7563,6.7563,0,0,0-2.3555.5274l-.5274-1.2656,9.7032-3.9375h1.5117Z" transform="translate(-11.2256 -27.5078)"/>
  </g>
  <g>
    <path class="cls-2" d="M388.0889,197.8281v1.3008a6.0249,6.0249,0,0,0-3.0235.668,6.578,6.578,0,0,0-2.2148,2.4961,40.7445,40.7445,0,0,0-2.2149,5.8711L367.3467,246.59H365.94l-10.8633-30.48-10.7929,30.48h-1.2656l-14.168-39.5859q-1.582-4.43-2.0039-5.2383a4.6292,4.6292,0,0,0-1.916-1.9863,6.9949,6.9949,0,0,0-3.2871-.65v-1.3008H339.292v1.3008h-.8438a4.2547,4.2547,0,0,0-2.8476.8438,2.5954,2.5954,0,0,0-.9844,2.039,24.2229,24.2229,0,0,0,1.5469,5.66l9.3867,26.7539,7.91-22.7461-1.4063-4.0078-1.125-3.1992a17.4214,17.4214,0,0,0-1.6523-3.0938,4.2882,4.2882,0,0,0-1.125-1.125,6.3353,6.3353,0,0,0-1.7578-.9141,7.6293,7.6293,0,0,0-2.1094-.2109v-1.3008h18.5625v1.3008h-1.2656a4.1539,4.1539,0,0,0-2.8829.8438,2.9579,2.9579,0,0,0-.914,2.2851,22.557,22.557,0,0,0,1.582,6.2578l9.1406,25.91,9.07-26.2617a22.08,22.08,0,0,0,1.5469-6.0469,2.5274,2.5274,0,0,0-.51-1.5117,2.7055,2.7055,0,0,0-1.2832-.9844,10.2533,10.2533,0,0,0-3.4805-.4922v-1.3008Z" transform="translate(-11.2256 -27.5078)"/>
    <path class="cls-2" d="M400.3584,195.5078v23.5547q3.9024-4.2891,6.1875-5.502a9.6737,9.6737,0,0,1,4.57-1.2128,7.5078,7.5078,0,0,1,4.7109,1.5117,8.9273,8.9273,0,0,1,2.918,4.7461,33.6124,33.6124,0,0,1,.668,8.2265v11.3907a11.9033,11.9033,0,0,0,.4922,4.1836,2.7462,2.7462,0,0,0,1.1953,1.3359,6.7324,6.7324,0,0,0,3.0937.4922V245.5h-15.82v-1.2656h.7383a5.27,5.27,0,0,0,3.1289-.6856,3.6375,3.6375,0,0,0,1.2305-2.0215,27.8994,27.8994,0,0,0,.1054-3.3046V226.832a27.3638,27.3638,0,0,0-.5449-6.9257,4.6689,4.6689,0,0,0-1.74-2.4786,4.9452,4.9452,0,0,0-2.8828-.8261,8.1347,8.1347,0,0,0-3.586.914,17.1089,17.1089,0,0,0-4.4648,3.6914v17.0157a13.249,13.249,0,0,0,.3691,4.1132,3.0019,3.0019,0,0,0,1.3711,1.3536,7.8346,7.8346,0,0,0,3.4629.5449V245.5H389.6006v-1.2656a7.1257,7.1257,0,0,0,3.375-.668,2.51,2.51,0,0,0,1.125-1.3359,12.1415,12.1415,0,0,0,.4219-4.0078V209.0781a48.6018,48.6018,0,0,0-.2637-6.7851,3.0273,3.0273,0,0,0-.8086-1.7227,2.2,2.2,0,0,0-1.459-.457,8.5977,8.5977,0,0,0-2.3906.5625l-.4922-1.2305,9.6328-3.9375Z" transform="translate(-11.2256 -27.5078)"/>
    <path class="cls-2" d="M432.3154,225.4258q-.0351,7.1718,3.4805,11.25a10.6141,10.6141,0,0,0,8.2617,4.0781,8.9594,8.9594,0,0,0,5.502-1.74,12.844,12.844,0,0,0,3.92-5.959l1.09.7031a16.7629,16.7629,0,0,1-4.289,8.7715,11.4535,11.4535,0,0,1-8.8946,3.9551,12.9891,12.9891,0,0,1-9.9316-4.5176q-4.1308-4.5176-4.1309-12.1465,0-8.2617,4.2364-12.8848a13.8161,13.8161,0,0,1,10.6347-4.623,11.8883,11.8883,0,0,1,8.8946,3.5684,13.0831,13.0831,0,0,1,3.48,9.5449Zm0-2.0391h14.9063a13.7809,13.7809,0,0,0-.7383-4.3594,6.9812,6.9812,0,0,0-2.6191-3.0937,6.6038,6.6038,0,0,0-3.6387-1.125,7.2523,7.2523,0,0,0-5.2207,2.2676A9.8392,9.8392,0,0,0,432.3154,223.3867Z" transform="translate(-11.2256 -27.5078)"/>
    <path class="cls-2" d="M468.2451,219.168q5.66-6.82,10.793-6.82a7.7509,7.7509,0,0,1,4.5351,1.3183,8.8311,8.8311,0,0,1,3.0235,4.3418,20.0857,20.0857,0,0,1,.7734,6.4688v13.7461a11.5836,11.5836,0,0,0,.4922,4.1484,2.8876,2.8876,0,0,0,1.2481,1.3711,7.0729,7.0729,0,0,0,3.1816.4922V245.5H476.3662v-1.2656h.668a5.3594,5.3594,0,0,0,3.1465-.6856,3.5944,3.5944,0,0,0,1.248-2.0215,20.5343,20.5343,0,0,0,.1406-3.3046V225.0391q0-4.3946-1.1425-6.3809a4.08,4.08,0,0,0-3.85-1.9863q-4.1835,0-8.332,4.57v16.9805a12.1368,12.1368,0,0,0,.3867,4.0429,3.2538,3.2538,0,0,0,1.3536,1.4942,8.3806,8.3806,0,0,0,3.498.4746V245.5H457.5576v-1.2656h.7031q2.4611,0,3.3223-1.2481t.8613-4.7636V226.27a51.9728,51.9728,0,0,0-.2636-7.0664,3.0273,3.0273,0,0,0-.8086-1.7226,2.197,2.197,0,0,0-1.459-.4571,6.7568,6.7568,0,0,0-2.3555.5274l-.5273-1.2656,9.7031-3.9375h1.5117Z" transform="translate(-11.2256 -27.5078)"/>
  </g>
  <g>
    <path class="cls-2" d="M235.3545,247.8281l.5273,11.18h-1.3359a13.5006,13.5006,0,0,0-1.0547-4.2187,7.0567,7.0567,0,0,0-2.9-3.0059,10.1147,10.1147,0,0,0-4.7637-.9668h-6.7148v36.4219q0,4.3946.9492,5.4844a5.2786,5.2786,0,0,0,4.1133,1.4765h1.6523V295.5H205.6123v-1.3008H207.3q3.0234,0,4.2891-1.8281.7734-1.125.7734-5.1328V250.8164h-5.7305a15.9758,15.9758,0,0,0-4.7461.4922,6.5141,6.5141,0,0,0-3.1289,2.5664,10.3846,10.3846,0,0,0-1.5468,5.1328h-1.336l.5625-11.18Z" transform="translate(-11.2256 -27.5078)"/>
    <path class="cls-2" d="M249.3818,245.5078v23.5547q3.9024-4.2891,6.1875-5.502a9.674,9.674,0,0,1,4.57-1.2128,7.5079,7.5079,0,0,1,4.711,1.5117,8.9279,8.9279,0,0,1,2.918,4.7461,33.6138,33.6138,0,0,1,.6679,8.2265v11.3907a11.9058,11.9058,0,0,0,.4922,4.1836,2.7467,2.7467,0,0,0,1.1953,1.3359,6.7329,6.7329,0,0,0,3.0938.4922V295.5h-15.82v-1.2656h.7382a5.27,5.27,0,0,0,3.1289-.6856,3.637,3.637,0,0,0,1.2305-2.0215,27.889,27.889,0,0,0,.1055-3.3046V276.832a27.3687,27.3687,0,0,0-.5449-6.9257,4.6691,4.6691,0,0,0-1.74-2.4786,4.9449,4.9449,0,0,0-2.8828-.8261,8.1346,8.1346,0,0,0-3.5859.914,17.1074,17.1074,0,0,0-4.4649,3.6914v17.0157a13.2477,13.2477,0,0,0,.3692,4.1132,3.0015,3.0015,0,0,0,1.3711,1.3536,7.834,7.834,0,0,0,3.4629.5449V295.5H238.624v-1.2656a7.1257,7.1257,0,0,0,3.375-.668,2.5094,2.5094,0,0,0,1.125-1.3359,12.1387,12.1387,0,0,0,.4219-4.0078V259.0781a48.5967,48.5967,0,0,0-.2637-6.7851,3.0273,3.0273,0,0,0-.8086-1.7227,2.1968,2.1968,0,0,0-1.459-.457,8.5807,8.5807,0,0,0-2.3906.5625l-.4922-1.2305,9.6328-3.9375Z" transform="translate(-11.2256 -27.5078)"/>
    <path class="cls-2" d="M281.3389,275.4258q-.0353,7.1718,3.48,11.25a10.6142,10.6142,0,0,0,8.2618,4.0781,8.9593,8.9593,0,0,0,5.5019-1.74,12.844,12.844,0,0,0,3.92-5.959l1.09.7031a16.7631,16.7631,0,0,1-4.2891,8.7715,11.4533,11.4533,0,0,1-8.8945,3.9551,12.9891,12.9891,0,0,1-9.9317-4.5176q-4.1309-4.5175-4.1308-12.1465,0-8.2617,4.2363-12.8848a13.8162,13.8162,0,0,1,10.6348-4.623,11.8883,11.8883,0,0,1,8.8945,3.5684,13.0831,13.0831,0,0,1,3.4805,9.5449Zm0-2.0391h14.9062a13.7809,13.7809,0,0,0-.7383-4.3594,6.9806,6.9806,0,0,0-2.6191-3.0937,6.6038,6.6038,0,0,0-3.6387-1.125,7.2525,7.2525,0,0,0-5.2207,2.2676A9.84,9.84,0,0,0,281.3389,273.3867Z" transform="translate(-11.2256 -27.5078)"/>
    <path class="cls-2" d="M317.2686,269.168q5.66-6.82,10.7929-6.82a7.7512,7.7512,0,0,1,4.5352,1.3183,8.8316,8.8316,0,0,1,3.0234,4.3418,20.0851,20.0851,0,0,1,.7735,6.4688v13.7461a11.5842,11.5842,0,0,0,.4921,4.1484,2.8886,2.8886,0,0,0,1.2481,1.3711,7.0732,7.0732,0,0,0,3.1816.4922V295.5H325.39v-1.2656h.668a5.3594,5.3594,0,0,0,3.1465-.6856,3.5933,3.5933,0,0,0,1.248-2.0215,20.5285,20.5285,0,0,0,.1407-3.3046V275.0391q0-4.3946-1.1426-6.3809a4.08,4.08,0,0,0-3.85-1.9863q-4.1836,0-8.332,4.57v16.98a12.1368,12.1368,0,0,0,.3867,4.0429,3.2536,3.2536,0,0,0,1.3535,1.4942,8.3806,8.3806,0,0,0,3.498.4746V295.5H306.5811v-1.2656h.7031q2.4609,0,3.3222-1.2481t.8614-4.7636V276.27a51.9472,51.9472,0,0,0-.2637-7.0664,3.0273,3.0273,0,0,0-.8086-1.7226,2.197,2.197,0,0,0-1.459-.4571,6.7563,6.7563,0,0,0-2.3554.5274l-.5274-1.2656,9.7031-3.9375h1.5118Z" transform="translate(-11.2256 -27.5078)"/>
  </g>
  <g>
    <path class="cls-1" d="M94.69,73.8789a16.2632,16.2632,0,0,1-4.6054,3.5332,11.1313,11.1313,0,0,1-4.8516,1.0723,12.0032,12.0032,0,0,1-9.2109-4.4121A16.3864,16.3864,0,0,1,72.085,62.7344a20.4963,20.4963,0,0,1,4.3593-12.6739,13.4757,13.4757,0,0,1,11.2149-5.748A9.661,9.661,0,0,1,94.69,47.02V41.0781a48.6258,48.6258,0,0,0-.2636-6.7851,2.9566,2.9566,0,0,0-.8262-1.7227,2.16,2.16,0,0,0-1.4063-.457,7.4223,7.4223,0,0,0-2.4257.5625l-.4571-1.2305,9.5977-3.9375h1.582v37.23a49.7961,49.7961,0,0,0,.2637,6.9082,3.0637,3.0637,0,0,0,.8437,1.74,2.0257,2.0257,0,0,0,1.3535.4922,7.635,7.635,0,0,0,2.5313-.5976l.3867,1.23-9.5625,3.9727H94.69Zm0-2.4609V54.8242a11.2184,11.2184,0,0,0-1.2656-4.3594A7.3,7.3,0,0,0,90.63,47.4941a6.7846,6.7846,0,0,0-3.3926-1.0019,7.1958,7.1958,0,0,0-5.52,2.7773q-3.1992,3.657-3.1992,10.6875,0,7.1016,3.0937,10.8809t6.8906,3.7793Q91.7021,74.6172,94.69,71.418Z" transform="translate(-11.2256 -27.5078)"/>
    <path class="cls-1" d="M113.3584,57.4258q-.0351,7.1718,3.48,11.25a10.6124,10.6124,0,0,0,8.2617,4.0781,8.9591,8.9591,0,0,0,5.5019-1.74,12.8441,12.8441,0,0,0,3.92-5.959l1.09.7031a16.7616,16.7616,0,0,1-4.2891,8.7715,11.4532,11.4532,0,0,1-8.8945,3.9551,12.9889,12.9889,0,0,1-9.9316-4.5176Q108.3663,69.45,108.3662,61.82q0-8.261,4.2363-12.8848a13.8182,13.8182,0,0,1,10.6348-4.623,11.89,11.89,0,0,1,8.8945,3.5684,13.0831,13.0831,0,0,1,3.4805,9.5449Zm0-2.0391h14.9062a13.7816,13.7816,0,0,0-.7382-4.3594,6.9841,6.9841,0,0,0-2.6192-3.0937,6.6032,6.6032,0,0,0-3.6386-1.125,7.2521,7.2521,0,0,0-5.2207,2.2676A9.84,9.84,0,0,0,113.3584,55.3867Z" transform="translate(-11.2256 -27.5078)"/>
    <path class="cls-1" d="M160.7139,44.3477V55.3164h-1.16q-1.3359-5.168-3.4277-7.0312A7.7083,7.7083,0,0,0,150.8,46.4219a5.88,5.88,0,0,0-3.9727,1.3008,3.7732,3.7732,0,0,0-1.5117,2.8828,5.233,5.233,0,0,0,1.125,3.375,12.5,12.5,0,0,0,4.43,3.0586l5.1328,2.4961q7.1367,3.48,7.1367,9.1757a8.6676,8.6676,0,0,1-3.3222,7.084,11.52,11.52,0,0,1-7.4356,2.6895,25.576,25.576,0,0,1-6.75-1.0547,6.8778,6.8778,0,0,0-1.8984-.3516,1.3985,1.3985,0,0,0-1.2656.9141h-1.16V66.4961h1.16a13.0832,13.0832,0,0,0,3.7617,7.418,9.0758,9.0758,0,0,0,6.2226,2.4961,5.5726,5.5726,0,0,0,3.9551-1.4239,4.5169,4.5169,0,0,0,1.5293-3.4277,5.4542,5.4542,0,0,0-1.7051-4.0781,29.78,29.78,0,0,0-6.8027-4.1836q-5.0976-2.5312-6.68-4.57a7.9188,7.9188,0,0,1-1.582-5.0625,8.93,8.93,0,0,1,2.7246-6.6446,9.6428,9.6428,0,0,1,7.0488-2.6718,16.5653,16.5653,0,0,1,4.6055.8086,10.8815,10.8815,0,0,0,2.3906.5273,1.3994,1.3994,0,0,0,.8789-.2461,3.3668,3.3668,0,0,0,.7383-1.09Z" transform="translate(-11.2256 -27.5078)"/>
    <path class="cls-1" d="M195.2725,65.2656q-1.3008,6.3633-5.0977,9.791a12.259,12.259,0,0,1-8.4023,3.4278,12.4149,12.4149,0,0,1-9.5625-4.6055q-4.0782-4.6055-4.0782-12.4453,0-7.5937,4.5176-12.34a14.4443,14.4443,0,0,1,10.8457-4.7461A11.89,11.89,0,0,1,191.3,46.8613q3.0587,2.5137,3.0586,5.2207a2.8583,2.8583,0,0,1-.8613,2.1621,3.3371,3.3371,0,0,1-2.4082.8262,3.7434,3.7434,0,0,1-3.1289-1.3359,5.5535,5.5535,0,0,1-.7911-2.8125,4.61,4.61,0,0,0-1.4238-3.1641,5.0748,5.0748,0,0,0-3.41-1.0547,6.9737,6.9737,0,0,0-5.66,2.6016,13.8366,13.8366,0,0,0-2.8477,9.1055,18.4344,18.4344,0,0,0,2.83,10.1777A8.6908,8.6908,0,0,0,184.3037,73a9.245,9.245,0,0,0,6.1875-2.3555,15.8908,15.8908,0,0,0,3.7617-5.8711Z" transform="translate(-11.2256 -27.5078)"/>
    <path class="cls-1" d="M209.3,44.3477V51.59q4.043-7.2421,8.2969-7.2421a4.5124,4.5124,0,0,1,3.1992,1.1777,3.6227,3.6227,0,0,1,1.2656,2.7246,3.2194,3.2194,0,0,1-.914,2.32,2.9224,2.9224,0,0,1-2.18.9492,4.6434,4.6434,0,0,1-2.76-1.2129,4.5561,4.5561,0,0,0-2.2676-1.2128,2.093,2.093,0,0,0-1.3711.7031A16.93,16.93,0,0,0,209.3,54.543V69.9766a9.5538,9.5538,0,0,0,.668,4.0429,3.6415,3.6415,0,0,0,1.6172,1.5821,7.1044,7.1044,0,0,0,3.34.6328V77.5H198.4365V76.2344a6.845,6.845,0,0,0,3.6563-.7735,2.9982,2.9982,0,0,0,1.23-1.7929,18.079,18.079,0,0,0,.1758-3.41V57.7773a51.8637,51.8637,0,0,0-.2285-6.6972,2.6236,2.6236,0,0,0-.8437-1.5645,2.3708,2.3708,0,0,0-1.5293-.4922,6.9515,6.9515,0,0,0-2.461.5274l-.3515-1.2656,9.7382-3.9375Z" transform="translate(-11.2256 -27.5078)"/>
    <path class="cls-1" d="M234.9639,44.3477v25.875a11.8515,11.8515,0,0,0,.4394,4.0253,3.0851,3.0851,0,0,0,1.3008,1.4942,6.9559,6.9559,0,0,0,3.1465.4922V77.5H224.2061V76.2344a7.2813,7.2813,0,0,0,3.164-.4571,3.1319,3.1319,0,0,0,1.2832-1.5117,11.3631,11.3631,0,0,0,.4746-4.0429v-12.41a43.8848,43.8848,0,0,0-.3164-6.7852,2.7588,2.7588,0,0,0-.7734-1.5644,2.1833,2.1833,0,0,0-1.4414-.4395,7.0378,7.0378,0,0,0-2.3906.5274l-.4922-1.2656,9.7031-3.9375Zm-2.918-16.84a3.5409,3.5409,0,0,1,3.5508,3.5508A3.4814,3.4814,0,0,1,234.56,33.59a3.3944,3.3944,0,0,1-2.5137,1.0547,3.5685,3.5685,0,1,1,0-7.1367Z" transform="translate(-11.2256 -27.5078)"/>
    <path class="cls-1" d="M252.6826,50.8516q4.6758-6.504,10.09-6.5039a11.1642,11.1642,0,0,1,8.6484,4.2363q3.6914,4.237,3.6914,11.584,0,8.5781-5.6953,13.8164a15.7083,15.7083,0,0,1-10.8984,4.5,17.1534,17.1534,0,0,1-5.7129-1.02,26.22,26.22,0,0,1-5.9239-3.0585V41.043a48.2105,48.2105,0,0,0-.2636-6.75,2.9566,2.9566,0,0,0-.8262-1.7227,2.16,2.16,0,0,0-1.4063-.457,7.2275,7.2275,0,0,0-2.4609.5625l-.4922-1.2305,9.668-3.9375h1.582Zm0,2.25V72.3672a13.533,13.533,0,0,0,3.709,2.6543,9.1589,9.1589,0,0,0,3.92.8965q3.1992,0,5.959-3.5157t2.76-10.23q0-6.1875-2.76-9.51a8.0472,8.0472,0,0,0-6.2754-3.3223,8.1459,8.1459,0,0,0-3.7265.9493A16.166,16.166,0,0,0,252.6826,53.1016Z" transform="translate(-11.2256 -27.5078)"/>
    <path class="cls-1" d="M285.2725,57.4258q-.0352,7.1718,3.48,11.25a10.6127,10.6127,0,0,0,8.2617,4.0781,8.9594,8.9594,0,0,0,5.502-1.74,12.844,12.844,0,0,0,3.92-5.959l1.09.7031a16.7616,16.7616,0,0,1-4.2891,8.7715,11.4533,11.4533,0,0,1-8.8945,3.9551,12.9891,12.9891,0,0,1-9.9317-4.5176Q280.28,69.45,280.28,61.82q0-8.261,4.2363-12.8848a13.8179,13.8179,0,0,1,10.6348-4.623,11.89,11.89,0,0,1,8.8945,3.5684,13.0831,13.0831,0,0,1,3.4805,9.5449Zm0-2.0391h14.9062a13.7838,13.7838,0,0,0-.7383-4.3594,6.9839,6.9839,0,0,0-2.6191-3.0937,6.6038,6.6038,0,0,0-3.6387-1.125,7.2525,7.2525,0,0,0-5.2207,2.2676A9.8408,9.8408,0,0,0,285.2725,55.3867Z" transform="translate(-11.2256 -27.5078)"/>
  </g>
  <g>
    <path class="cls-3" d="M210.06,326.9648v9.3692h4.3418a3.0931,3.0931,0,0,0,2.1884-.6592,4.36,4.36,0,0,0,.9229-2.61h.65v8.0683h-.65a4.7092,4.7092,0,0,0-.36-2.039,2.2794,2.2794,0,0,0-.9492-.9756,3.9222,3.9222,0,0,0-1.8017-.3252H210.06v7.4883a7.8908,7.8908,0,0,0,.2285,2.3906,1.574,1.574,0,0,0,.7383.7558,3.3311,3.3311,0,0,0,1.6172.4219h.8613v.65h-10.23v-.65h.8438a2.5452,2.5452,0,0,0,2.1445-.8613,5.3539,5.3539,0,0,0,.4219-2.707V329.8828a7.8942,7.8942,0,0,0-.2285-2.3906,1.5845,1.5845,0,0,0-.7207-.7559,3.267,3.267,0,0,0-1.6172-.4218h-.8438v-.65h17.7363l.2286,5.2382h-.6153a7.2048,7.2048,0,0,0-1.0635-2.4521,3.492,3.492,0,0,0-1.4941-1.1338,7.9771,7.9771,0,0,0-2.751-.3516Z" transform="translate(-11.2256 -27.5078)"/>
    <path class="cls-3" d="M226.5479,339.4629a8.27,8.27,0,0,0,1.74,5.625,5.3069,5.3069,0,0,0,4.1308,2.0391,4.48,4.48,0,0,0,2.751-.87,6.4216,6.4216,0,0,0,1.96-2.9795l.5449.3516a8.3811,8.3811,0,0,1-2.1445,4.3857,5.7266,5.7266,0,0,1-4.4473,1.9776,6.4942,6.4942,0,0,1-4.9658-2.2588,8.6524,8.6524,0,0,1-2.0654-6.0732,9.1828,9.1828,0,0,1,2.1181-6.4424,6.9082,6.9082,0,0,1,5.3174-2.3115,5.9443,5.9443,0,0,1,4.4473,1.7841,6.5419,6.5419,0,0,1,1.74,4.7725Zm0-1.0195h7.4531a6.8892,6.8892,0,0,0-.3692-2.18,3.49,3.49,0,0,0-1.3095-1.5469,3.3021,3.3021,0,0,0-1.8194-.5625,3.626,3.626,0,0,0-2.61,1.1338A4.92,4.92,0,0,0,226.5479,338.4434Z" transform="translate(-11.2256 -27.5078)"/>
    <path class="cls-3" d="M248.9424,347.18a26.5513,26.5513,0,0,1-3.1113,2.2148,4.7538,4.7538,0,0,1-2.0215.44,3.6225,3.6225,0,0,1-2.751-1.1426,4.1942,4.1942,0,0,1-1.0811-3.0059,3.8278,3.8278,0,0,1,.5274-2.039,6.9818,6.9818,0,0,1,2.5049-2.25,38.9731,38.9731,0,0,1,5.9326-2.5664v-.6328a5.2492,5.2492,0,0,0-.7647-3.3047,2.76,2.76,0,0,0-2.2236-.8965,2.4968,2.4968,0,0,0-1.7578.5977,1.7982,1.7982,0,0,0-.668,1.371l.0352,1.02a1.7528,1.7528,0,0,1-.4131,1.248,1.4153,1.4153,0,0,1-1.0811.44,1.368,1.368,0,0,1-1.0634-.4571,1.792,1.792,0,0,1-.4131-1.248A3.5966,3.5966,0,0,1,242.14,334.19a6.6793,6.6793,0,0,1,4.3418-1.2657,7.5321,7.5321,0,0,1,3.5157.7207,3.3141,3.3141,0,0,1,1.5293,1.7051,9.6092,9.6092,0,0,1,.3164,3.0938V343.91a25.034,25.034,0,0,0,.0879,2.8212,1.1846,1.1846,0,0,0,.29.6944.6889.6889,0,0,0,.4658.1758.9594.9594,0,0,0,.4922-.1231,10.9775,10.9775,0,0,0,1.4238-1.2832v.9844q-1.9687,2.6367-3.7617,2.6367a1.71,1.71,0,0,1-1.3711-.5976A3.2285,3.2285,0,0,1,248.9424,347.18Zm0-1.1426v-6.1348a34.7316,34.7316,0,0,0-3.4278,1.4942,5.9208,5.9208,0,0,0-1.9863,1.6172,3.1255,3.1255,0,0,0-.5976,1.8457,3.0119,3.0119,0,0,0,.7558,2.1006,2.2906,2.2906,0,0,0,1.74.8349Q246.7627,347.7949,248.9424,346.0371Z" transform="translate(-11.2256 -27.5078)"/>
    <path class="cls-3" d="M260.4736,328.1074v5.291h3.7618v1.2305h-3.7618V345.07a3.5061,3.5061,0,0,0,.4483,2.1094,1.4236,1.4236,0,0,0,1.1513.5449,2.0136,2.0136,0,0,0,1.125-.36,2.3178,2.3178,0,0,0,.8438-1.0635h.6855a5.5152,5.5152,0,0,1-1.74,2.5928,3.7551,3.7551,0,0,1-2.32.87,3.1186,3.1186,0,0,1-1.582-.4483,2.7091,2.7091,0,0,1-1.1426-1.2832,6.7363,6.7363,0,0,1-.3692-2.5752V334.6289h-2.5488v-.58a6.676,6.676,0,0,0,1.9776-1.31,10.4146,10.4146,0,0,0,1.8017-2.1885,19.6969,19.6969,0,0,0,1.125-2.4434Z" transform="translate(-11.2256 -27.5078)"/>
    <path class="cls-3" d="M279.915,333.3984v9.7559a24.483,24.483,0,0,0,.1319,3.4189,1.5317,1.5317,0,0,0,.4219.87,1.0141,1.0141,0,0,0,.6767.2461,3.13,3.13,0,0,0,1.23-.2989l.2461.6153-4.8164,1.9863h-.7911v-3.41a14.67,14.67,0,0,1-3.164,2.83,4.8327,4.8327,0,0,1-2.3027.58,3.68,3.68,0,0,1-2.3467-.7822,4.0451,4.0451,0,0,1-1.38-2.0127,12.167,12.167,0,0,1-.3867-3.4805v-7.1895a3.544,3.544,0,0,0-.2461-1.582,1.6376,1.6376,0,0,0-.7295-.6767,4.2844,4.2844,0,0,0-1.749-.22v-.65h5.6425v10.7754q0,2.25.7823,2.9532a2.7275,2.7275,0,0,0,1.89.7031,3.939,3.939,0,0,0,1.7139-.4746,9.2769,9.2769,0,0,0,2.2763-1.8106v-9.123a2.5834,2.5834,0,0,0-.5009-1.8545,3.2464,3.2464,0,0,0-2.083-.5186v-.65Z" transform="translate(-11.2256 -27.5078)"/>
    <path class="cls-3" d="M288.5107,332.9238v3.6211q2.0216-3.621,4.1485-3.6211a2.2562,2.2562,0,0,1,1.6.5889,1.8109,1.8109,0,0,1,.6328,1.3623,1.61,1.61,0,0,1-.457,1.16,1.4612,1.4612,0,0,1-1.09.4746,2.322,2.322,0,0,1-1.38-.6065,2.278,2.278,0,0,0-1.1337-.6064,1.0468,1.0468,0,0,0-.6856.3515,8.4594,8.4594,0,0,0-1.6348,2.3731v7.7168a4.7782,4.7782,0,0,0,.334,2.0215,1.8214,1.8214,0,0,0,.8086.791,3.5523,3.5523,0,0,0,1.67.3164V349.5h-8.2441v-.6328a3.4227,3.4227,0,0,0,1.8281-.3867,1.501,1.501,0,0,0,.6153-.8965,9.041,9.041,0,0,0,.0879-1.7051v-6.24a25.9248,25.9248,0,0,0-.1143-3.3487,1.3112,1.3112,0,0,0-.4219-.7822,1.1855,1.1855,0,0,0-.7646-.2461,3.4755,3.4755,0,0,0-1.2305.2637l-.1758-.6328,4.8692-1.9688Z" transform="translate(-11.2256 -27.5078)"/>
    <path class="cls-3" d="M298.4951,339.4629a8.27,8.27,0,0,0,1.74,5.625,5.3068,5.3068,0,0,0,4.1308,2.0391,4.48,4.48,0,0,0,2.751-.87,6.4208,6.4208,0,0,0,1.96-2.9795l.545.3516a8.3813,8.3813,0,0,1-2.1446,4.3857,5.7265,5.7265,0,0,1-4.4472,1.9776,6.4942,6.4942,0,0,1-4.9658-2.2588,8.6525,8.6525,0,0,1-2.0655-6.0732,9.1828,9.1828,0,0,1,2.1182-6.4424,6.9082,6.9082,0,0,1,5.3174-2.3115,5.944,5.944,0,0,1,4.4472,1.7841,6.5416,6.5416,0,0,1,1.74,4.7725Zm0-1.0195h7.4531a6.89,6.89,0,0,0-.3691-2.18,3.4906,3.4906,0,0,0-1.31-1.5469,3.3015,3.3015,0,0,0-1.8193-.5625,3.6261,3.6261,0,0,0-2.61,1.1338A4.92,4.92,0,0,0,298.4951,338.4434Z" transform="translate(-11.2256 -27.5078)"/>
  </g>
  <g>
    <path class="cls-3" d="M90.2,89.1191v8.2442h-.65A10.27,10.27,0,0,0,88.416,93.584a5.8978,5.8978,0,0,0-2.3291-2.2324,6.4428,6.4428,0,0,0-3.1289-.8262,4.2558,4.2558,0,0,0-3.0234,1.1162,3.396,3.396,0,0,0-1.1953,2.54,3.0092,3.0092,0,0,0,.7558,1.9864,19.4337,19.4337,0,0,0,5.1856,3.5156,35.8357,35.8357,0,0,1,4.5615,2.751,6.7084,6.7084,0,0,1,1.8808,2.2588,5.95,5.95,0,0,1,.6592,2.7246,6.17,6.17,0,0,1-2.1006,4.667,7.607,7.607,0,0,1-5.4052,1.96,11.44,11.44,0,0,1-1.9512-.1582,19.9068,19.9068,0,0,1-2.2588-.6416,10.13,10.13,0,0,0-2.1709-.5537.92.92,0,0,0-.6943.2637,2.0994,2.0994,0,0,0-.378,1.09h-.65v-8.1738h.65a11.554,11.554,0,0,0,1.2305,3.8408A5.91,5.91,0,0,0,80.418,111.83a7.33,7.33,0,0,0,3.4892.8437,4.9625,4.9625,0,0,0,3.4717-1.16,3.5932,3.5932,0,0,0,1.2744-2.7422,3.7176,3.7176,0,0,0-.4834-1.7754,5.2889,5.2889,0,0,0-1.5029-1.67,43.0706,43.0706,0,0,0-3.7441-2.2412,36.3167,36.3167,0,0,1-4.3506-2.7334,7.3721,7.3721,0,0,1-1.96-2.25,5.582,5.582,0,0,1-.668-2.7071,5.8681,5.8681,0,0,1,1.9688-4.4209,7.0147,7.0147,0,0,1,5.01-1.8545,10.05,10.05,0,0,1,4.0253.9317,4.1407,4.1407,0,0,0,1.3887.4394,1.0475,1.0475,0,0,0,.7471-.2724,2.1759,2.1759,0,0,0,.4658-1.0987Z" transform="translate(-11.2256 -27.5078)"/>
    <path class="cls-3" d="M108.5166,107.3828a8.7221,8.7221,0,0,1-2.5488,4.8955,6.13,6.13,0,0,1-4.2012,1.7139,6.2083,6.2083,0,0,1-4.7812-2.3027,9.0486,9.0486,0,0,1-2.0391-6.2227,8.58,8.58,0,0,1,2.2588-6.17,7.2219,7.2219,0,0,1,5.4228-2.3731,5.9439,5.9439,0,0,1,3.9024,1.2569,3.4763,3.4763,0,0,1,1.5293,2.61,1.43,1.43,0,0,1-.4307,1.0811,1.6686,1.6686,0,0,1-1.2041.4131,1.8722,1.8722,0,0,1-1.5644-.668,2.7773,2.7773,0,0,1-.3956-1.4063,2.3042,2.3042,0,0,0-.7119-1.582,2.537,2.537,0,0,0-1.705-.5273,3.487,3.487,0,0,0-2.83,1.3007,6.9182,6.9182,0,0,0-1.4239,4.5528,9.2177,9.2177,0,0,0,1.4151,5.0888,4.3454,4.3454,0,0,0,3.8232,2.2061,4.6228,4.6228,0,0,0,3.0938-1.1777,7.9483,7.9483,0,0,0,1.8808-2.9356Z" transform="translate(-11.2256 -27.5078)"/>
    <path class="cls-3" d="M113.5264,103.4629a8.27,8.27,0,0,0,1.74,5.625,5.307,5.307,0,0,0,4.1309,2.0391,4.4794,4.4794,0,0,0,2.7509-.87,6.4209,6.4209,0,0,0,1.96-2.98l.5449.3516a8.3811,8.3811,0,0,1-2.1445,4.3857,5.7266,5.7266,0,0,1-4.4473,1.9776,6.4944,6.4944,0,0,1-4.9658-2.2588A8.6529,8.6529,0,0,1,111.03,105.66a9.1828,9.1828,0,0,1,2.1181-6.4424,6.9082,6.9082,0,0,1,5.3174-2.3115,5.9443,5.9443,0,0,1,4.4473,1.7841,6.5419,6.5419,0,0,1,1.74,4.7725Zm0-1.02H120.98a6.89,6.89,0,0,0-.3691-2.18,3.4906,3.4906,0,0,0-1.31-1.5469,3.3018,3.3018,0,0,0-1.8194-.5625,3.626,3.626,0,0,0-2.61,1.1338A4.92,4.92,0,0,0,113.5264,102.4434Z" transform="translate(-11.2256 -27.5078)"/>
    <path class="cls-3" d="M131.4912,100.334q2.83-3.41,5.3965-3.41a3.876,3.876,0,0,1,2.2676.6592,4.4161,4.4161,0,0,1,1.5117,2.1709,10.0428,10.0428,0,0,1,.3867,3.2344v6.873a5.79,5.79,0,0,0,.2461,2.0742,1.444,1.444,0,0,0,.624.6856,3.5359,3.5359,0,0,0,1.5908.2461V113.5h-7.9628v-.6328h.3339a2.68,2.68,0,0,0,1.5733-.3428,1.7972,1.7972,0,0,0,.624-1.0107,10.2688,10.2688,0,0,0,.07-1.6524V103.27a6.6932,6.6932,0,0,0-.5713-3.19,2.04,2.04,0,0,0-1.9248-.9932,5.7959,5.7959,0,0,0-4.166,2.2852v8.49a6.0678,6.0678,0,0,0,.1934,2.0215,1.6262,1.6262,0,0,0,.6767.7471,4.1905,4.1905,0,0,0,1.7491.2373V113.5h-7.9629v-.6328h.3515a1.8918,1.8918,0,0,0,1.6612-.624,4.5535,4.5535,0,0,0,.4306-2.3819v-5.9765a25.9763,25.9763,0,0,0-.1318-3.5332,1.5143,1.5143,0,0,0-.4043-.8614,1.0989,1.0989,0,0,0-.73-.2285,3.3782,3.3782,0,0,0-1.1777.2637l-.2637-.6328,4.8516-1.9688h.7558Z" transform="translate(-11.2256 -27.5078)"/>
    <path class="cls-3" d="M153.9209,111.18a26.5423,26.5423,0,0,1-3.1113,2.2148,4.7535,4.7535,0,0,1-2.0215.44,3.6225,3.6225,0,0,1-2.751-1.1426,4.1941,4.1941,0,0,1-1.081-3.0059,3.8277,3.8277,0,0,1,.5273-2.039,6.9818,6.9818,0,0,1,2.5049-2.25,38.9731,38.9731,0,0,1,5.9326-2.5664v-.6328a5.2492,5.2492,0,0,0-.7647-3.3047,2.76,2.76,0,0,0-2.2236-.8965,2.4968,2.4968,0,0,0-1.7578.5977,1.7982,1.7982,0,0,0-.668,1.371l.0352,1.02a1.7528,1.7528,0,0,1-.4131,1.248,1.415,1.415,0,0,1-1.081.4395,1.3684,1.3684,0,0,1-1.0635-.4571,1.792,1.792,0,0,1-.4131-1.248,3.5965,3.5965,0,0,1,1.5469-2.7773,6.6789,6.6789,0,0,1,4.3418-1.2657,7.5319,7.5319,0,0,1,3.5156.7207,3.3137,3.3137,0,0,1,1.5293,1.7051,9.6092,9.6092,0,0,1,.3164,3.0938V107.91a25.034,25.034,0,0,0,.0879,2.8212,1.1852,1.1852,0,0,0,.29.6944.6891.6891,0,0,0,.4658.1758.9594.9594,0,0,0,.4922-.1231,10.9827,10.9827,0,0,0,1.4239-1.2832v.9844q-1.9687,2.6367-3.7618,2.6367a1.71,1.71,0,0,1-1.3711-.5976A3.2285,3.2285,0,0,1,153.9209,111.18Zm0-1.1426v-6.1348a34.7145,34.7145,0,0,0-3.4277,1.4942,5.92,5.92,0,0,0-1.9864,1.6172,3.1255,3.1255,0,0,0-.5976,1.8457,3.0119,3.0119,0,0,0,.7558,2.1006,2.2906,2.2906,0,0,0,1.74.8349Q151.7412,111.7949,153.9209,110.0371Z" transform="translate(-11.2256 -27.5078)"/>
    <path class="cls-3" d="M165.4873,96.9238v3.6211q2.0215-3.621,4.1484-3.6211a2.2563,2.2563,0,0,1,1.6.5889,1.8112,1.8112,0,0,1,.6328,1.3623,1.61,1.61,0,0,1-.4571,1.16,1.461,1.461,0,0,1-1.09.4746,2.3218,2.3218,0,0,1-1.38-.6065,2.2782,2.2782,0,0,0-1.1338-.6064,1.0468,1.0468,0,0,0-.6855.3515,8.4573,8.4573,0,0,0-1.6348,2.3731v7.7168a4.7767,4.7767,0,0,0,.334,2.0215,1.8209,1.8209,0,0,0,.8086.791,3.5521,3.5521,0,0,0,1.67.3164V113.5h-8.2441v-.6328a3.4227,3.4227,0,0,0,1.8281-.3867,1.5009,1.5009,0,0,0,.6152-.8965,9.041,9.041,0,0,0,.0879-1.7051v-6.24a25.9541,25.9541,0,0,0-.1142-3.3487,1.3112,1.3112,0,0,0-.4219-.7822,1.1857,1.1857,0,0,0-.7647-.2461,3.4755,3.4755,0,0,0-1.23.2637l-.1758-.6328,4.8691-1.9688Z" transform="translate(-11.2256 -27.5078)"/>
    <path class="cls-3" d="M178.3193,96.9238v12.9375a5.9252,5.9252,0,0,0,.22,2.0127,1.5418,1.5418,0,0,0,.65.7471,3.4807,3.4807,0,0,0,1.5732.2461V113.5H172.94v-.6328a3.6423,3.6423,0,0,0,1.5821-.2285,1.5677,1.5677,0,0,0,.6416-.7559,5.6815,5.6815,0,0,0,.2373-2.0215v-6.205a21.9531,21.9531,0,0,0-.1582-3.3926,1.3794,1.3794,0,0,0-.3868-.7823,1.092,1.092,0,0,0-.7207-.22,3.5194,3.5194,0,0,0-1.1953.2637l-.2461-.6328,4.8516-1.9688Zm-1.4589-8.42a1.77,1.77,0,0,1,1.7753,1.7754,1.7406,1.7406,0,0,1-.5185,1.2656,1.6973,1.6973,0,0,1-1.2568.5274,1.7843,1.7843,0,1,1,0-3.5684Z" transform="translate(-11.2256 -27.5078)"/>
    <path class="cls-3" d="M190.6416,96.9238a7.1355,7.1355,0,0,1,5.8711,2.7774,8.5282,8.5282,0,0,1,1.8809,5.4492,10.26,10.26,0,0,1-1.0372,4.3769,7.3654,7.3654,0,0,1-6.9082,4.4649,6.823,6.823,0,0,1-5.7832-2.9,8.9859,8.9859,0,0,1-1.81-5.4844,9.7313,9.7313,0,0,1,1.0986-4.4033,7.5032,7.5032,0,0,1,2.8916-3.2344A7.4194,7.4194,0,0,1,190.6416,96.9238Zm-.5449,1.1426a3.6663,3.6663,0,0,0-1.8721.5537,3.8826,3.8826,0,0,0-1.52,1.9424,9.3472,9.3472,0,0,0-.58,3.5684,12.4316,12.4316,0,0,0,1.3975,6.0644q1.3974,2.5488,3.6826,2.5488a3.4317,3.4317,0,0,0,2.8125-1.4062q1.1074-1.4062,1.1074-4.834a11.0189,11.0189,0,0,0-1.8457-6.75A3.8034,3.8034,0,0,0,190.0967,98.0664Z" transform="translate(-11.2256 -27.5078)"/>
  </g>
  <g>
    <path class="cls-3" d="M339.9434,162.4053a7.6477,7.6477,0,0,1,1.6875-3.709,5.2418,5.2418,0,0,1,3.955-1.7051,5.89,5.89,0,0,1,3.4014,1.125,6.4311,6.4311,0,0,1,2.3731,3.085,17.8958,17.8958,0,0,1,.747,5.9853v11.25h-.65V177.54a2.4113,2.4113,0,0,0-.9492-2.1445,5.4787,5.4787,0,0,0-2.6191-.4043H332.49a4.83,4.83,0,0,0-2.7949.51,2.5824,2.5824,0,0,0-.7734,2.039v.8965h-.65V168.1357a20.341,20.341,0,0,1,.4219-4.623,7.423,7.423,0,0,1,2.2412-4.0254,5.4963,5.4963,0,0,1,3.7-1.3887,5.12,5.12,0,0,1,3.208,1.09A6.3911,6.3911,0,0,1,339.9434,162.4053Zm-.9493,9.2109a13.31,13.31,0,0,0,.1846-1.4853q.0615-.8351.0615-1.837a10.2739,10.2739,0,0,0-.5537-3.8584,4.1355,4.1355,0,0,0-1.6963-1.9775,4.7626,4.7626,0,0,0-2.4961-.6855,4.559,4.559,0,0,0-3.5683,1.705,7.3951,7.3951,0,0,0-1.4766,4.9746,11.939,11.939,0,0,0,.3867,3.1641Zm11.3907,0a17.7149,17.7149,0,0,0,.4746-4.0254,7.2545,7.2545,0,0,0-1.4326-4.8515,4.4861,4.4861,0,0,0-3.542-1.67,5.1922,5.1922,0,0,0-2.6719.7559,5.0649,5.0649,0,0,0-2.0215,2.4609,10.6284,10.6284,0,0,0-.7383,4.2188q0,1.09.0352,1.8633a9.4867,9.4867,0,0,0,.123,1.248Z" transform="translate(-11.2256 -27.5078)"/>
    <path class="cls-3" d="M342.07,151.19a8.27,8.27,0,0,0,5.625-1.74,5.307,5.307,0,0,0,2.0391-4.1309,4.48,4.48,0,0,0-.87-2.7509,6.4219,6.4219,0,0,0-2.98-1.96l.3515-.5449a8.3818,8.3818,0,0,1,4.3858,2.1445,5.7268,5.7268,0,0,1,1.9775,4.4473,6.4944,6.4944,0,0,1-2.2588,4.9658,8.6527,8.6527,0,0,1-6.0732,2.0654,9.1828,9.1828,0,0,1-6.4424-2.1181,6.9082,6.9082,0,0,1-2.3115-5.3174,5.9441,5.9441,0,0,1,1.7842-4.4473,6.5415,6.5415,0,0,1,4.7724-1.74Zm-1.0195,0v-7.4531a6.89,6.89,0,0,0-2.18.3691,3.4906,3.4906,0,0,0-1.5469,1.31,3.3018,3.3018,0,0,0-.5625,1.8194,3.626,3.626,0,0,0,1.1338,2.61A4.92,4.92,0,0,0,341.0508,151.19Z" transform="translate(-11.2256 -27.5078)"/>
    <path class="cls-3" d="M337.2715,131.626h10.582a5.17,5.17,0,0,0,2.8477-.4922,2.1581,2.1581,0,0,0,.7734-1.74v-1.459h.6328V137.55h-.6328v-.7207a2.4281,2.4281,0,0,0-.3516-1.2832,1.8278,1.8278,0,0,0-.9492-.8,7.9415,7.9415,0,0,0-2.32-.22h-10.582v3.1289h-1.2656v-3.1289h-1.0547a9.6643,9.6643,0,0,1-4.0782-.7735,6.3319,6.3319,0,0,1-2.6982-2.3642,6.4479,6.4479,0,0,1-1.0283-3.5772,5.4259,5.4259,0,0,1,1.1953-3.3926,2.2471,2.2471,0,0,1,1.7754-1.0195,1.4062,1.4062,0,0,1,.9932.457,1.3665,1.3665,0,0,1,.4658.9844,1.5811,1.5811,0,0,1-.29.8526,4.6365,4.6365,0,0,1-1.248,1.0986,4.4163,4.4163,0,0,0-1.292,1.1953,2.2749,2.2749,0,0,0-.334,1.2129,2.1888,2.1888,0,0,0,.4307,1.3711,2.4122,2.4122,0,0,0,1.3359.8086,25.0872,25.0872,0,0,0,4.667.2461h1.16v-4.1485h1.2656Z" transform="translate(-11.2256 -27.5078)"/>
    <path class="cls-3" d="M335.5312,118.0557a7.1353,7.1353,0,0,1,2.7774-5.8711,8.5282,8.5282,0,0,1,5.4492-1.8809,10.2617,10.2617,0,0,1,4.377,1.0371A7.3658,7.3658,0,0,1,352.6,118.249a6.8228,6.8228,0,0,1-2.9,5.7832,8.9853,8.9853,0,0,1-5.4844,1.8106,9.73,9.73,0,0,1-4.4033-1.0987,7.5026,7.5026,0,0,1-3.2344-2.8916A7.419,7.419,0,0,1,335.5312,118.0557Zm1.1426.5449a3.6663,3.6663,0,0,0,.5537,1.8721,3.8831,3.8831,0,0,0,1.9424,1.52,9.3477,9.3477,0,0,0,3.5684.58,12.4327,12.4327,0,0,0,6.0644-1.3974q2.5489-1.3975,2.5489-3.6826a3.4315,3.4315,0,0,0-1.4063-2.8125q-1.4062-1.1074-4.834-1.1075a11.02,11.02,0,0,0-6.75,1.8457A3.8036,3.8036,0,0,0,336.6738,118.6006Z" transform="translate(-11.2256 -27.5078)"/>
    <path class="cls-3" d="M335.5312,103.22h3.6211q-3.621-2.0214-3.6211-4.1484a2.2562,2.2562,0,0,1,.5889-1.6,1.8109,1.8109,0,0,1,1.3623-.6328,1.61,1.61,0,0,1,1.16.457,1.4612,1.4612,0,0,1,.4746,1.09,2.3215,2.3215,0,0,1-.6065,1.38,2.2782,2.2782,0,0,0-.6064,1.1338,1.0465,1.0465,0,0,0,.3516.6856,8.4571,8.4571,0,0,0,2.373,1.6347h7.7168a4.7763,4.7763,0,0,0,2.0215-.334,1.82,1.82,0,0,0,.791-.8086,3.5521,3.5521,0,0,0,.3164-1.67h.6328v8.2442h-.6328a3.4234,3.4234,0,0,0-.3867-1.8282,1.501,1.501,0,0,0-.8965-.6152,9.041,9.041,0,0,0-1.7051-.0879h-6.24a25.9217,25.9217,0,0,0-3.3486.1143,1.3107,1.3107,0,0,0-.7823.4219,1.1853,1.1853,0,0,0-.2461.7646,3.476,3.476,0,0,0,.2637,1.23l-.6328.1757-1.9688-4.8691Z" transform="translate(-11.2256 -27.5078)"/>
    <path class="cls-3" d="M342.07,93.2354a8.27,8.27,0,0,0,5.625-1.74,5.3069,5.3069,0,0,0,2.0391-4.1308,4.48,4.48,0,0,0-.87-2.751,6.4227,6.4227,0,0,0-2.98-1.96l.3515-.5449a8.3818,8.3818,0,0,1,4.3858,2.1445A5.7268,5.7268,0,0,1,352.6,88.7a6.4942,6.4942,0,0,1-2.2588,4.9658,8.6522,8.6522,0,0,1-6.0732,2.0654,9.1828,9.1828,0,0,1-6.4424-2.1181,6.9082,6.9082,0,0,1-2.3115-5.3174,5.9441,5.9441,0,0,1,1.7842-4.4473,6.5415,6.5415,0,0,1,4.7724-1.74Zm-1.0195,0V85.7822a6.89,6.89,0,0,0-2.18.3692,3.49,3.49,0,0,0-1.5469,1.31,3.3021,3.3021,0,0,0-.5625,1.8194,3.626,3.626,0,0,0,1.1338,2.61A4.92,4.92,0,0,0,341.0508,93.2354Z" transform="translate(-11.2256 -27.5078)"/>
    <path class="cls-3" d="M344.127,64.6182v9.2285l3.7617,1.6172a5.9561,5.9561,0,0,0,2.0742.5976,1.2048,1.2048,0,0,0,.958-.5185,4.53,4.53,0,0,0,.5361-2.2412h.65v7.5058h-.65a4.0455,4.0455,0,0,0-.6855-1.9336,10.77,10.77,0,0,0-3.4277-1.9863l-19.6172-8.3848v-.6152l19.8281-8.2969a9.0378,9.0378,0,0,0,3.1025-1.8193,3.7088,3.7088,0,0,0,.8-2.2764h.65v9.4043h-.65a3.5244,3.5244,0,0,0-.4746-1.9248,1.2238,1.2238,0,0,0-.9844-.501,7.2875,7.2875,0,0,0-2.4433.7032Zm-1.3008.4922-9.6328,4.0429,9.6328,4.1485Z" transform="translate(-11.2256 -27.5078)"/>
    <path class="cls-3" d="M327.1113,48.4287h21.3575a5.8411,5.8411,0,0,0,2.0039-.22,1.5575,1.5575,0,0,0,.747-.6768,3.89,3.89,0,0,0,.2549-1.7051h.6328V53.72h-.6328a3.4114,3.4114,0,0,0-.2285-1.5117,1.5233,1.5233,0,0,0-.7559-.6328,5.8866,5.8866,0,0,0-2.0214-.2285h-14.625a25.3566,25.3566,0,0,0-3.3487.123,1.4662,1.4662,0,0,0-.8525.3955,1.0435,1.0435,0,0,0-.2285.6944,3.2815,3.2815,0,0,0,.2812,1.16l-.6152.2989L327.1113,49.22Z" transform="translate(-11.2256 -27.5078)"/>
    <path class="cls-3" d="M327.1113,38.4268h21.3575a5.84,5.84,0,0,0,2.0039-.22,1.5573,1.5573,0,0,0,.747-.6767,3.89,3.89,0,0,0,.2549-1.7051h.6328v7.8926h-.6328a3.4114,3.4114,0,0,0-.2285-1.5117,1.5234,1.5234,0,0,0-.7559-.6329,5.8866,5.8866,0,0,0-2.0214-.2285h-14.625a25.33,25.33,0,0,0-3.3487.1231,1.465,1.465,0,0,0-.8525.3955,1.0432,1.0432,0,0,0-.2285.6943,3.2825,3.2825,0,0,0,.2812,1.16l-.6152.2988-1.9688-4.7988Z" transform="translate(-11.2256 -27.5078)"/>
  </g>
  <g>
    <path class="cls-3" d="M370.1318,364.5693v9.2286l3.7618,1.6171a5.9534,5.9534,0,0,0,2.0742.5977,1.2049,1.2049,0,0,0,.958-.5186,4.53,4.53,0,0,0,.5361-2.2412h.65v7.5059h-.65a4.0455,4.0455,0,0,0-.6855-1.9336,10.7659,10.7659,0,0,0-3.4278-1.9863l-19.6172-8.3848v-.6152L373.56,359.542a9.0394,9.0394,0,0,0,3.1025-1.8193,3.7093,3.7093,0,0,0,.8-2.2764h.65v9.4043h-.65a3.5262,3.5262,0,0,0-.4746-1.9248,1.2239,1.2239,0,0,0-.9844-.501,7.2892,7.2892,0,0,0-2.4433.7031Zm-1.3007.4922-9.6329,4.043,9.6329,4.1484Z" transform="translate(-11.2256 -27.5078)"/>
    <path class="cls-3" d="M363.2764,347.624h10.582a5.1692,5.1692,0,0,0,2.8477-.4922,2.158,2.158,0,0,0,.7734-1.74v-1.459h.6328v9.6153H377.48v-.7208a2.4284,2.4284,0,0,0-.3516-1.2832,1.8281,1.8281,0,0,0-.9492-.8,7.9456,7.9456,0,0,0-2.32-.22h-10.582v3.1289h-1.2657v-3.1289h-1.0546a9.6659,9.6659,0,0,1-4.0782-.7734,6.33,6.33,0,0,1-2.6982-2.3643,6.4465,6.4465,0,0,1-1.0283-3.5771,5.4255,5.4255,0,0,1,1.1953-3.3926,2.2468,2.2468,0,0,1,1.7754-1.0195,1.4056,1.4056,0,0,1,.9931.457,1.3661,1.3661,0,0,1,.4659.9844,1.5808,1.5808,0,0,1-.29.8525,4.6381,4.6381,0,0,1-1.248,1.0986,4.4151,4.4151,0,0,0-1.292,1.1954,2.2743,2.2743,0,0,0-.334,1.2128,2.1882,2.1882,0,0,0,.4307,1.3711,2.4116,2.4116,0,0,0,1.3359.8086,25.0778,25.0778,0,0,0,4.667.2461h1.16v-4.1484h1.2657Z" transform="translate(-11.2256 -27.5078)"/>
    <path class="cls-3" d="M356.72,337.2529h5.291v-3.7617h1.2305v3.7617h10.4414a3.507,3.507,0,0,0,2.1094-.4482,1.4237,1.4237,0,0,0,.5449-1.1514,2.0141,2.0141,0,0,0-.36-1.125,2.3177,2.3177,0,0,0-1.0635-.8437v-.6856a5.516,5.516,0,0,1,2.5928,1.74,3.7551,3.7551,0,0,1,.87,2.32,3.1188,3.1188,0,0,1-.4483,1.582,2.71,2.71,0,0,1-1.2832,1.1426,6.7367,6.7367,0,0,1-2.5752.3691H363.2412v2.5488h-.58a6.6744,6.6744,0,0,0-1.3095-1.9775,10.4146,10.4146,0,0,0-2.1885-1.8017,19.6666,19.6666,0,0,0-2.4434-1.125Z" transform="translate(-11.2256 -27.5078)"/>
    <path class="cls-3" d="M368.0752,329.22a8.27,8.27,0,0,0,5.625-1.74,5.307,5.307,0,0,0,2.0391-4.1309,4.4792,4.4792,0,0,0-.87-2.7509,6.4209,6.4209,0,0,0-2.98-1.96l.3516-.5449a8.3818,8.3818,0,0,1,4.3858,2.1445,5.7268,5.7268,0,0,1,1.9775,4.4473,6.4944,6.4944,0,0,1-2.2588,4.9658,8.6529,8.6529,0,0,1-6.0732,2.0654,9.1828,9.1828,0,0,1-6.4424-2.1181,6.9083,6.9083,0,0,1-2.3115-5.3174,5.9443,5.9443,0,0,1,1.7841-4.4473,6.5419,6.5419,0,0,1,4.7725-1.74Zm-1.0195,0v-7.4531a6.89,6.89,0,0,0-2.18.3691,3.4906,3.4906,0,0,0-1.5469,1.31,3.3017,3.3017,0,0,0-.5625,1.8193,3.6261,3.6261,0,0,0,1.1338,2.61A4.92,4.92,0,0,0,367.0557,329.22Z" transform="translate(-11.2256 -27.5078)"/>
    <path class="cls-3" d="M361.5361,311.2373h3.6211q-3.621-2.0216-3.6211-4.1484a2.2559,2.2559,0,0,1,.5889-1.6,1.811,1.811,0,0,1,1.3623-.6329,1.61,1.61,0,0,1,1.16.4571,1.461,1.461,0,0,1,.4746,1.09,2.3218,2.3218,0,0,1-.6065,1.38,2.2782,2.2782,0,0,0-.6064,1.1338,1.0468,1.0468,0,0,0,.3515.6855,8.4573,8.4573,0,0,0,2.3731,1.6348h7.7168a4.7767,4.7767,0,0,0,2.0215-.334,1.8209,1.8209,0,0,0,.791-.8086,3.5521,3.5521,0,0,0,.3164-1.67h.6328v8.2441H377.48a3.423,3.423,0,0,0-.3867-1.8281,1.5013,1.5013,0,0,0-.8965-.6152,9.041,9.041,0,0,0-1.7051-.0879h-6.24a25.9248,25.9248,0,0,0-3.3487.1143,1.3111,1.3111,0,0,0-.7822.4218,1.1857,1.1857,0,0,0-.2461.7647,3.475,3.475,0,0,0,.2637,1.23l-.6328.1758-1.9688-4.8691Z" transform="translate(-11.2256 -27.5078)"/>
    <path class="cls-3" d="M370.1318,288.6143v9.2285l3.7618,1.6172a5.9549,5.9549,0,0,0,2.0742.5976,1.2048,1.2048,0,0,0,.958-.5185,4.53,4.53,0,0,0,.5361-2.2412h.65v7.5058h-.65a4.0455,4.0455,0,0,0-.6855-1.9336,10.77,10.77,0,0,0-3.4278-1.9863l-19.6172-8.3848v-.6152l19.8282-8.2969a9.0394,9.0394,0,0,0,3.1025-1.8193,3.7088,3.7088,0,0,0,.8-2.2764h.65v9.4043h-.65a3.5262,3.5262,0,0,0-.4746-1.9248,1.2239,1.2239,0,0,0-.9844-.501,7.2875,7.2875,0,0,0-2.4433.7032Zm-1.3007.4921-9.6329,4.043,9.6329,4.1485Z" transform="translate(-11.2256 -27.5078)"/>
    <path class="cls-3" d="M353.1162,272.4248h21.3574a5.8408,5.8408,0,0,0,2.0039-.22,1.5573,1.5573,0,0,0,.7471-.6768,3.89,3.89,0,0,0,.2549-1.7051h.6328v7.8926H377.48a3.4114,3.4114,0,0,0-.2285-1.5117,1.5237,1.5237,0,0,0-.7559-.6328,5.8843,5.8843,0,0,0-2.0215-.2285h-14.625a25.3557,25.3557,0,0,0-3.3486.123,1.4662,1.4662,0,0,0-.8525.3955,1.0436,1.0436,0,0,0-.2286.6944,3.282,3.282,0,0,0,.2813,1.16l-.6152.2988-1.9688-4.7988Z" transform="translate(-11.2256 -27.5078)"/>
    <path class="cls-3" d="M353.1162,262.4229h21.3574a5.84,5.84,0,0,0,2.0039-.22,1.5571,1.5571,0,0,0,.7471-.6767,3.89,3.89,0,0,0,.2549-1.7051h.6328v7.8926H377.48a3.4122,3.4122,0,0,0-.2285-1.5118,1.5242,1.5242,0,0,0-.7559-.6328,5.8869,5.8869,0,0,0-2.0215-.2285h-14.625a25.329,25.329,0,0,0-3.3486.1231,1.465,1.465,0,0,0-.8525.3955,1.0433,1.0433,0,0,0-.2286.6943,3.283,3.283,0,0,0,.2813,1.16l-.6152.2988-1.9688-4.7988Z" transform="translate(-11.2256 -27.5078)"/>
  </g>
  <g>
    <path class="cls-3" d="M399.165,175.52h-9.2285l-1.6172,3.7618a5.9549,5.9549,0,0,0-.5976,2.0742,1.2048,1.2048,0,0,0,.5185.958,4.53,4.53,0,0,0,2.2412.5361v.65h-7.5058v-.65a4.0455,4.0455,0,0,0,1.9336-.6855,10.77,10.77,0,0,0,1.9863-3.4278l8.3848-19.6172h.6152l8.2969,19.8282a9.0394,9.0394,0,0,0,1.8193,3.1025,3.7088,3.7088,0,0,0,2.2764.8v.65h-9.4043v-.65a3.5262,3.5262,0,0,0,1.9248-.4746,1.2239,1.2239,0,0,0,.501-.9844,7.2869,7.2869,0,0,0-.7032-2.4433Zm-.4921-1.3007-4.043-9.6329-4.1485,9.6329Z" transform="translate(-11.2256 -27.5078)"/>
    <path class="cls-3" d="M416.11,168.6641v10.582a5.17,5.17,0,0,0,.4921,2.8477,2.1582,2.1582,0,0,0,1.74.7734h1.459V183.5h-9.6153v-.6328h.7207a2.4278,2.4278,0,0,0,1.2832-.3516,1.8277,1.8277,0,0,0,.8-.9492,7.9409,7.9409,0,0,0,.22-2.32v-10.582h-3.1289v-1.2657H413.21v-1.0546a9.6659,9.6659,0,0,1,.7734-4.0782,6.33,6.33,0,0,1,2.3643-2.6982,6.4465,6.4465,0,0,1,3.5771-1.0283,5.4257,5.4257,0,0,1,3.3926,1.1953,2.2468,2.2468,0,0,1,1.0195,1.7754,1.4056,1.4056,0,0,1-.457.9931,1.3661,1.3661,0,0,1-.9844.4659,1.5808,1.5808,0,0,1-.8525-.29,4.6363,4.6363,0,0,1-1.0987-1.248,4.415,4.415,0,0,0-1.1953-1.292,2.2749,2.2749,0,0,0-1.2129-.334,2.1884,2.1884,0,0,0-1.3711.4307,2.4122,2.4122,0,0,0-.8086,1.3359,25.091,25.091,0,0,0-.246,4.667v1.16h4.1484v1.2657Z" transform="translate(-11.2256 -27.5078)"/>
    <path class="cls-3" d="M426.4814,162.1074v5.291h3.7618v1.23h-3.7618V179.07a3.5069,3.5069,0,0,0,.4483,2.1094,1.4237,1.4237,0,0,0,1.1514.5449,2.0141,2.0141,0,0,0,1.125-.36,2.3183,2.3183,0,0,0,.8437-1.0635h.6856a5.516,5.516,0,0,1-1.74,2.5928,3.7551,3.7551,0,0,1-2.32.87,3.1186,3.1186,0,0,1-1.582-.4483,2.7091,2.7091,0,0,1-1.1426-1.2832,6.7367,6.7367,0,0,1-.3691-2.5752V168.6289h-2.5489v-.58a6.6747,6.6747,0,0,0,1.9776-1.31,10.4146,10.4146,0,0,0,1.8017-2.1885,19.6666,19.6666,0,0,0,1.125-2.4434Z" transform="translate(-11.2256 -27.5078)"/>
    <path class="cls-3" d="M434.5146,173.4629a8.27,8.27,0,0,0,1.74,5.625,5.3069,5.3069,0,0,0,4.1308,2.0391,4.48,4.48,0,0,0,2.751-.87,6.4216,6.4216,0,0,0,1.96-2.98l.5449.3516a8.3811,8.3811,0,0,1-2.1445,4.3857,5.7266,5.7266,0,0,1-4.4473,1.9776,6.4942,6.4942,0,0,1-4.9658-2.2588,8.6524,8.6524,0,0,1-2.0654-6.0732,9.1828,9.1828,0,0,1,2.1181-6.4424,6.9082,6.9082,0,0,1,5.3174-2.3115,5.9443,5.9443,0,0,1,4.4473,1.7841,6.5419,6.5419,0,0,1,1.74,4.7725Zm0-1.0195h7.4532a6.8892,6.8892,0,0,0-.3692-2.18,3.49,3.49,0,0,0-1.3095-1.5469,3.3021,3.3021,0,0,0-1.8194-.5625,3.626,3.626,0,0,0-2.61,1.1338A4.92,4.92,0,0,0,434.5146,172.4434Z" transform="translate(-11.2256 -27.5078)"/>
    <path class="cls-3" d="M452.4971,166.9238v3.6211q2.0214-3.621,4.1484-3.6211a2.2562,2.2562,0,0,1,1.6.5889,1.8109,1.8109,0,0,1,.6328,1.3623,1.61,1.61,0,0,1-.457,1.16,1.4612,1.4612,0,0,1-1.09.4746,2.3215,2.3215,0,0,1-1.38-.6065,2.2782,2.2782,0,0,0-1.1338-.6064,1.0468,1.0468,0,0,0-.6856.3515,8.4594,8.4594,0,0,0-1.6347,2.3731v7.7168a4.7767,4.7767,0,0,0,.334,2.0215,1.8207,1.8207,0,0,0,.8085.791,3.5528,3.5528,0,0,0,1.67.3164V183.5h-8.2442v-.6328a3.4234,3.4234,0,0,0,1.8282-.3867,1.5013,1.5013,0,0,0,.6152-.8965,9.041,9.041,0,0,0,.0879-1.7051v-6.24a25.9248,25.9248,0,0,0-.1143-3.3487,1.3112,1.3112,0,0,0-.4219-.7822,1.1853,1.1853,0,0,0-.7646-.2461,3.476,3.476,0,0,0-1.2305.2637l-.1758-.6328,4.8692-1.9688Z" transform="translate(-11.2256 -27.5078)"/>
  </g>
  <g>
    <path class="cls-3" d="M53.3232,241.3359a7.65,7.65,0,0,1,3.709,1.6875,5.2422,5.2422,0,0,1,1.7051,3.9551,5.89,5.89,0,0,1-1.125,3.4014,6.43,6.43,0,0,1-3.085,2.373,17.8927,17.8927,0,0,1-5.9853.7471H37.292v-.65h.8965A2.4113,2.4113,0,0,0,40.333,251.9a5.4789,5.4789,0,0,0,.4043-2.6191V233.8828a4.83,4.83,0,0,0-.51-2.7949,2.5824,2.5824,0,0,0-2.039-.7734H37.292v-.65H47.5928a20.347,20.347,0,0,1,4.623.4218,7.4242,7.4242,0,0,1,4.0254,2.2412,5.4967,5.4967,0,0,1,1.3887,3.7,5.12,5.12,0,0,1-1.09,3.2081A6.39,6.39,0,0,1,53.3232,241.3359Zm-9.2109-.9492a13.3085,13.3085,0,0,0,1.4854.1846q.8349.0615,1.8369.0615a10.276,10.276,0,0,0,3.8584-.5537,4.1361,4.1361,0,0,0,1.9775-1.6963,4.7627,4.7627,0,0,0,.6856-2.4961,4.559,4.559,0,0,0-1.7051-3.5683,7.3948,7.3948,0,0,0-4.9746-1.4766,11.939,11.939,0,0,0-3.1641.3867Zm0,11.3906a17.71,17.71,0,0,0,4.0254.4747,7.2545,7.2545,0,0,0,4.8516-1.4327,4.4861,4.4861,0,0,0,1.67-3.542,5.1918,5.1918,0,0,0-.7559-2.6718,5.0649,5.0649,0,0,0-2.4609-2.0215,10.628,10.628,0,0,0-4.2188-.7383q-1.09,0-1.8632.0352a9.4866,9.4866,0,0,0-1.2481.123Z" transform="translate(-11.2256 -27.5078)"/>
    <path class="cls-3" d="M64.5381,243.4629a8.27,8.27,0,0,0,1.74,5.625,5.307,5.307,0,0,0,4.1309,2.0391,4.48,4.48,0,0,0,2.751-.87,6.4208,6.4208,0,0,0,1.96-2.98l.5449.3516a8.3811,8.3811,0,0,1-2.1445,4.3857,5.7266,5.7266,0,0,1-4.4473,1.9776,6.4944,6.4944,0,0,1-4.9658-2.2588A8.6529,8.6529,0,0,1,62.042,245.66a9.1824,9.1824,0,0,1,2.1182-6.4424,6.908,6.908,0,0,1,5.3173-2.3115,5.9443,5.9443,0,0,1,4.4473,1.7841,6.5415,6.5415,0,0,1,1.74,4.7725Zm0-1.0195h7.4531a6.89,6.89,0,0,0-.3691-2.18,3.4906,3.4906,0,0,0-1.31-1.5469,3.3017,3.3017,0,0,0-1.8193-.5625,3.6261,3.6261,0,0,0-2.61,1.1338A4.92,4.92,0,0,0,64.5381,242.4434Z" transform="translate(-11.2256 -27.5078)"/>
    <path class="cls-3" d="M84.1025,238.6641v10.582a5.17,5.17,0,0,0,.4922,2.8477,2.1582,2.1582,0,0,0,1.74.7734h1.4589V253.5H78.1787v-.6328h.7207a2.4278,2.4278,0,0,0,1.2832-.3516,1.8281,1.8281,0,0,0,.8-.9492,7.942,7.942,0,0,0,.22-2.32v-10.582H78.0732v-1.2657h3.1289v-1.0546a9.6658,9.6658,0,0,1,.7735-4.0782,6.3308,6.3308,0,0,1,2.3642-2.6982,6.4471,6.4471,0,0,1,3.5772-1.0283,5.4257,5.4257,0,0,1,3.3926,1.1953,2.2468,2.2468,0,0,1,1.0195,1.7754,1.4056,1.4056,0,0,1-.457.9931,1.3661,1.3661,0,0,1-.9844.4659,1.5808,1.5808,0,0,1-.8525-.29,4.6363,4.6363,0,0,1-1.0987-1.248,4.415,4.415,0,0,0-1.1953-1.292,2.2749,2.2749,0,0,0-1.2129-.334,2.1884,2.1884,0,0,0-1.3711.4307,2.4122,2.4122,0,0,0-.8086,1.3359,25.0872,25.0872,0,0,0-.2461,4.667v1.16H88.251v1.2657Z" transform="translate(-11.2256 -27.5078)"/>
    <path class="cls-3" d="M97.6729,236.9238a7.1352,7.1352,0,0,1,5.871,2.7774,8.5276,8.5276,0,0,1,1.8809,5.4492,10.261,10.261,0,0,1-1.0371,4.3769,7.3657,7.3657,0,0,1-6.9082,4.4649,6.8228,6.8228,0,0,1-5.7832-2.9,8.986,8.986,0,0,1-1.8106-5.4844,9.7315,9.7315,0,0,1,1.0987-4.4033A7.5032,7.5032,0,0,1,93.876,237.97,7.4191,7.4191,0,0,1,97.6729,236.9238Zm-.545,1.1426a3.6656,3.6656,0,0,0-1.872.5537,3.882,3.882,0,0,0-1.52,1.9424,9.3453,9.3453,0,0,0-.58,3.5684,12.4327,12.4327,0,0,0,1.3974,6.0644q1.3975,2.5488,3.6827,2.5488a3.4317,3.4317,0,0,0,2.8125-1.4062q1.1073-1.4062,1.1074-4.834a11.02,11.02,0,0,0-1.8457-6.75A3.8036,3.8036,0,0,0,97.1279,238.0664Z" transform="translate(-11.2256 -27.5078)"/>
    <path class="cls-3" d="M112.5088,236.9238v3.6211q2.0214-3.621,4.1484-3.6211a2.2559,2.2559,0,0,1,1.6.5889,1.8109,1.8109,0,0,1,.6328,1.3623,1.61,1.61,0,0,1-.457,1.16,1.4612,1.4612,0,0,1-1.09.4746,2.3218,2.3218,0,0,1-1.38-.6065,2.2782,2.2782,0,0,0-1.1338-.6064,1.0466,1.0466,0,0,0-.6855.3515,8.4573,8.4573,0,0,0-1.6348,2.3731v7.7168a4.7767,4.7767,0,0,0,.334,2.0215,1.82,1.82,0,0,0,.8086.791,3.5521,3.5521,0,0,0,1.67.3164V253.5h-8.2442v-.6328a3.4231,3.4231,0,0,0,1.8282-.3867,1.5013,1.5013,0,0,0,.6152-.8965,9.041,9.041,0,0,0,.0879-1.7051v-6.24a25.9248,25.9248,0,0,0-.1143-3.3487,1.3111,1.3111,0,0,0-.4218-.7822,1.1857,1.1857,0,0,0-.7647-.2461,3.476,3.476,0,0,0-1.23.2637l-.1757-.6328,4.8691-1.9688Z" transform="translate(-11.2256 -27.5078)"/>
    <path class="cls-3" d="M122.4932,243.4629a8.27,8.27,0,0,0,1.74,5.625,5.307,5.307,0,0,0,4.1309,2.0391,4.4794,4.4794,0,0,0,2.7509-.87,6.4209,6.4209,0,0,0,1.96-2.98l.5449.3516a8.3811,8.3811,0,0,1-2.1445,4.3857,5.7266,5.7266,0,0,1-4.4473,1.9776,6.4944,6.4944,0,0,1-4.9658-2.2588,8.6524,8.6524,0,0,1-2.0654-6.0732,9.1828,9.1828,0,0,1,2.1181-6.4424,6.9082,6.9082,0,0,1,5.3174-2.3115A5.9443,5.9443,0,0,1,131.88,238.69a6.5419,6.5419,0,0,1,1.74,4.7725Zm0-1.0195h7.4531a6.8892,6.8892,0,0,0-.3692-2.18,3.49,3.49,0,0,0-1.31-1.5469,3.3018,3.3018,0,0,0-1.8194-.5625,3.626,3.626,0,0,0-2.61,1.1338A4.92,4.92,0,0,0,122.4932,242.4434Z" transform="translate(-11.2256 -27.5078)"/>
  </g>
  <g>
    <path class="cls-4" d="M228.2314,99.1758q2.3379-3.252,5.045-3.252a5.5822,5.5822,0,0,1,4.3242,2.1182,8.5165,8.5165,0,0,1,1.8457,5.792,8.94,8.94,0,0,1-2.8477,6.9082,7.8553,7.8553,0,0,1-5.4492,2.25,8.5752,8.5752,0,0,1-2.8564-.51,13.1071,13.1071,0,0,1-2.9619-1.5293V94.2715a24.091,24.091,0,0,0-.1319-3.375,1.478,1.478,0,0,0-.4131-.8613,1.0784,1.0784,0,0,0-.7031-.2286,3.6083,3.6083,0,0,0-1.2305.2813l-.2461-.6152,4.834-1.9688h.791Zm0,1.125v9.6328a6.773,6.773,0,0,0,1.8545,1.3271,4.5783,4.5783,0,0,0,1.96.4483,3.85,3.85,0,0,0,2.98-1.7578,8.149,8.149,0,0,0,1.38-5.1153,7.2557,7.2557,0,0,0-1.38-4.7548,4.0233,4.0233,0,0,0-3.1377-1.6612,4.0732,4.0732,0,0,0-1.8633.4746A8.0813,8.0813,0,0,0,228.2314,100.3008Z" transform="translate(-11.2256 -27.5078)"/>
    <path class="cls-4" d="M244.5264,102.4629a8.27,8.27,0,0,0,1.74,5.625,5.307,5.307,0,0,0,4.1309,2.0391,4.4794,4.4794,0,0,0,2.7509-.87,6.4209,6.4209,0,0,0,1.96-2.98l.5449.3516a8.3811,8.3811,0,0,1-2.1445,4.3857,5.7266,5.7266,0,0,1-4.4473,1.9776,6.4944,6.4944,0,0,1-4.9658-2.2588A8.6529,8.6529,0,0,1,242.03,104.66a9.1828,9.1828,0,0,1,2.1181-6.4424,6.9082,6.9082,0,0,1,5.3174-2.3115,5.9443,5.9443,0,0,1,4.4473,1.7841,6.5419,6.5419,0,0,1,1.74,4.7725Zm0-1.02H251.98a6.89,6.89,0,0,0-.3691-2.18,3.4906,3.4906,0,0,0-1.31-1.5469,3.3018,3.3018,0,0,0-1.8194-.5625,3.626,3.626,0,0,0-2.61,1.1338A4.92,4.92,0,0,0,244.5264,101.4434Z" transform="translate(-11.2256 -27.5078)"/>
    <path class="cls-4" d="M264.0908,97.6641v10.582a5.17,5.17,0,0,0,.4922,2.8477,2.1581,2.1581,0,0,0,1.74.7734h1.459V112.5H258.167v-.6328h.7207a2.4281,2.4281,0,0,0,1.2832-.3516,1.8281,1.8281,0,0,0,.8-.9492,7.942,7.942,0,0,0,.22-2.32V97.6641h-3.1289V96.3984H261.19V95.3438a9.6643,9.6643,0,0,1,.7735-4.0782,6.3308,6.3308,0,0,1,2.3642-2.6982,6.4471,6.4471,0,0,1,3.5772-1.0283,5.4259,5.4259,0,0,1,3.3926,1.1953,2.2471,2.2471,0,0,1,1.0195,1.7754,1.406,1.406,0,0,1-.457.9931,1.3662,1.3662,0,0,1-.9844.4659,1.5811,1.5811,0,0,1-.8526-.29,4.6381,4.6381,0,0,1-1.0986-1.248,4.415,4.415,0,0,0-1.1953-1.292,2.2749,2.2749,0,0,0-1.2129-.334,2.1882,2.1882,0,0,0-1.3711.4307,2.4122,2.4122,0,0,0-.8086,1.3359,25.0872,25.0872,0,0,0-.2461,4.667v1.16h4.1485v1.2657Z" transform="translate(-11.2256 -27.5078)"/>
    <path class="cls-4" d="M277.6611,95.9238a7.1353,7.1353,0,0,1,5.8711,2.7774,8.5282,8.5282,0,0,1,1.8809,5.4492,10.261,10.261,0,0,1-1.0371,4.3769,7.3657,7.3657,0,0,1-6.9082,4.4649,6.8228,6.8228,0,0,1-5.7832-2.9,8.9853,8.9853,0,0,1-1.8106-5.4844,9.73,9.73,0,0,1,1.0987-4.4033,7.5026,7.5026,0,0,1,2.8916-3.2344A7.419,7.419,0,0,1,277.6611,95.9238Zm-.5449,1.1426a3.6663,3.6663,0,0,0-1.8721.5537,3.8831,3.8831,0,0,0-1.5205,1.9424,9.3474,9.3474,0,0,0-.58,3.5684,12.4327,12.4327,0,0,0,1.3974,6.0644q1.3975,2.5488,3.6826,2.5488a3.4314,3.4314,0,0,0,2.8125-1.4062q1.1075-1.4062,1.1075-4.834a11.02,11.02,0,0,0-1.8457-6.75A3.8036,3.8036,0,0,0,277.1162,97.0664Z" transform="translate(-11.2256 -27.5078)"/>
    <path class="cls-4" d="M292.4971,95.9238v3.6211q2.0214-3.621,4.1484-3.6211a2.2562,2.2562,0,0,1,1.6.5889,1.8109,1.8109,0,0,1,.6328,1.3623,1.61,1.61,0,0,1-.457,1.16,1.4612,1.4612,0,0,1-1.09.4746,2.3215,2.3215,0,0,1-1.38-.6065,2.2782,2.2782,0,0,0-1.1338-.6064,1.0468,1.0468,0,0,0-.6856.3515,8.4594,8.4594,0,0,0-1.6347,2.3731v7.7168a4.7767,4.7767,0,0,0,.334,2.0215,1.8207,1.8207,0,0,0,.8085.791,3.5528,3.5528,0,0,0,1.67.3164V112.5h-8.2442v-.6328a3.4234,3.4234,0,0,0,1.8282-.3867,1.5013,1.5013,0,0,0,.6152-.8965,9.041,9.041,0,0,0,.0879-1.7051v-6.24a25.9248,25.9248,0,0,0-.1143-3.3487,1.3112,1.3112,0,0,0-.4219-.7822,1.1853,1.1853,0,0,0-.7646-.2461,3.476,3.476,0,0,0-1.2305.2637l-.1758-.6328,4.8692-1.9688Z" transform="translate(-11.2256 -27.5078)"/>
    <path class="cls-4" d="M302.4814,102.4629a8.27,8.27,0,0,0,1.74,5.625,5.3069,5.3069,0,0,0,4.1308,2.0391,4.48,4.48,0,0,0,2.751-.87,6.4216,6.4216,0,0,0,1.96-2.98l.5449.3516a8.3811,8.3811,0,0,1-2.1445,4.3857,5.7266,5.7266,0,0,1-4.4473,1.9776,6.4942,6.4942,0,0,1-4.9658-2.2588,8.6524,8.6524,0,0,1-2.0654-6.0732,9.1828,9.1828,0,0,1,2.1181-6.4424,6.9082,6.9082,0,0,1,5.3174-2.3115,5.9443,5.9443,0,0,1,4.4473,1.7841,6.5419,6.5419,0,0,1,1.74,4.7725Zm0-1.02h7.4532a6.8892,6.8892,0,0,0-.3692-2.18,3.49,3.49,0,0,0-1.31-1.5469,3.3021,3.3021,0,0,0-1.8194-.5625,3.626,3.626,0,0,0-2.61,1.1338A4.92,4.92,0,0,0,302.4814,101.4434Z" transform="translate(-11.2256 -27.5078)"/>
  </g>
  <g>
    <path class="cls-4" d="M83.9424,296.18a26.5513,26.5513,0,0,1-3.1113,2.2148,4.7538,4.7538,0,0,1-2.0215.44,3.6225,3.6225,0,0,1-2.751-1.1426,4.1942,4.1942,0,0,1-1.0811-3.0059,3.8278,3.8278,0,0,1,.5274-2.039,6.9818,6.9818,0,0,1,2.5049-2.25,38.9731,38.9731,0,0,1,5.9326-2.5664v-.6328a5.2492,5.2492,0,0,0-.7647-3.3047,2.76,2.76,0,0,0-2.2236-.8965,2.4968,2.4968,0,0,0-1.7578.5977,1.7982,1.7982,0,0,0-.668,1.371l.0352,1.02a1.7528,1.7528,0,0,1-.4131,1.248,1.4153,1.4153,0,0,1-1.0811.44,1.368,1.368,0,0,1-1.0634-.4571,1.792,1.792,0,0,1-.4131-1.248A3.5966,3.5966,0,0,1,77.14,283.19a6.6793,6.6793,0,0,1,4.3418-1.2657,7.5321,7.5321,0,0,1,3.5157.7207,3.3141,3.3141,0,0,1,1.5293,1.7051,9.6092,9.6092,0,0,1,.3164,3.0938V292.91a25.034,25.034,0,0,0,.0879,2.8212,1.1846,1.1846,0,0,0,.29.6944.6889.6889,0,0,0,.4658.1758.9594.9594,0,0,0,.4922-.1231,10.9775,10.9775,0,0,0,1.4238-1.2832v.9844q-1.9687,2.6367-3.7617,2.6367a1.71,1.71,0,0,1-1.3711-.5976A3.2285,3.2285,0,0,1,83.9424,296.18Zm0-1.1426v-6.1348a34.7316,34.7316,0,0,0-3.4278,1.4942,5.9208,5.9208,0,0,0-1.9863,1.6172,3.1255,3.1255,0,0,0-.5976,1.8457,3.0119,3.0119,0,0,0,.7558,2.1006,2.2906,2.2906,0,0,0,1.74.8349Q81.7627,296.7949,83.9424,295.0371Z" transform="translate(-11.2256 -27.5078)"/>
    <path class="cls-4" d="M97.0908,283.6641v10.582a5.17,5.17,0,0,0,.4922,2.8477,2.1581,2.1581,0,0,0,1.74.7734h1.459V298.5H91.167v-.6328h.7207a2.4281,2.4281,0,0,0,1.2832-.3516,1.8281,1.8281,0,0,0,.8-.9492,7.942,7.942,0,0,0,.22-2.32v-10.582H91.0615v-1.2657H94.19v-1.0546a9.6643,9.6643,0,0,1,.7735-4.0782,6.3308,6.3308,0,0,1,2.3642-2.6982,6.4471,6.4471,0,0,1,3.5772-1.0283,5.4259,5.4259,0,0,1,3.3926,1.1953,2.2471,2.2471,0,0,1,1.02,1.7754,1.406,1.406,0,0,1-.457.9931,1.3662,1.3662,0,0,1-.9844.4659,1.5811,1.5811,0,0,1-.8526-.29,4.6381,4.6381,0,0,1-1.0986-1.248,4.415,4.415,0,0,0-1.1953-1.292,2.2749,2.2749,0,0,0-1.2129-.334,2.1882,2.1882,0,0,0-1.3711.4307,2.4122,2.4122,0,0,0-.8086,1.3359,25.0872,25.0872,0,0,0-.2461,4.667v1.16h4.1485v1.2657Z" transform="translate(-11.2256 -27.5078)"/>
    <path class="cls-4" d="M107.4619,277.1074v5.291h3.7617v1.2305h-3.7617V294.07a3.5061,3.5061,0,0,0,.4483,2.1094,1.4236,1.4236,0,0,0,1.1513.5449,2.0141,2.0141,0,0,0,1.125-.36,2.3178,2.3178,0,0,0,.8438-1.0635h.6855a5.5152,5.5152,0,0,1-1.74,2.5928,3.7553,3.7553,0,0,1-2.32.87,3.1192,3.1192,0,0,1-1.5821-.4483,2.7094,2.7094,0,0,1-1.1425-1.2832,6.7363,6.7363,0,0,1-.3692-2.5752V283.6289h-2.5488v-.58a6.6744,6.6744,0,0,0,1.9775-1.31,10.415,10.415,0,0,0,1.8018-2.1885,19.6969,19.6969,0,0,0,1.125-2.4434Z" transform="translate(-11.2256 -27.5078)"/>
    <path class="cls-4" d="M115.4951,288.4629a8.27,8.27,0,0,0,1.74,5.625,5.3068,5.3068,0,0,0,4.1308,2.0391,4.48,4.48,0,0,0,2.751-.87,6.4208,6.4208,0,0,0,1.96-2.9795l.545.3516a8.3813,8.3813,0,0,1-2.1446,4.3857,5.7265,5.7265,0,0,1-4.4472,1.9776,6.4942,6.4942,0,0,1-4.9658-2.2588,8.6525,8.6525,0,0,1-2.0655-6.0732,9.1828,9.1828,0,0,1,2.1182-6.4424,6.9082,6.9082,0,0,1,5.3174-2.3115,5.944,5.944,0,0,1,4.4472,1.7841,6.5416,6.5416,0,0,1,1.74,4.7725Zm0-1.0195h7.4531a6.89,6.89,0,0,0-.3691-2.18,3.4906,3.4906,0,0,0-1.31-1.5469,3.3015,3.3015,0,0,0-1.8193-.5625,3.6261,3.6261,0,0,0-2.61,1.1338A4.92,4.92,0,0,0,115.4951,287.4434Z" transform="translate(-11.2256 -27.5078)"/>
    <path class="cls-4" d="M133.4775,281.9238v3.6211q2.0216-3.621,4.1485-3.6211a2.2562,2.2562,0,0,1,1.6.5889,1.8109,1.8109,0,0,1,.6328,1.3623,1.61,1.61,0,0,1-.457,1.16,1.4612,1.4612,0,0,1-1.09.4746,2.322,2.322,0,0,1-1.38-.6065,2.278,2.278,0,0,0-1.1337-.6064,1.0468,1.0468,0,0,0-.6856.3515,8.4594,8.4594,0,0,0-1.6348,2.3731v7.7168a4.7782,4.7782,0,0,0,.334,2.0215,1.8214,1.8214,0,0,0,.8086.791,3.5523,3.5523,0,0,0,1.67.3164V298.5h-8.2441v-.6328a3.4227,3.4227,0,0,0,1.8281-.3867,1.501,1.501,0,0,0,.6153-.8965,9.045,9.045,0,0,0,.0878-1.7051v-6.24a25.9339,25.9339,0,0,0-.1142-3.3487,1.3112,1.3112,0,0,0-.4219-.7822,1.1855,1.1855,0,0,0-.7646-.2461,3.4755,3.4755,0,0,0-1.2305.2637l-.1758-.6328,4.8692-1.9688Z" transform="translate(-11.2256 -27.5078)"/>
  </g>
  <g>
    <path class="cls-4" d="M164.6963,380.4092q-3.252-2.3379-3.252-5.0449a5.5823,5.5823,0,0,1,2.1182-4.3243,8.517,8.517,0,0,1,5.792-1.8457,8.9407,8.9407,0,0,1,6.9082,2.8477,7.8553,7.8553,0,0,1,2.25,5.4492,8.5757,8.5757,0,0,1-.51,2.8565,13.1071,13.1071,0,0,1-1.5293,2.9619H159.792a24.0979,24.0979,0,0,0-3.375.1318,1.478,1.478,0,0,0-.8613.4131,1.0785,1.0785,0,0,0-.2286.7031,3.6083,3.6083,0,0,0,.2813,1.2305l-.6152.2461-1.9688-4.834v-.791Zm1.125,0h9.6328a6.7715,6.7715,0,0,0,1.3271-1.8545,4.5783,4.5783,0,0,0,.4483-1.96,3.85,3.85,0,0,0-1.7578-2.9795,8.1491,8.1491,0,0,0-5.1153-1.38,7.2557,7.2557,0,0,0-4.7548,1.38,4.0236,4.0236,0,0,0-1.6612,3.1377,4.0732,4.0732,0,0,0,.4746,1.8633A8.079,8.079,0,0,0,165.8213,380.4092Z" transform="translate(-11.2256 -27.5078)"/>
    <path class="cls-4" d="M167.9834,364.1143a8.27,8.27,0,0,0,5.625-1.74,5.3069,5.3069,0,0,0,2.0391-4.1308,4.48,4.48,0,0,0-.87-2.751,6.4218,6.4218,0,0,0-2.9794-1.96l.3515-.5449a8.3818,8.3818,0,0,1,4.3858,2.1445,5.7269,5.7269,0,0,1,1.9775,4.4473,6.4942,6.4942,0,0,1-2.2588,4.9658,8.6525,8.6525,0,0,1-6.0732,2.0655,9.1828,9.1828,0,0,1-6.4424-2.1182,6.9082,6.9082,0,0,1-2.3115-5.3174,5.9443,5.9443,0,0,1,1.7841-4.4473,6.5419,6.5419,0,0,1,4.7725-1.74Zm-1.0195,0v-7.4532a6.89,6.89,0,0,0-2.18.3692,3.49,3.49,0,0,0-1.5469,1.31,3.3021,3.3021,0,0,0-.5625,1.8194,3.6258,3.6258,0,0,0,1.1338,2.61A4.92,4.92,0,0,0,166.9639,364.1143Z" transform="translate(-11.2256 -27.5078)"/>
    <path class="cls-4" d="M163.1846,344.55h10.582a5.17,5.17,0,0,0,2.8477-.4922,2.1581,2.1581,0,0,0,.7734-1.74v-1.459h.6328v9.6152h-.6328v-.7207a2.4281,2.4281,0,0,0-.3516-1.2832,1.8278,1.8278,0,0,0-.9492-.8,7.942,7.942,0,0,0-2.32-.22h-10.582v3.1289h-1.2657V347.45h-1.0546a9.6659,9.6659,0,0,1-4.0782-.7734,6.3322,6.3322,0,0,1-2.6982-2.3643,6.4465,6.4465,0,0,1-1.0283-3.5771,5.4255,5.4255,0,0,1,1.1953-3.3926,2.247,2.247,0,0,1,1.7754-1.02,1.4057,1.4057,0,0,1,.9931.4571,1.366,1.366,0,0,1,.4659.9843,1.5808,1.5808,0,0,1-.29.8526,4.6381,4.6381,0,0,1-1.248,1.0986,4.4163,4.4163,0,0,0-1.292,1.1953,2.2749,2.2749,0,0,0-.334,1.2129,2.1888,2.1888,0,0,0,.4307,1.3711,2.4122,2.4122,0,0,0,1.3359.8086,25.0778,25.0778,0,0,0,4.667.2461h1.16v-4.1484h1.2657Z" transform="translate(-11.2256 -27.5078)"/>
    <path class="cls-4" d="M161.4443,330.98a7.1355,7.1355,0,0,1,2.7774-5.8711,8.5282,8.5282,0,0,1,5.4492-1.8809,10.2617,10.2617,0,0,1,4.377,1.0371,7.3658,7.3658,0,0,1,4.4648,6.9083,6.823,6.823,0,0,1-2.9,5.7832,8.9859,8.9859,0,0,1-5.4844,1.81,9.7313,9.7313,0,0,1-4.4033-1.0986,7.5039,7.5039,0,0,1-3.2344-2.8916A7.4194,7.4194,0,0,1,161.4443,330.98Zm1.1426.5449a3.6663,3.6663,0,0,0,.5537,1.8721,3.8826,3.8826,0,0,0,1.9424,1.52,9.3472,9.3472,0,0,0,3.5684.58,12.4316,12.4316,0,0,0,6.0644-1.3975q2.5488-1.3974,2.5488-3.6826a3.4317,3.4317,0,0,0-1.4062-2.8125q-1.4062-1.1074-4.834-1.1074a11.0189,11.0189,0,0,0-6.75,1.8457A3.8034,3.8034,0,0,0,162.5869,331.5244Z" transform="translate(-11.2256 -27.5078)"/>
    <path class="cls-4" d="M161.4443,316.1436h3.6211q-3.621-2.0215-3.6211-4.1485a2.2562,2.2562,0,0,1,.5889-1.6,1.8109,1.8109,0,0,1,1.3623-.6328,1.61,1.61,0,0,1,1.16.457,1.4612,1.4612,0,0,1,.4746,1.09,2.322,2.322,0,0,1-.6065,1.38,2.2777,2.2777,0,0,0-.6064,1.1337,1.0468,1.0468,0,0,0,.3515.6856,8.4594,8.4594,0,0,0,2.3731,1.6348h7.7168a4.7782,4.7782,0,0,0,2.0215-.334,1.8209,1.8209,0,0,0,.791-.8086,3.5523,3.5523,0,0,0,.3164-1.67h.6328v8.2441h-.6328a3.4227,3.4227,0,0,0-.3867-1.8281,1.501,1.501,0,0,0-.8965-.6153,9.041,9.041,0,0,0-1.7051-.0879h-6.24a25.9248,25.9248,0,0,0-3.3487.1143,1.3112,1.3112,0,0,0-.7822.4219,1.1855,1.1855,0,0,0-.2461.7646,3.4755,3.4755,0,0,0,.2637,1.2305l-.6328.1758-1.9688-4.8692Z" transform="translate(-11.2256 -27.5078)"/>
    <path class="cls-4" d="M167.9834,306.1592a8.27,8.27,0,0,0,5.625-1.74,5.3068,5.3068,0,0,0,2.0391-4.1308,4.48,4.48,0,0,0-.87-2.751,6.4218,6.4218,0,0,0-2.9794-1.96l.3515-.5449a8.3819,8.3819,0,0,1,4.3858,2.1446,5.7267,5.7267,0,0,1,1.9775,4.4472,6.4942,6.4942,0,0,1-2.2588,4.9658,8.6525,8.6525,0,0,1-6.0732,2.0655,9.1828,9.1828,0,0,1-6.4424-2.1182,6.9082,6.9082,0,0,1-2.3115-5.3174,5.944,5.944,0,0,1,1.7841-4.4472,6.5416,6.5416,0,0,1,4.7725-1.74Zm-1.0195,0v-7.4531a6.8876,6.8876,0,0,0-2.18.3691,3.4906,3.4906,0,0,0-1.5469,1.31,3.3015,3.3015,0,0,0-.5625,1.8193,3.6261,3.6261,0,0,0,1.1338,2.61A4.92,4.92,0,0,0,166.9639,306.1592Z" transform="translate(-11.2256 -27.5078)"/>
    <path class="cls-4" d="M155.4854,286.4893h9.4218V281.251a4.27,4.27,0,0,0-.6152-2.7246,3.9594,3.9594,0,0,0-2.8477-1.02v-.65h8.2969v.65a9.0768,9.0768,0,0,0-2.2324.4922,2.2009,2.2009,0,0,0-.9668,1.0371,5.295,5.295,0,0,0-.3516,2.2149v5.2383h7.8575a7.2956,7.2956,0,0,0,1.9248-.1407,1.1055,1.1055,0,0,0,.5449-.4922,2.99,2.99,0,0,0,.2021-1.3359v-4.043a10.954,10.954,0,0,0-.2812-2.9355,4.3789,4.3789,0,0,0-1.1074-1.7578,13.525,13.525,0,0,0-3.2872-2.2324v-.7032l5.9766,2.0567v18.3691h-.65v-.8437a3.3424,3.3424,0,0,0-.4043-1.6,1.4789,1.4789,0,0,0-.8437-.7647,8.2723,8.2723,0,0,0-2.3028-.2021H158.333a5.1257,5.1257,0,0,0-2.7949.457,2.7227,2.7227,0,0,0-.7031,2.1094v.8437h-.65V274.9053l5.2207-.2637v.6855a8.2368,8.2368,0,0,0-2.584.8174,2.8068,2.8068,0,0,0-1.0723,1.3272,7.9617,7.9617,0,0,0-.2636,2.4785Z" transform="translate(-11.2256 -27.5078)"/>
    <path class="cls-4" d="M175.7,261.7744a26.5513,26.5513,0,0,1,2.2148,3.1113,4.7538,4.7538,0,0,1,.44,2.0215,3.6225,3.6225,0,0,1-1.1426,2.751,4.1941,4.1941,0,0,1-3.0058,1.0811,3.8279,3.8279,0,0,1-2.0391-.5274,6.9818,6.9818,0,0,1-2.25-2.5049,38.9731,38.9731,0,0,1-2.5664-5.9326h-.6328a5.2492,5.2492,0,0,0-3.3047.7647,2.76,2.76,0,0,0-.8965,2.2236,2.4968,2.4968,0,0,0,.5977,1.7578,1.7983,1.7983,0,0,0,1.3711.668l1.0195-.0352a1.7528,1.7528,0,0,1,1.248.4131,1.4151,1.4151,0,0,1,.4395,1.0811,1.3684,1.3684,0,0,1-.457,1.0634,1.7924,1.7924,0,0,1-1.2481.4131,3.5965,3.5965,0,0,1-2.7773-1.5469,6.6788,6.6788,0,0,1-1.2657-4.3417,7.5321,7.5321,0,0,1,.7207-3.5157A3.3141,3.3141,0,0,1,163.87,259.19a9.6092,9.6092,0,0,1,3.0938-.3164h5.4668a25.0376,25.0376,0,0,0,2.8213-.0879,1.1842,1.1842,0,0,0,.6943-.29.6889.6889,0,0,0,.1758-.4658.9584.9584,0,0,0-.1231-.4922,10.9775,10.9775,0,0,0-1.2832-1.4238H175.7q2.6367,1.9688,2.6367,3.7617a1.71,1.71,0,0,1-.5976,1.3711A3.2285,3.2285,0,0,1,175.7,261.7744Zm-1.1426,0h-6.1347a34.6973,34.6973,0,0,0,1.4941,3.4277,5.92,5.92,0,0,0,1.6172,1.9864,3.1255,3.1255,0,0,0,1.8457.5976,3.0119,3.0119,0,0,0,2.1006-.7558,2.2906,2.2906,0,0,0,.8349-1.74Q176.3154,263.9541,174.5576,261.7744Z" transform="translate(-11.2256 -27.5078)"/>
    <path class="cls-4" d="M171.9033,241.2432a8.7221,8.7221,0,0,1,4.8955,2.5488,6.13,6.13,0,0,1,1.7139,4.2012,6.2084,6.2084,0,0,1-2.3027,4.7812,9.0486,9.0486,0,0,1-6.2227,2.0391,8.5809,8.5809,0,0,1-6.17-2.2588,7.2225,7.2225,0,0,1-2.3731-5.4229,5.9436,5.9436,0,0,1,1.2569-3.9023,3.4763,3.4763,0,0,1,2.61-1.5293,1.43,1.43,0,0,1,1.0811.4307,1.6684,1.6684,0,0,1,.4131,1.2041,1.8722,1.8722,0,0,1-.668,1.5644,2.7771,2.7771,0,0,1-1.4063.3955,2.305,2.305,0,0,0-1.582.7119,2.538,2.538,0,0,0-.5273,1.7051,3.4869,3.4869,0,0,0,1.3008,2.83,6.9177,6.9177,0,0,0,4.5527,1.4238,9.2188,9.2188,0,0,0,5.0889-1.415,4.3454,4.3454,0,0,0,2.206-3.8233,4.6227,4.6227,0,0,0-1.1777-3.0937,7.95,7.95,0,0,0-2.9356-1.8809Z" transform="translate(-11.2256 -27.5078)"/>
    <path class="cls-4" d="M153.0244,234.2119h11.7774a13.5438,13.5438,0,0,1-2.751-3.0937,4.8369,4.8369,0,0,1-.6065-2.2852,3.7541,3.7541,0,0,1,.7559-2.3555,4.4639,4.4639,0,0,1,2.373-1.4589,16.8038,16.8038,0,0,1,4.1133-.334h5.6953a5.9537,5.9537,0,0,0,2.0918-.2461,1.3733,1.3733,0,0,0,.668-.5977,3.3656,3.3656,0,0,0,.2461-1.5469h.6328v7.91h-.6328v-.3691a2.6357,2.6357,0,0,0-.3428-1.5645,1.8185,1.8185,0,0,0-1.0107-.6152,13.929,13.929,0,0,0-1.6524-.0528h-5.6953a13.6843,13.6843,0,0,0-3.4629.2725,2.3346,2.3346,0,0,0-1.2392.87,2.4724,2.4724,0,0,0-.4131,1.4414,4.0668,4.0668,0,0,0,.457,1.793,8.5526,8.5526,0,0,0,1.8457,2.2324h8.5078a6.6233,6.6233,0,0,0,2.0567-.1846,1.5,1.5,0,0,0,.6767-.6855,3.9154,3.9154,0,0,0,.2725-1.7314h.6328v7.98h-.6328a3.5625,3.5625,0,0,0-.334-1.6875,1.2545,1.2545,0,0,0-.668-.5625,6.071,6.071,0,0,0-2.0039-.2109H159.81a24.3028,24.3028,0,0,0-3.3926.1318,1.5136,1.5136,0,0,0-.8613.4043,1.0984,1.0984,0,0,0-.2286.73,4.2905,4.2905,0,0,0,.2813,1.1953l-.6152.2461-1.9688-4.8164Z" transform="translate(-11.2256 -27.5078)"/>
  </g>
  <g>
    <path class="cls-4" d="M60.9424,212.18a26.5513,26.5513,0,0,1-3.1113,2.2148,4.7538,4.7538,0,0,1-2.0215.44,3.6225,3.6225,0,0,1-2.751-1.1426,4.1942,4.1942,0,0,1-1.0811-3.0059,3.8278,3.8278,0,0,1,.5274-2.039,6.9818,6.9818,0,0,1,2.5049-2.25,38.9731,38.9731,0,0,1,5.9326-2.5664v-.6328a5.2492,5.2492,0,0,0-.7647-3.3047,2.76,2.76,0,0,0-2.2236-.8965,2.4968,2.4968,0,0,0-1.7578.5977,1.7982,1.7982,0,0,0-.668,1.371l.0352,1.02a1.7528,1.7528,0,0,1-.4131,1.248,1.4153,1.4153,0,0,1-1.0811.4395,1.368,1.368,0,0,1-1.0634-.4571,1.792,1.792,0,0,1-.4131-1.248A3.5966,3.5966,0,0,1,54.14,199.19a6.6793,6.6793,0,0,1,4.3418-1.2657,7.5321,7.5321,0,0,1,3.5157.7207,3.3141,3.3141,0,0,1,1.5293,1.7051,9.6092,9.6092,0,0,1,.3164,3.0938V208.91a25.034,25.034,0,0,0,.0879,2.8212,1.1846,1.1846,0,0,0,.29.6944.6889.6889,0,0,0,.4658.1758.9594.9594,0,0,0,.4922-.1231,10.9775,10.9775,0,0,0,1.4238-1.2832v.9844q-1.9687,2.6367-3.7617,2.6367a1.71,1.71,0,0,1-1.3711-.5976A3.2285,3.2285,0,0,1,60.9424,212.18Zm0-1.1426v-6.1348a34.7316,34.7316,0,0,0-3.4278,1.4942,5.9208,5.9208,0,0,0-1.9863,1.6172,3.1255,3.1255,0,0,0-.5976,1.8457,3.0119,3.0119,0,0,0,.7558,2.1006,2.2906,2.2906,0,0,0,1.74.8349Q58.7627,212.7949,60.9424,211.0371Z" transform="translate(-11.2256 -27.5078)"/>
    <path class="cls-4" d="M74.0908,199.6641v10.582a5.17,5.17,0,0,0,.4922,2.8477,2.1581,2.1581,0,0,0,1.74.7734h1.459V214.5H68.167v-.6328h.7207a2.4281,2.4281,0,0,0,1.2832-.3516,1.8281,1.8281,0,0,0,.8-.9492,7.942,7.942,0,0,0,.22-2.32v-10.582H68.0615v-1.2657H71.19v-1.0546a9.6643,9.6643,0,0,1,.7735-4.0782,6.3308,6.3308,0,0,1,2.3642-2.6982,6.4471,6.4471,0,0,1,3.5772-1.0283,5.4259,5.4259,0,0,1,3.3926,1.1953,2.2471,2.2471,0,0,1,1.02,1.7754,1.406,1.406,0,0,1-.457.9931,1.3662,1.3662,0,0,1-.9844.4659,1.5811,1.5811,0,0,1-.8526-.29,4.6381,4.6381,0,0,1-1.0986-1.248,4.415,4.415,0,0,0-1.1953-1.292,2.2749,2.2749,0,0,0-1.2129-.334,2.1882,2.1882,0,0,0-1.3711.4307,2.4122,2.4122,0,0,0-.8086,1.3359,25.0872,25.0872,0,0,0-.2461,4.667v1.16h4.1485v1.2657Z" transform="translate(-11.2256 -27.5078)"/>
    <path class="cls-4" d="M84.4619,193.1074v5.291h3.7617v1.23H84.4619V210.07A3.5061,3.5061,0,0,0,84.91,212.18a1.4236,1.4236,0,0,0,1.1513.5449,2.0141,2.0141,0,0,0,1.125-.36,2.3178,2.3178,0,0,0,.8438-1.0635h.6855a5.5152,5.5152,0,0,1-1.74,2.5928,3.7553,3.7553,0,0,1-2.32.87,3.1192,3.1192,0,0,1-1.5821-.4483,2.7094,2.7094,0,0,1-1.1425-1.2832,6.7363,6.7363,0,0,1-.3692-2.5752V199.6289H79.0127v-.58a6.6744,6.6744,0,0,0,1.9775-1.31,10.415,10.415,0,0,0,1.8018-2.1885,19.6969,19.6969,0,0,0,1.125-2.4434Z" transform="translate(-11.2256 -27.5078)"/>
    <path class="cls-4" d="M92.4951,204.4629a8.27,8.27,0,0,0,1.74,5.625,5.3068,5.3068,0,0,0,4.1308,2.0391,4.48,4.48,0,0,0,2.751-.87,6.4208,6.4208,0,0,0,1.96-2.98l.545.3516a8.3813,8.3813,0,0,1-2.1446,4.3857,5.7265,5.7265,0,0,1-4.4472,1.9776,6.4942,6.4942,0,0,1-4.9658-2.2588A8.6525,8.6525,0,0,1,89.999,206.66a9.1828,9.1828,0,0,1,2.1182-6.4424,6.9082,6.9082,0,0,1,5.3174-2.3115,5.944,5.944,0,0,1,4.4472,1.7841,6.5416,6.5416,0,0,1,1.74,4.7725Zm0-1.0195h7.4531a6.89,6.89,0,0,0-.3691-2.18,3.4906,3.4906,0,0,0-1.31-1.5469,3.3015,3.3015,0,0,0-1.8193-.5625,3.6261,3.6261,0,0,0-2.61,1.1338A4.92,4.92,0,0,0,92.4951,203.4434Z" transform="translate(-11.2256 -27.5078)"/>
    <path class="cls-4" d="M110.4775,197.9238v3.6211q2.0215-3.621,4.1485-3.6211a2.2562,2.2562,0,0,1,1.6.5889,1.8109,1.8109,0,0,1,.6328,1.3623,1.61,1.61,0,0,1-.457,1.16,1.4612,1.4612,0,0,1-1.09.4746,2.322,2.322,0,0,1-1.38-.6065,2.278,2.278,0,0,0-1.1337-.6064,1.0468,1.0468,0,0,0-.6856.3515,8.4594,8.4594,0,0,0-1.6348,2.3731v7.7168a4.7782,4.7782,0,0,0,.334,2.0215,1.8214,1.8214,0,0,0,.8086.791,3.5523,3.5523,0,0,0,1.67.3164V214.5h-8.2441v-.6328a3.4227,3.4227,0,0,0,1.8281-.3867,1.501,1.501,0,0,0,.6153-.8965,9.045,9.045,0,0,0,.0878-1.7051v-6.24a25.9339,25.9339,0,0,0-.1142-3.3487,1.3112,1.3112,0,0,0-.4219-.7822,1.1855,1.1855,0,0,0-.7646-.2461,3.4755,3.4755,0,0,0-1.23.2637l-.1758-.6328,4.8692-1.9688Z" transform="translate(-11.2256 -27.5078)"/>
    <path class="cls-4" d="M124.1533,191.9648v9.4219h5.2383a4.27,4.27,0,0,0,2.7246-.6152,3.9594,3.9594,0,0,0,1.02-2.8477h.65v8.2969h-.65a9.0722,9.0722,0,0,0-.4921-2.2324,2.2007,2.2007,0,0,0-1.0372-.9668,5.2942,5.2942,0,0,0-2.2148-.3516h-5.2383v7.8574a7.3011,7.3011,0,0,0,.1406,1.9248,1.1062,1.1062,0,0,0,.4922.545,2.99,2.99,0,0,0,1.336.2021h4.0429a10.9544,10.9544,0,0,0,2.9356-.2812,4.3781,4.3781,0,0,0,1.7578-1.1075,13.5222,13.5222,0,0,0,2.2324-3.2871h.7031L135.7373,214.5H117.3682v-.65h.8437a3.3435,3.3435,0,0,0,1.6-.4043,1.4789,1.4789,0,0,0,.7647-.8437,8.2763,8.2763,0,0,0,.2021-2.3028V194.8125a5.1257,5.1257,0,0,0-.457-2.7949,2.7227,2.7227,0,0,0-2.1094-.7031h-.8437v-.65h18.3691l.2637,5.2207h-.6856a8.2342,8.2342,0,0,0-.8174-2.584,2.8065,2.8065,0,0,0-1.3271-1.0723,7.9613,7.9613,0,0,0-2.4785-.2637Z" transform="translate(-11.2256 -27.5078)"/>
    <path class="cls-4" d="M148.8682,212.18a26.54,26.54,0,0,1-3.1114,2.2148,4.753,4.753,0,0,1-2.0214.44,3.6225,3.6225,0,0,1-2.751-1.1426,4.1942,4.1942,0,0,1-1.0811-3.0059,3.8278,3.8278,0,0,1,.5274-2.039,6.9814,6.9814,0,0,1,2.5048-2.25,38.9753,38.9753,0,0,1,5.9327-2.5664v-.6328a5.2492,5.2492,0,0,0-.7647-3.3047,2.7605,2.7605,0,0,0-2.2236-.8965,2.4968,2.4968,0,0,0-1.7578.5977,1.7982,1.7982,0,0,0-.668,1.371l.0352,1.02a1.7528,1.7528,0,0,1-.4131,1.248,1.4153,1.4153,0,0,1-1.0811.4395,1.3684,1.3684,0,0,1-1.0635-.4571,1.792,1.792,0,0,1-.413-1.248,3.5966,3.5966,0,0,1,1.5468-2.7773,6.6791,6.6791,0,0,1,4.3418-1.2657,7.5321,7.5321,0,0,1,3.5157.7207,3.3135,3.3135,0,0,1,1.5292,1.7051,9.6053,9.6053,0,0,1,.3165,3.0938V208.91a25.0711,25.0711,0,0,0,.0878,2.8212,1.1845,1.1845,0,0,0,.29.6944.6887.6887,0,0,0,.4658.1758.9594.9594,0,0,0,.4922-.1231,10.9775,10.9775,0,0,0,1.4238-1.2832v.9844q-1.9687,2.6367-3.7617,2.6367a1.71,1.71,0,0,1-1.3711-.5976A3.2285,3.2285,0,0,1,148.8682,212.18Zm0-1.1426v-6.1348a34.72,34.72,0,0,0-3.4278,1.4942,5.9187,5.9187,0,0,0-1.9863,1.6172,3.1257,3.1257,0,0,0-.5977,1.8457,3.012,3.012,0,0,0,.7559,2.1006,2.2906,2.2906,0,0,0,1.74.8349Q146.6886,212.7949,148.8682,211.0371Z" transform="translate(-11.2256 -27.5078)"/>
    <path class="cls-4" d="M169.3994,208.3828a8.7221,8.7221,0,0,1-2.5488,4.8955,6.13,6.13,0,0,1-4.2012,1.7139,6.2083,6.2083,0,0,1-4.7812-2.3027,9.0486,9.0486,0,0,1-2.0391-6.2227,8.58,8.58,0,0,1,2.2588-6.17,7.2221,7.2221,0,0,1,5.4228-2.3731,5.9437,5.9437,0,0,1,3.9024,1.2569,3.4763,3.4763,0,0,1,1.5293,2.61,1.43,1.43,0,0,1-.4307,1.0811,1.6686,1.6686,0,0,1-1.2041.4131,1.8722,1.8722,0,0,1-1.5644-.668,2.7764,2.7764,0,0,1-.3955-1.4063,2.3047,2.3047,0,0,0-.712-1.582,2.537,2.537,0,0,0-1.705-.5273,3.487,3.487,0,0,0-2.83,1.3007,6.9181,6.9181,0,0,0-1.4238,4.5528,9.2177,9.2177,0,0,0,1.415,5.0888,4.3455,4.3455,0,0,0,3.8232,2.2061,4.6228,4.6228,0,0,0,3.0938-1.1777,7.9483,7.9483,0,0,0,1.8808-2.9356Z" transform="translate(-11.2256 -27.5078)"/>
    <path class="cls-4" d="M176.4307,189.5039v11.7774a13.5417,13.5417,0,0,1,3.0937-2.751,4.8366,4.8366,0,0,1,2.2852-.6065,3.7538,3.7538,0,0,1,2.3554.7559,4.4634,4.4634,0,0,1,1.459,2.373,16.8038,16.8038,0,0,1,.334,4.1133v5.6953a5.9513,5.9513,0,0,0,.2461,2.0918,1.3733,1.3733,0,0,0,.5977.668,3.3651,3.3651,0,0,0,1.5468.2461V214.5h-7.91v-.6328h.3691a2.6357,2.6357,0,0,0,1.5645-.3428,1.819,1.819,0,0,0,.6152-1.0107,13.9394,13.9394,0,0,0,.0527-1.6524V205.166a13.6859,13.6859,0,0,0-.2724-3.4629,2.3347,2.3347,0,0,0-.87-1.2392,2.4724,2.4724,0,0,0-1.4414-.4131,4.0665,4.0665,0,0,0-1.793.457,8.5526,8.5526,0,0,0-2.2324,1.8457v8.5078a6.6278,6.6278,0,0,0,.1845,2.0567,1.5009,1.5009,0,0,0,.6856.6767,3.9154,3.9154,0,0,0,1.7314.2725V214.5h-7.98v-.6328a3.5625,3.5625,0,0,0,1.6875-.334,1.2553,1.2553,0,0,0,.5625-.668,6.071,6.071,0,0,0,.2109-2.0039V196.2891a24.3028,24.3028,0,0,0-.1318-3.3926,1.5136,1.5136,0,0,0-.4043-.8613,1.0984,1.0984,0,0,0-.73-.2286,4.29,4.29,0,0,0-1.1953.2813l-.2461-.6152,4.8164-1.9688Z" transform="translate(-11.2256 -27.5078)"/>
  </g>
  <g>
    <path class="cls-3" d="M194.1074,229.2637H198.23v.3252a5.1142,5.1142,0,0,0-1.89.5674,2.9412,2.9412,0,0,0-1.1162,1.164,3.2215,3.2215,0,0,0-.4131,1.5645,2.128,2.128,0,0,0,.5582,1.5117,1.698,1.698,0,0,0,1.27.5976,1.504,1.504,0,0,0,.9931-.3779,9.7148,9.7148,0,0,0,1.7578-2.5928,18.02,18.02,0,0,1,1.3755-2.2812,3.3523,3.3523,0,0,1,1.1294-.94,2.9637,2.9637,0,0,1,1.3623-.33,3.0821,3.0821,0,0,1,2.3335,1.0507,3.8005,3.8005,0,0,1,.98,2.7022,5.7249,5.7249,0,0,1-.0791.9756,9.8993,9.8993,0,0,1-.3208,1.1289,5.0754,5.0754,0,0,0-.2768,1.0859.4631.4631,0,0,0,.1318.3477,1.0592,1.0592,0,0,0,.5449.1884v.3252h-4.0869v-.3252a5.7756,5.7756,0,0,0,1.92-.6152,2.9509,2.9509,0,0,0,1.0591-1.1826,3.661,3.661,0,0,0,.4219-1.7441,2.4843,2.4843,0,0,0-.58-1.7364,1.7994,1.7994,0,0,0-1.3711-.6367,1.8488,1.8488,0,0,0-.8877.2422,2.6329,2.6329,0,0,0-.835.751,21.5721,21.5721,0,0,0-1.1206,1.872,18.2437,18.2437,0,0,1-1.3667,2.1758,3.6958,3.6958,0,0,1-1.125.98,2.79,2.79,0,0,1-1.3535.334,2.9335,2.9335,0,0,1-2.21-.9844,3.5071,3.5071,0,0,1-.9273-2.5049,5.0262,5.0262,0,0,1,.4658-2.0127,2.07,2.07,0,0,0,.22-.6943.52.52,0,0,0-.1363-.373,1.078,1.078,0,0,0-.5493-.2334Z" transform="translate(-11.2256 -27.5078)"/>
    <path class="cls-3" d="M203.2393,220.1055a4.3611,4.3611,0,0,1,2.4477,1.2744,3.0647,3.0647,0,0,1,.8569,2.1006,3.1041,3.1041,0,0,1-1.1513,2.3906,4.5243,4.5243,0,0,1-3.1114,1.0195,4.2938,4.2938,0,0,1-3.0849-1.1289A3.6136,3.6136,0,0,1,198.01,223.05a2.9718,2.9718,0,0,1,.6284-1.9512,1.7382,1.7382,0,0,1,1.3052-.7646.7185.7185,0,0,1,.5405.2148.8374.8374,0,0,1,.2065.6026.936.936,0,0,1-.334.7822,1.38,1.38,0,0,1-.7031.1973,1.1566,1.1566,0,0,0-.791.3564,1.2687,1.2687,0,0,0-.2637.8525,1.7434,1.7434,0,0,0,.65,1.4151,3.4589,3.4589,0,0,0,2.2764.7119,4.6168,4.6168,0,0,0,2.5444-.707,2.1746,2.1746,0,0,0,1.1031-1.9121,2.311,2.311,0,0,0-.5889-1.5469,3.9724,3.9724,0,0,0-1.4678-.94Z" transform="translate(-11.2256 -27.5078)"/>
    <path class="cls-3" d="M201.2793,217.6006a4.1356,4.1356,0,0,0,2.8125-.87,2.6535,2.6535,0,0,0,1.0195-2.0655,2.2387,2.2387,0,0,0-.435-1.375,3.2118,3.2118,0,0,0-1.49-.98l.1758-.2725a4.1915,4.1915,0,0,1,2.1929,1.0723,2.8632,2.8632,0,0,1,.9887,2.2236,3.2447,3.2447,0,0,1-1.1293,2.4824,4.3221,4.3221,0,0,1-3.0367,1.0332,4.5911,4.5911,0,0,1-3.2212-1.0586,3.4548,3.4548,0,0,1-1.1557-2.6591,2.9719,2.9719,0,0,1,.8921-2.2237,3.2706,3.2706,0,0,1,2.3862-.87Zm-.51,0V213.874a3.4431,3.4431,0,0,0-1.09.1846,1.7413,1.7413,0,0,0-.7735.6553,1.6473,1.6473,0,0,0-.2812.9091,1.8142,1.8142,0,0,0,.5669,1.3057A2.46,2.46,0,0,0,200.77,217.6006Z" transform="translate(-11.2256 -27.5078)"/>
    <path class="cls-3" d="M199.7148,208.6182a3.8,3.8,0,0,1-1.705-2.6983,1.9374,1.9374,0,0,1,.33-1.1338,2.2076,2.2076,0,0,1,1.0854-.7558,5.0212,5.0212,0,0,1,1.6172-.1934h3.4365a2.8964,2.8964,0,0,0,1.0371-.123.721.721,0,0,0,.3428-.3116,1.7709,1.7709,0,0,0,.123-.7959h.3165v3.9815h-.3165v-.167a1.3364,1.3364,0,0,0-.1713-.7861.8944.8944,0,0,0-.5054-.3125,5.125,5.125,0,0,0-.8262-.0352h-3.2959a3.3593,3.3593,0,0,0-1.5952.2852,1.0217,1.0217,0,0,0-.4966.9629,2.898,2.898,0,0,0,1.1426,2.083h4.2451a3.0359,3.0359,0,0,0,1.0108-.0967.8127.8127,0,0,0,.3735-.3379,2.0985,2.0985,0,0,0,.1186-.875h.3165V211.29h-.3165v-.1757a.948.948,0,0,0-.312-.8311,2.2871,2.2871,0,0,0-1.1909-.2148H201.49a12.7668,12.7668,0,0,0-1.7666.0664.7563.7563,0,0,0-.4306.2011.5524.5524,0,0,0-.1143.3653,1.6911,1.6911,0,0,0,.1318.5888l-.3164.1319-.9843-2.4258v-.3779Z" transform="translate(-11.2256 -27.5078)"/>
    <path class="cls-3" d="M205.1377,197.4033a13.2586,13.2586,0,0,1,1.1074,1.5557,2.3765,2.3765,0,0,1,.22,1.0107,1.8138,1.8138,0,0,1-.5712,1.376,2.1011,2.1011,0,0,1-1.503.54,1.9137,1.9137,0,0,1-1.0195-.2636,3.4864,3.4864,0,0,1-1.125-1.253,19.4244,19.4244,0,0,1-1.2832-2.9658h-.3164a2.6321,2.6321,0,0,0-1.6524.3819,1.3826,1.3826,0,0,0-.4482,1.1123,1.2487,1.2487,0,0,0,.2988.8789.9.9,0,0,0,.6856.334l.51-.0176a.8809.8809,0,0,1,.6241.206.7105.7105,0,0,1,.22.541.6819.6819,0,0,1-.2285.5313.8918.8918,0,0,1-.6241.207,1.7983,1.7983,0,0,1-1.3886-.7734,3.34,3.34,0,0,1-.6328-2.1709,3.7656,3.7656,0,0,1,.36-1.7578,1.6571,1.6571,0,0,1,.8526-.7647,4.8051,4.8051,0,0,1,1.5468-.1582h2.7334a12.5248,12.5248,0,0,0,1.4107-.0439.5863.5863,0,0,0,.3471-.1455.3416.3416,0,0,0,.0879-.2324.48.48,0,0,0-.0615-.2461,5.4871,5.4871,0,0,0-.6416-.712h.4922q1.3184.9844,1.3184,1.8809a.8549.8549,0,0,1-.2989.6855A1.6129,1.6129,0,0,1,205.1377,197.4033Zm-.5713,0H201.499a17.3544,17.3544,0,0,0,.7471,1.7139,2.96,2.96,0,0,0,.8086.9932,1.5627,1.5627,0,0,0,.9228.2988,1.506,1.506,0,0,0,1.05-.3779,1.1451,1.1451,0,0,0,.4175-.87A3.1891,3.1891,0,0,0,204.5664,197.4033Z" transform="translate(-11.2256 -27.5078)"/>
    <path class="cls-3" d="M198.01,191.62h1.81q-1.81-1.0107-1.81-2.0742a1.1279,1.1279,0,0,1,.2944-.8.9056.9056,0,0,1,.6812-.3164.8048.8048,0,0,1,.58.2285.7305.7305,0,0,1,.2373.5449,1.1642,1.1642,0,0,1-.3032.69,1.1346,1.1346,0,0,0-.3032.5664.5232.5232,0,0,0,.1758.3427,4.2265,4.2265,0,0,0,1.1865.8174h3.8584a2.3871,2.3871,0,0,0,1.0107-.167.9094.9094,0,0,0,.3955-.4043,1.7753,1.7753,0,0,0,.1582-.8349h.3165v4.122h-.3165a1.7113,1.7113,0,0,0-.1933-.914.7505.7505,0,0,0-.4483-.3076,4.5175,4.5175,0,0,0-.8525-.044h-3.12a12.92,12.92,0,0,0-1.6743.0576.6552.6552,0,0,0-.3911.211.5908.5908,0,0,0-.1231.3818,1.74,1.74,0,0,0,.1318.6152l-.3164.0879-.9843-2.4345Z" transform="translate(-11.2256 -27.5078)"/>
    <path class="cls-3" d="M193.8,185.9336a.8862.8862,0,0,1,.8877-.8877.8707.8707,0,0,1,.6328.26.8474.8474,0,0,1,.2637.6279.8921.8921,0,1,1-1.7842,0Zm4.21-.73h6.4687a2.9655,2.9655,0,0,0,1.0064-.1094.7677.7677,0,0,0,.3735-.3261,1.7363,1.7363,0,0,0,.123-.7862h.3165v3.9112h-.3165a1.8209,1.8209,0,0,0-.1142-.7911.779.779,0,0,0-.3779-.32,2.8147,2.8147,0,0,0-1.0108-.1191H201.376a10.9761,10.9761,0,0,0-1.6963.0791.69.69,0,0,0-.3911.1933.5458.5458,0,0,0-.11.36,1.7619,1.7619,0,0,0,.1318.5977l-.3164.123-.9843-2.4258Z" transform="translate(-11.2256 -27.5078)"/>
    <path class="cls-3" d="M198.01,179.043a3.568,3.568,0,0,1,1.3886-2.9356,4.2647,4.2647,0,0,1,2.7246-.94,5.13,5.13,0,0,1,2.1885.5185,3.6817,3.6817,0,0,1,2.2324,3.4541,3.4118,3.4118,0,0,1-1.45,2.8917,4.4932,4.4932,0,0,1-2.7422.9052,4.8536,4.8536,0,0,1-2.2017-.55,3.663,3.663,0,0,1-2.14-3.3437Zm.5713.2724a1.8343,1.8343,0,0,0,.2768.9366,1.9406,1.9406,0,0,0,.9712.76,4.6726,4.6726,0,0,0,1.7842.29,6.2262,6.2262,0,0,0,3.0322-.6983,2.0817,2.0817,0,0,0,1.2744-1.8418,1.7159,1.7159,0,0,0-.7031-1.4062,3.9963,3.9963,0,0,0-2.417-.5537,5.51,5.51,0,0,0-3.375.9228A1.9017,1.9017,0,0,0,198.5811,179.3154Z" transform="translate(-11.2256 -27.5078)"/>
    <path class="cls-3" d="M198.01,165.543a3.568,3.568,0,0,1,1.3886-2.9356,4.2647,4.2647,0,0,1,2.7246-.94,5.13,5.13,0,0,1,2.1885.5185,3.6817,3.6817,0,0,1,2.2324,3.4541,3.4118,3.4118,0,0,1-1.45,2.8917,4.4932,4.4932,0,0,1-2.7422.9052,4.8536,4.8536,0,0,1-2.2017-.55,3.663,3.663,0,0,1-2.14-3.3437Zm.5713.2724a1.8343,1.8343,0,0,0,.2768.9366,1.9406,1.9406,0,0,0,.9712.76,4.6726,4.6726,0,0,0,1.7842.29,6.2262,6.2262,0,0,0,3.0322-.6983,2.0817,2.0817,0,0,0,1.2744-1.8418,1.7159,1.7159,0,0,0-.7031-1.4062,3.9963,3.9963,0,0,0-2.417-.5537,5.51,5.51,0,0,0-3.375.9228A1.9017,1.9017,0,0,0,198.5811,165.8154Z" transform="translate(-11.2256 -27.5078)"/>
    <path class="cls-3" d="M198.2471,153.4229h4.8779a12.4392,12.4392,0,0,0,1.7095-.0655.7779.7779,0,0,0,.435-.2109.51.51,0,0,0,.1231-.3389,1.5644,1.5644,0,0,0-.1494-.6152l.3076-.1231.9931,2.4082v.3955h-1.705a7.3368,7.3368,0,0,1,1.415,1.5821,2.4154,2.4154,0,0,1,.29,1.1513,1.8363,1.8363,0,0,1-.3911,1.1729,2.0172,2.0172,0,0,1-1.0063.69,6.0838,6.0838,0,0,1-1.74.1934h-3.5947a1.7723,1.7723,0,0,0-.791.123.8227.8227,0,0,0-.3384.3643,2.1473,2.1473,0,0,0-.11.875h-.3252v-2.8213h5.3877a2.0076,2.0076,0,0,0,1.4765-.3916,1.3608,1.3608,0,0,0,.3516-.9443,1.9678,1.9678,0,0,0-.2373-.8565,4.6411,4.6411,0,0,0-.9053-1.1387h-4.5615a1.297,1.297,0,0,0-.9273.25,1.6272,1.6272,0,0,0-.2592,1.042h-.3252Z" transform="translate(-11.2256 -27.5078)"/>
    <path class="cls-3" d="M195.6016,149.1426h2.6455v-1.8809h.6152v1.8809h5.2207a1.7454,1.7454,0,0,0,1.0547-.2246.71.71,0,0,0,.2725-.5752,1.0069,1.0069,0,0,0-.18-.5625,1.1582,1.1582,0,0,0-.5318-.4219v-.3428a2.7572,2.7572,0,0,1,1.2964.87,1.8773,1.8773,0,0,1,.4351,1.16,1.56,1.56,0,0,1-.2241.791,1.3548,1.3548,0,0,1-.6416.5713,3.3679,3.3679,0,0,1-1.2876.1846h-5.4141v1.2744h-.29a3.3352,3.3352,0,0,0-.6548-.9883,5.2087,5.2087,0,0,0-1.0943-.9014,9.8566,9.8566,0,0,0-1.2216-.5625Z" transform="translate(-11.2256 -27.5078)"/>
    <path class="cls-3" d="M193.8,143.7109h10.6787a2.8931,2.8931,0,0,0,1.002-.11.7738.7738,0,0,0,.3735-.3379,1.9442,1.9442,0,0,0,.1274-.8525h.3165v3.9462h-.3165a1.7052,1.7052,0,0,0-.1142-.7558.7622.7622,0,0,0-.3779-.3164,2.9421,2.9421,0,0,0-1.0108-.1143H197.166a12.6779,12.6779,0,0,0-1.6743.0615.74.74,0,0,0-.4263.1973.5253.5253,0,0,0-.1142.3477,1.6394,1.6394,0,0,0,.1406.58l-.3076.1495-.9844-2.3995Z" transform="translate(-11.2256 -27.5078)"/>
    <path class="cls-3" d="M193.8,139.4307a.886.886,0,0,1,.8877-.8877.871.871,0,0,1,.6328.26.8478.8478,0,0,1,.2637.628.8921.8921,0,1,1-1.7842,0Zm4.21-.73h6.4687a2.9682,2.9682,0,0,0,1.0064-.1094.7674.7674,0,0,0,.3735-.3262,1.7358,1.7358,0,0,0,.123-.7861h.3165v3.9111h-.3165a1.82,1.82,0,0,0-.1142-.791.7779.7779,0,0,0-.3779-.32,2.8147,2.8147,0,0,0-1.0108-.1191H201.376a10.9627,10.9627,0,0,0-1.6963.0791.689.689,0,0,0-.3911.1933.5456.5456,0,0,0-.11.36,1.7614,1.7614,0,0,0,.1318.5976l-.3164.1231-.9843-2.4258Z" transform="translate(-11.2256 -27.5078)"/>
    <path class="cls-3" d="M199.7148,134.1309a3.8,3.8,0,0,1-1.705-2.6983,1.9374,1.9374,0,0,1,.33-1.1338,2.2076,2.2076,0,0,1,1.0854-.7558,5.0212,5.0212,0,0,1,1.6172-.1934h3.4365a2.8964,2.8964,0,0,0,1.0371-.123.721.721,0,0,0,.3428-.3116,1.7709,1.7709,0,0,0,.123-.7959h.3165v3.9815h-.3165v-.167a1.3364,1.3364,0,0,0-.1713-.7861.8944.8944,0,0,0-.5054-.3125,5.125,5.125,0,0,0-.8262-.0352h-3.2959a3.3593,3.3593,0,0,0-1.5952.2852,1.0217,1.0217,0,0,0-.4966.9629,2.898,2.898,0,0,0,1.1426,2.083h4.2451a3.0359,3.0359,0,0,0,1.0108-.0967.8132.8132,0,0,0,.3735-.3379,2.0985,2.0985,0,0,0,.1186-.875h.3165v3.9814h-.3165v-.1757a.948.948,0,0,0-.312-.8311,2.2871,2.2871,0,0,0-1.1909-.2148H201.49a12.7668,12.7668,0,0,0-1.7666.0664.7563.7563,0,0,0-.4306.2011.5524.5524,0,0,0-.1143.3653,1.6911,1.6911,0,0,0,.1318.5888l-.3164.1319-.9843-2.4258v-.3779Z" transform="translate(-11.2256 -27.5078)"/>
    <path class="cls-3" d="M201.2793,126.124a4.1351,4.1351,0,0,0,2.8125-.87,2.6533,2.6533,0,0,0,1.0195-2.0654,2.2383,2.2383,0,0,0-.435-1.375,3.2118,3.2118,0,0,0-1.49-.9805l.1758-.2725a4.1915,4.1915,0,0,1,2.1929,1.0723,2.8632,2.8632,0,0,1,.9887,2.2236,3.2449,3.2449,0,0,1-1.1293,2.4825,4.3226,4.3226,0,0,1-3.0367,1.0332,4.5916,4.5916,0,0,1-3.2212-1.0586,3.4552,3.4552,0,0,1-1.1557-2.6592,2.9716,2.9716,0,0,1,.8921-2.2236,3.2706,3.2706,0,0,1,2.3862-.87Zm-.51,0v-3.7265a3.4466,3.4466,0,0,0-1.09.1845,1.7413,1.7413,0,0,0-.7735.6553,1.6479,1.6479,0,0,0-.2812.9092,1.814,1.814,0,0,0,.5669,1.3056A2.4592,2.4592,0,0,0,200.77,126.124Z" transform="translate(-11.2256 -27.5078)"/>
  </g>
  <g>
    <path class="cls-3" d="M261.877,311.1387a3.8246,3.8246,0,0,1,1.8544.8437,2.6211,2.6211,0,0,1,.8526,1.9776,2.9436,2.9436,0,0,1-.5625,1.7,3.2173,3.2173,0,0,1-1.543,1.1865,8.9425,8.9425,0,0,1-2.9922.374h-5.625v-.3252h.4483a1.2056,1.2056,0,0,0,1.0722-.4746,2.7388,2.7388,0,0,0,.2022-1.31v-7.6992a2.4153,2.4153,0,0,0-.2549-1.3975,1.2913,1.2913,0,0,0-1.02-.3867h-.4483v-.3252h5.15a10.166,10.166,0,0,1,2.3115.211,3.7113,3.7113,0,0,1,2.0127,1.12,2.75,2.75,0,0,1,.6944,1.8506,2.5592,2.5592,0,0,1-.5449,1.6035A3.1962,3.1962,0,0,1,261.877,311.1387Zm-4.6055-.4746a6.6657,6.6657,0,0,0,.7422.0918q.4175.0308.9189.0312a5.134,5.134,0,0,0,1.9287-.2773,2.0683,2.0683,0,0,0,.9893-.8477,2.3813,2.3813,0,0,0,.3428-1.248,2.28,2.28,0,0,0-.8526-1.7842,3.6972,3.6972,0,0,0-2.4873-.7383,5.969,5.969,0,0,0-1.582.1934Zm0,5.6953a8.8575,8.8575,0,0,0,2.0127.2373,3.6277,3.6277,0,0,0,2.4258-.7168,2.2422,2.2422,0,0,0,.8349-1.7705,2.5968,2.5968,0,0,0-.3779-1.336,2.5328,2.5328,0,0,0-1.23-1.0107,5.3139,5.3139,0,0,0-2.1094-.3691q-.5448,0-.9316.0175a4.7581,4.7581,0,0,0-.624.0616Z" transform="translate(-11.2256 -27.5078)"/>
    <path class="cls-3" d="M270.6924,316.0605a13.2651,13.2651,0,0,1-1.5557,1.1075,2.3765,2.3765,0,0,1-1.0107.22,1.8122,1.8122,0,0,1-1.376-.5713,2.0965,2.0965,0,0,1-.54-1.5029,1.9152,1.9152,0,0,1,.2636-1.02,3.4908,3.4908,0,0,1,1.252-1.125,19.5028,19.5028,0,0,1,2.9668-1.2832v-.3164a2.6182,2.6182,0,0,0-.3828-1.6523,1.3781,1.3781,0,0,0-1.1114-.4482,1.2487,1.2487,0,0,0-.8789.2988.8992.8992,0,0,0-.3339.6855l.0175.51a.8766.8766,0,0,1-.207.624.7065.7065,0,0,1-.54.22.6851.6851,0,0,1-.5323-.2285.8957.8957,0,0,1-.206-.624,1.7985,1.7985,0,0,1,.7734-1.3887,3.34,3.34,0,0,1,2.1709-.6328,3.7643,3.7643,0,0,1,1.7578.36,1.6568,1.6568,0,0,1,.7647.8525,4.8063,4.8063,0,0,1,.1582,1.5469v2.7334a12.51,12.51,0,0,0,.0439,1.41.5881.5881,0,0,0,.1455.3477.3416.3416,0,0,0,.2325.0879.4794.4794,0,0,0,.246-.0615,5.4951,5.4951,0,0,0,.712-.6416v.4921q-.9844,1.3185-1.8809,1.3184a.8549.8549,0,0,1-.6855-.2988A1.6132,1.6132,0,0,1,270.6924,316.0605Zm0-.5712v-3.0674a17.3625,17.3625,0,0,0-1.7139.747,2.9609,2.9609,0,0,0-.9931.8086,1.5624,1.5624,0,0,0-.2989.9229,1.5044,1.5044,0,0,0,.378,1.05,1.1457,1.1457,0,0,0,.87.418A3.1891,3.1891,0,0,0,270.6924,315.4893Z" transform="translate(-11.2256 -27.5078)"/>
    <path class="cls-3" d="M280.958,314.1621a4.36,4.36,0,0,1-1.2744,2.4473,3.0653,3.0653,0,0,1-2.1006.8574,3.104,3.104,0,0,1-2.3906-1.1514,4.524,4.524,0,0,1-1.0195-3.1113,4.29,4.29,0,0,1,1.1289-3.085,3.6121,3.6121,0,0,1,2.7119-1.1865,2.9716,2.9716,0,0,1,1.9511.6279,1.739,1.739,0,0,1,.7647,1.3057.7171.7171,0,0,1-.2149.54.8376.8376,0,0,1-.6025.207.936.936,0,0,1-.7822-.334,1.38,1.38,0,0,1-.1973-.7031,1.157,1.157,0,0,0-.3564-.791,1.2688,1.2688,0,0,0-.8526-.2637,1.7434,1.7434,0,0,0-1.415.65,3.4588,3.4588,0,0,0-.7119,2.2763,4.6072,4.6072,0,0,0,.707,2.544,2.1741,2.1741,0,0,0,1.9121,1.1035,2.3112,2.3112,0,0,0,1.5469-.5889,3.974,3.974,0,0,0,.94-1.4677Z" transform="translate(-11.2256 -27.5078)"/>
    <path class="cls-3" d="M284.4912,304.7227V312.73l2.0479-1.8633a6.86,6.86,0,0,0,.7558-.7558.3783.3783,0,0,0,.07-.211.3947.3947,0,0,0-.1445-.3037.79.79,0,0,0-.48-.1445V309.17h3.4981v.2813a3.3111,3.3111,0,0,0-1.2.22,3.8728,3.8728,0,0,0-1.05.7207l-2.0655,1.9072,2.0655,2.61q.8613,1.0811,1.16,1.3711a2.3853,2.3853,0,0,0,.7383.5361,2.2984,2.2984,0,0,0,.7646.0879v.3164h-3.9111v-.3164a.8138.8138,0,0,0,.4522-.1016.3065.3065,0,0,0,.1191-.2588,1.3533,1.3533,0,0,0-.3516-.65l-2.47-3.1553V315.41a3.0047,3.0047,0,0,0,.11,1.0283.6937.6937,0,0,0,.3115.3515,2.3548,2.3548,0,0,0,.8789.1143v.3164h-4.0957v-.3164a2.1979,2.1979,0,0,0,.9228-.1494.6351.6351,0,0,0,.2813-.2988,2.6665,2.6665,0,0,0,.1318-1.002v-7.33a13.1262,13.1262,0,0,0-.0615-1.71.74.74,0,0,0-.2021-.4307.5531.5531,0,0,0-.3692-.1182,1.6621,1.6621,0,0,0-.5537.1494l-.1494-.3076,2.3906-.9843Z" transform="translate(-11.2256 -27.5078)"/>
    <path class="cls-3" d="M293.2627,314.2852a2.6459,2.6459,0,0,1-1.5293-2.4346,2.7445,2.7445,0,0,1,.9014-2.0567,3.1993,3.1993,0,0,1,2.3066-.8613,3.5123,3.5123,0,0,1,1.9951.5625h1.7051a2.2673,2.2673,0,0,1,.44.0215.15.15,0,0,1,.0878.0752.5381.5381,0,0,1,.0528.2812.7849.7849,0,0,1-.044.3165.1832.1832,0,0,1-.0918.07,1.9628,1.9628,0,0,1-.4443.0263h-1.0459a2.7122,2.7122,0,0,1-.3691,3.542,3.2625,3.2625,0,0,1-2.3116.8,4.4929,4.4929,0,0,1-1.2216-.1758,2.3168,2.3168,0,0,0-.5235.584.9349.9349,0,0,0-.1357.4268.404.404,0,0,0,.1455.29,1.0567,1.0567,0,0,0,.5664.2022q.2461.0351,1.2305.0615,1.81.044,2.3466.123a2.21,2.21,0,0,1,1.3057.6065,1.6593,1.6593,0,0,1,.4873,1.2129,2.5417,2.5417,0,0,1-.9316,1.8633,5.0243,5.0243,0,0,1-3.5772,1.2832,5.1224,5.1224,0,0,1-2.8652-.7647q-.6593-.4393-.6592-.914a1.0042,1.0042,0,0,1,.0967-.4219,4.9151,4.9151,0,0,1,.6152-.9053q.0615-.0791.8965-.9492a2.7764,2.7764,0,0,1-.6465-.4883.7177.7177,0,0,1-.1885-.4873,1.439,1.439,0,0,1,.251-.7207A5.7366,5.7366,0,0,1,293.2627,314.2852Zm-.0879,2.9355a4.3279,4.3279,0,0,0-.624.835,1.5061,1.5061,0,0,0-.211.7119.89.89,0,0,0,.51.7383,4.8567,4.8567,0,0,0,2.54.5449,3.9245,3.9245,0,0,0,2.3331-.5586,1.5312,1.5312,0,0,0,.7519-1.19.666.666,0,0,0-.4482-.65,5.8711,5.8711,0,0,0-1.8106-.2285A28.9448,28.9448,0,0,1,293.1748,317.2207Zm1.6172-7.8662a1.3729,1.3729,0,0,0-1.09.5185,2.4214,2.4214,0,0,0-.4394,1.5909,3.4233,3.4233,0,0,0,.5977,2.1533,1.4159,1.4159,0,0,0,1.16.58,1.3844,1.3844,0,0,0,1.0986-.501,2.3806,2.3806,0,0,0,.4307-1.5733,3.52,3.52,0,0,0-.6064-2.1884A1.3927,1.3927,0,0,0,294.792,309.3545Z" transform="translate(-11.2256 -27.5078)"/>
    <path class="cls-3" d="M302.4648,308.9326v1.8106q1.0108-1.8107,2.0743-1.8106a1.128,1.128,0,0,1,.8.294.9065.9065,0,0,1,.3164.6816.805.805,0,0,1-.2285.58.7307.7307,0,0,1-.545.2373,1.1659,1.1659,0,0,1-.69-.3037,1.1324,1.1324,0,0,0-.5664-.3028.5234.5234,0,0,0-.3428.1758,4.2337,4.2337,0,0,0-.8174,1.1865V315.34a2.3889,2.3889,0,0,0,.167,1.0108.911.911,0,0,0,.4043.3955,1.7758,1.7758,0,0,0,.835.1582v.3164H299.749v-.3164a1.7114,1.7114,0,0,0,.9141-.1934.75.75,0,0,0,.3076-.4482,4.5222,4.5222,0,0,0,.0439-.8525v-3.12a12.93,12.93,0,0,0-.0576-1.6748.6542.6542,0,0,0-.2109-.3906.5913.5913,0,0,0-.3818-.123,1.7376,1.7376,0,0,0-.6153.1318l-.0879-.3164,2.4346-.9844Z" transform="translate(-11.2256 -27.5078)"/>
    <path class="cls-3" d="M310.041,308.9326a3.5678,3.5678,0,0,1,2.9356,1.3887,4.2643,4.2643,0,0,1,.94,2.7246,5.131,5.131,0,0,1-.5186,2.1885,3.6815,3.6815,0,0,1-3.4541,2.2324,3.4115,3.4115,0,0,1-2.8916-1.45,4.493,4.493,0,0,1-.9052-2.7422,4.8552,4.8552,0,0,1,.55-2.2021,3.6617,3.6617,0,0,1,3.3437-2.14Zm-.2724.5713a1.8337,1.8337,0,0,0-.9366.2764,1.9416,1.9416,0,0,0-.76.9717,4.672,4.672,0,0,0-.29,1.7841,6.2266,6.2266,0,0,0,.6983,3.0323,2.0816,2.0816,0,0,0,1.8418,1.2744,1.7157,1.7157,0,0,0,1.4062-.7032,3.9959,3.9959,0,0,0,.5537-2.4169,5.51,5.51,0,0,0-.9228-3.375A1.9018,1.9018,0,0,0,309.7686,309.5039Z" transform="translate(-11.2256 -27.5078)"/>
    <path class="cls-3" d="M322.1611,309.17v4.878a12.4279,12.4279,0,0,0,.0655,1.7089.78.78,0,0,0,.2109.4356.51.51,0,0,0,.3389.123,1.5644,1.5644,0,0,0,.6152-.1494l.123.3076-2.4082.9932h-.3955v-1.7051a7.3358,7.3358,0,0,1-1.582,1.4151,2.4169,2.4169,0,0,1-1.1514.29,1.8372,1.8372,0,0,1-1.1728-.3916,2.0157,2.0157,0,0,1-.69-1.0059,6.0826,6.0826,0,0,1-.1934-1.74v-3.5947a1.7717,1.7717,0,0,0-.123-.791.8238.8238,0,0,0-.3643-.3389,2.1508,2.1508,0,0,0-.875-.1094V309.17H317.38v5.3877a2.008,2.008,0,0,0,.3916,1.4766,1.3606,1.3606,0,0,0,.9443.3515,1.9678,1.9678,0,0,0,.8565-.2373,4.6383,4.6383,0,0,0,1.1386-.9052v-4.5616a1.2976,1.2976,0,0,0-.25-.9277,1.6272,1.6272,0,0,0-1.042-.2588V309.17Z" transform="translate(-11.2256 -27.5078)"/>
    <path class="cls-3" d="M326.45,310.6377a3.8,3.8,0,0,1,2.6982-1.7051,1.9376,1.9376,0,0,1,1.1338.3291,2.21,2.21,0,0,1,.7559,1.086,5.021,5.021,0,0,1,.1933,1.6171v3.4366a2.8965,2.8965,0,0,0,.1231,1.0371.7212.7212,0,0,0,.3115.3428,1.7715,1.7715,0,0,0,.7959.123v.3164h-3.9814v-.3164h.167a1.335,1.335,0,0,0,.7861-.1719.8924.8924,0,0,0,.3125-.5049,5.1421,5.1421,0,0,0,.0351-.8261v-3.2959a3.3625,3.3625,0,0,0-.2851-1.5957,1.0213,1.0213,0,0,0-.9629-.4961,2.8975,2.8975,0,0,0-2.083,1.1426v4.2451a3.0323,3.0323,0,0,0,.0967,1.0107.8111.8111,0,0,0,.3379.3731,2.0955,2.0955,0,0,0,.875.1191v.3164h-3.9815v-.3164h.1758a.9482.9482,0,0,0,.8311-.3125,2.2863,2.2863,0,0,0,.2148-1.19v-2.9883a12.7831,12.7831,0,0,0-.0664-1.7666.7567.7567,0,0,0-.2012-.4307.5522.5522,0,0,0-.3652-.1142,1.6889,1.6889,0,0,0-.5889.1318l-.1318-.3164,2.4258-.9844h.3779Z" transform="translate(-11.2256 -27.5078)"/>
    <path class="cls-3" d="M338.79,316.3154a4.061,4.061,0,0,1-1.1513.8828,2.7822,2.7822,0,0,1-1.2129.2686,3.0019,3.0019,0,0,1-2.3028-1.1035,4.096,4.096,0,0,1-.9843-2.834,5.1255,5.1255,0,0,1,1.09-3.1689,3.3684,3.3684,0,0,1,2.8037-1.4366,2.4152,2.4152,0,0,1,1.7578.6768v-1.4854a12.3515,12.3515,0,0,0-.0654-1.6963.7452.7452,0,0,0-.207-.4306.54.54,0,0,0-.3516-.1143,1.8532,1.8532,0,0,0-.6064.1406l-.1143-.3076,2.3994-.9843h.3955V314.03a12.2468,12.2468,0,0,0,.0664,1.7265.7556.7556,0,0,0,.211.4356.5041.5041,0,0,0,.3379.123,1.9121,1.9121,0,0,0,.6328-.1494l.0967.3076-2.3907.9932H338.79Zm0-.6152v-4.1484a2.8024,2.8024,0,0,0-.3164-1.09,1.83,1.83,0,0,0-.6982-.7431,1.7,1.7,0,0,0-.8486-.25,1.7984,1.7984,0,0,0-1.38.6943,3.945,3.945,0,0,0-.8,2.6719,4.196,4.196,0,0,0,.7734,2.72,2.2179,2.2179,0,0,0,1.7227.9453A2.14,2.14,0,0,0,338.79,315.7Z" transform="translate(-11.2256 -27.5078)"/>
  </g>
</svg>
